<svg display="none" xmlns="http://www.w3.org/2000/svg" xmlns:xlink="http://www.w3.org/1999/xlink">

  <symbol id="header-logo" viewBox="0 0 43 48">

    <path d="M23.8238 19.3168H31.5353V20.2696L23.0705 26C22.6929 26.2557 22.4658 26.6861 22.4658 27.1472V30.217C22.4658 30.9786 23.0738 31.596 23.8238 31.596H32.8933C33.6428 31.596 34.2514 30.978 34.2514 30.217C34.2514 29.456 33.6428 28.8381 32.8933 28.8381H25.1818V27.8852L33.6467 22.1548C34.0243 21.8991 34.2514 21.4687 34.2514 21.0076V17.9378C34.2514 17.1762 33.6434 16.5589 32.8933 16.5589H23.8238C23.0744 16.5589 22.4658 17.1768 22.4658 17.9378C22.4658 18.6988 23.0744 19.3168 23.8238 19.3168Z" />
    <path d="M12.7064 16.5589H18.7527C19.5022 16.5589 20.1107 17.1768 20.1107 17.9378C20.1107 18.6988 19.5022 19.3168 18.7527 19.3168H13.269L11.0412 21.5789V22.6985H18.7527C19.5028 22.6985 20.1107 23.3158 20.1107 24.0774V27.1472C20.1107 27.5128 19.9677 27.8637 19.7129 28.1222L16.6897 31.192C16.4352 31.4508 16.0896 31.596 15.7295 31.596H9.68321C8.93376 31.596 8.3252 30.978 8.3252 30.217C8.3252 29.456 8.93376 28.8381 9.68321 28.8381H15.1669L17.3947 26.5759V25.4564H9.68321C8.93316 25.4564 8.3252 24.839 8.3252 24.0774V21.0076C8.3252 20.642 8.46819 20.2911 8.72305 20.0327L11.7462 16.9629C12.0008 16.7041 12.3463 16.5589 12.7064 16.5589Z" />
    <path fill-rule="evenodd" clip-rule="evenodd" d="M17.6532 1.04727L3.84772 9.13966C1.46716 10.5357 0 13.1151 0 15.9072V32.093C0 34.8851 1.46716 37.4645 3.84772 38.8605C5.7294 39.9637 8.23085 41.4299 10.7337 42.8969L10.7432 42.9025C13.2541 44.3742 15.7655 45.8462 17.6532 46.9529C20.0338 48.349 22.9672 48.349 25.3477 46.9529C27.2372 45.8452 29.7515 44.3715 32.2647 42.8984L32.2711 42.8946C34.7727 41.4284 37.2725 39.9631 39.1532 38.8605C41.5338 37.4645 43 34.8851 43 32.093V15.9072C43 13.1151 41.5338 10.5357 39.1532 9.13966C37.2673 8.03402 34.7589 6.56374 32.2505 5.09346C29.742 3.62319 27.2336 2.15291 25.3477 1.04727C22.9672 -0.34881 20.0338 -0.34881 17.6532 1.04727ZM19.0108 3.43525C20.5511 2.53219 22.4499 2.53219 23.9902 3.43525L37.7947 11.5286C39.3359 12.4317 40.2849 14.1011 40.2849 15.9072V32.093C40.2849 33.9001 39.3359 35.5685 37.7947 36.4716L23.9902 44.565C22.4499 45.468 20.5511 45.468 19.0108 44.565L5.20627 36.4716C3.66507 35.5685 2.71611 33.9001 2.71611 32.093V15.9072C2.71611 14.1011 3.66507 12.4317 5.20627 11.5286L19.0108 3.43525Z" />

  </symbol>

  <symbol id="email-ic" viewBox="0 0 22 18">
    <path d="M19.8 4.5L11 10.125L2.2 4.5V2.25L11 7.875L19.8 2.25V4.5ZM19.8 0H2.2C0.979 0 0 1.00125 0 2.25V15.75C0 16.3467 0.231785 16.919 0.644365 17.341C1.05694 17.7629 1.61652 18 2.2 18H19.8C20.3835 18 20.9431 17.7629 21.3556 17.341C21.7682 16.919 22 16.3467 22 15.75V2.25C22 1.00125 21.01 0 19.8 0Z"/>
  </symbol>

  <symbol id="github-ic" viewBox="0 0 22 22">
    <path fill-rule="evenodd" clip-rule="evenodd" d="M10.9964 0C8.38493 0.00139711 5.85912 0.95511 3.87058 2.6906C1.88204 4.4261 0.560451 6.8302 0.142112 9.47304C-0.276226 12.1159 0.235965 14.8251 1.58711 17.1163C2.93826 19.4075 5.04025 21.1312 7.51722 21.9793C8.06368 22.0839 8.26952 21.7346 8.26952 21.4377C8.26952 21.1408 8.25858 20.2798 8.25494 19.3386C5.19476 20.0202 4.54812 18.007 4.54812 18.007C4.04902 16.6997 3.32769 16.3561 3.32769 16.3561C2.32949 15.6576 3.40238 15.6707 3.40238 15.6707C4.50805 15.751 5.08912 16.8342 5.08912 16.8342C6.06911 18.5579 7.66294 18.0593 8.28955 17.7679C8.38791 17.0377 8.6739 16.541 8.98903 16.259C6.54452 15.9751 3.97615 15.0077 3.97615 10.6862C3.961 9.5654 4.36665 8.48155 5.10916 7.65886C4.99622 7.37499 4.61916 6.22831 5.21662 4.67076C5.21662 4.67076 6.14015 4.36822 8.2422 5.82678C10.0452 5.32126 11.9475 5.32126 13.7505 5.82678C15.8508 4.36822 16.7724 4.67076 16.7724 4.67076C17.3717 6.22457 16.9947 7.37125 16.8817 7.65886C17.6266 8.48168 18.0331 9.56742 18.0166 10.6899C18.0166 15.0208 15.4427 15.9751 12.9946 16.2534C13.388 16.6045 13.7396 17.2899 13.7396 18.3432C13.7396 19.8521 13.7268 21.0661 13.7268 21.4377C13.7268 21.7384 13.9254 22.0895 14.4828 21.9793C16.96 21.1311 19.0622 19.4071 20.4134 17.1155C21.7645 14.8239 22.2764 12.1143 21.8576 9.4712C21.4388 6.82812 20.1165 4.42399 18.1273 2.68879C16.1381 0.953596 13.6117 0.00051155 11 0H10.9964Z"/>
  </symbol>

  <symbol id="telegram-ic" viewBox="0 0 22 22">
    <path fill-rule="evenodd" clip-rule="evenodd" d="M22 11C22 17.0751 17.0751 22 11 22C4.92487 22 0 17.0751 0 11C0 4.92487 4.92487 0 11 0C17.0751 0 22 4.92487 22 11ZM11.3942 8.12071C10.3243 8.56572 8.18596 9.48678 4.97924 10.8839C4.45852 11.091 4.18574 11.2936 4.16091 11.4916C4.11894 11.8264 4.53816 11.9582 5.10903 12.1377C5.18668 12.1621 5.26713 12.1874 5.34961 12.2142C5.91126 12.3968 6.66676 12.6104 7.05952 12.6189C7.41579 12.6266 7.81342 12.4797 8.25243 12.1783C11.2486 10.1558 12.7952 9.13351 12.8923 9.11148C12.9608 9.09593 13.0557 9.07638 13.12 9.13355C13.1844 9.19072 13.178 9.29898 13.1712 9.32803C13.1297 9.50507 11.4841 11.0349 10.6325 11.8266C10.3671 12.0735 10.1787 12.2485 10.1402 12.2885C10.054 12.3781 9.96612 12.4628 9.88165 12.5442C9.35988 13.0472 8.96859 13.4244 9.90332 14.0404C10.3525 14.3364 10.712 14.5812 11.0705 14.8254C11.4622 15.0921 11.8528 15.3581 12.3582 15.6894C12.4869 15.7738 12.6099 15.8615 12.7297 15.9468C13.1854 16.2717 13.5949 16.5637 14.1007 16.5171C14.3946 16.4901 14.6983 16.2137 14.8525 15.3893C15.2169 13.4412 15.9332 9.22027 16.0987 7.48092C16.1132 7.32853 16.095 7.1335 16.0803 7.04788C16.0657 6.96227 16.035 6.84029 15.9238 6.74999C15.792 6.64305 15.5885 6.6205 15.4975 6.6221C15.0838 6.62939 14.449 6.8501 11.3942 8.12071Z"/>
  </symbol>

  <symbol id="vk-ic" viewBox="0 0 20 20">
    <path fill-rule="evenodd" clip-rule="evenodd" d="M1.40589 1.40589C0 2.81177 0 5.0745 0 9.6V10.4C0 14.9255 0 17.1882 1.40589 18.5941C2.81177 20 5.0745 20 9.6 20H10.4C14.9255 20 17.1882 20 18.5941 18.5941C20 17.1882 20 14.9255 20 10.4V9.6C20 5.0745 20 2.81177 18.5941 1.40589C17.1882 0 14.9255 0 10.4 0H9.6C5.0745 0 2.81177 0 1.40589 1.40589ZM3.37505 6.08337C3.48338 11.2834 6.08337 14.4084 10.6417 14.4084H10.9001V11.4334C12.5751 11.6 13.8417 12.825 14.35 14.4084H16.7167C16.0667 12.0417 14.3583 10.7334 13.2916 10.2334C14.3583 9.61671 15.8583 8.11671 16.2166 6.08337H14.0666C13.5999 7.73337 12.2168 9.23337 10.9001 9.37504V6.08337H8.75V11.85C7.41667 11.5167 5.73338 9.90004 5.65837 6.08337H3.37505Z"/>
  </symbol>

  <symbol id="bem-ic" viewBox="0 0 97 97">
    <path fill-rule="evenodd" clip-rule="evenodd" d="M9.51761 48.6599C9.84908 48.9801 10.2986 49.16 10.7673 49.16H20.3789C22.5295 49.16 24.3138 48.8373 25.7321 48.1919C27.1505 47.5464 28.212 46.6646 28.9166 45.5462C29.6211 44.4278 29.9736 43.1658 29.9736 41.76C29.9736 40.3807 29.6806 39.2048 29.0951 38.2323C28.5093 37.2598 27.7567 36.506 26.8371 35.9712C25.9175 35.4364 24.9589 35.1423 23.9615 35.0894V34.8242C24.8766 34.6119 25.7047 34.2626 26.4459 33.7763C27.1872 33.2901 27.7773 32.6558 28.2165 31.8732C28.6558 31.0908 28.8753 30.1472 28.8753 29.0419C28.8753 27.6981 28.5392 26.4956 27.8666 25.4347C27.1939 24.3738 26.1828 23.5362 24.833 22.9217C23.4834 22.3072 21.7927 22 19.7613 22H10.7673C10.2986 22 9.84908 22.1799 9.51761 22.5001C9.18615 22.8204 9 23.2546 9 23.7075V47.4525C9 47.9054 9.18615 48.3397 9.51761 48.6599ZM19.5691 45.0489H14.0925V37.0919H19.7063C20.7586 37.0919 21.6647 37.2797 22.4242 37.6554C23.1837 38.0312 23.7693 38.544 24.1811 39.1938C24.5928 39.8436 24.7988 40.5708 24.7988 41.3754C24.7988 42.4539 24.3892 43.336 23.5704 44.021C22.7513 44.7063 21.4176 45.0489 19.5691 45.0489ZM19.1298 33.5509H14.0925V26.0581H19.2398C20.7404 26.0581 21.8728 26.3985 22.6369 27.0792C23.4009 27.7599 23.783 28.6264 23.783 29.6786C23.783 30.4742 23.5794 31.1616 23.1722 31.7406C22.7651 32.3198 22.2092 32.7663 21.5044 33.0801C20.7999 33.394 20.0083 33.5509 19.1298 33.5509Z"/>
    <path d="M34.9247 48.6599C35.2562 48.9801 35.7057 49.16 36.1744 49.16H51.0328C51.5015 49.16 51.951 48.9801 52.2825 48.6599C52.6137 48.3397 52.8001 47.9054 52.8001 47.4525V46.7431C52.8001 46.2903 52.6137 45.856 52.2825 45.5358C51.951 45.2155 51.5015 45.0357 51.0328 45.0357H39.4994V37.6223H49.9758C50.4445 37.6223 50.894 37.4425 51.2255 37.1222C51.5569 36.802 51.7431 36.3677 51.7431 35.9149V35.2053C51.7431 34.7524 51.5569 34.3182 51.2255 33.9979C50.894 33.6779 50.4445 33.4978 49.9758 33.4978H39.4994V26.1243H50.9229C51.3916 26.1243 51.8412 25.9445 52.1725 25.6242C52.504 25.304 52.6901 24.8697 52.6901 24.4168V23.7075C52.6901 22.7644 51.899 22 50.9229 22H36.1744C35.1982 22 34.4071 22.7644 34.4071 23.7075V47.4525C34.4071 47.9054 34.5933 48.3397 34.9247 48.6599Z"/>
    <path d="M59.6597 22C58.6837 22 57.8924 22.7644 57.8924 23.7075V47.4525C57.8924 48.3956 58.6837 49.16 59.6597 49.16H61.0116C61.4803 49.16 61.9298 48.9801 62.2613 48.6599C62.5927 48.3397 62.7789 47.9054 62.7789 47.4525V30.461H63.0397L70.3627 48.0114C70.6321 48.6574 71.2808 49.0805 72.0017 49.0805H73.2677C73.9881 49.0805 74.6365 48.658 74.9063 48.0126L82.2287 30.5008H82.4897V47.4525C82.4897 47.9054 82.6758 48.3397 83.0073 48.6599C83.3386 48.9801 83.7882 49.16 84.257 49.16H85.6087C86.5849 49.16 87.376 48.3956 87.376 47.4525V23.7075C87.376 22.7644 86.5849 22 85.6087 22H82.3302C81.6129 22 80.9669 22.4189 80.6949 23.0602L72.7989 41.6805H72.4694L64.5737 23.0602C64.3017 22.4189 63.6555 22 62.9383 22H59.6597Z"/>
    <path d="M56.8151 69.3027C56.9931 69.4781 57.2258 69.5658 57.5133 69.5658C57.7871 69.5658 58.013 69.4781 58.191 69.3027C58.3689 69.1273 58.4579 68.9046 58.4579 68.6347V59.4241C58.4579 59.1407 58.3689 58.9181 58.191 58.7561C58.013 58.5807 57.7871 58.493 57.5133 58.493C57.2258 58.493 56.9931 58.5807 56.8151 58.7561C56.6372 58.9181 56.5482 59.1407 56.5482 59.4241V68.6347C56.5482 68.9046 56.6372 69.1273 56.8151 69.3027Z"/>
    <path d="M56.6098 56.2055C56.8562 56.4484 57.1505 56.5699 57.4928 56.5699C57.8487 56.5699 58.1499 56.4484 58.3963 56.2055C58.6427 55.9626 58.7659 55.6657 58.7659 55.3148C58.7659 54.964 58.6359 54.6738 58.3758 54.4444C58.1294 54.2015 57.8419 54.08 57.5133 54.08C57.1711 54.08 56.8699 54.2015 56.6098 54.4444C56.3634 54.6738 56.2402 54.964 56.2402 55.3148C56.2402 55.6657 56.3634 55.9626 56.6098 56.2055Z"/>
    <path d="M17.9865 69.3229C18.1781 69.4984 18.4109 69.5861 18.6846 69.5861C18.9448 69.5861 19.1638 69.4984 19.3418 69.3229C19.5334 69.134 19.6292 68.9113 19.6292 68.6549V63.5537C19.6292 62.4471 19.4102 61.5092 18.9721 60.7399C18.5341 59.9707 17.9386 59.3904 17.1856 58.999C16.4327 58.5942 15.5771 58.3918 14.6188 58.3918C13.7152 58.3918 12.9007 58.5874 12.1751 58.9788C11.7369 59.207 11.3536 59.4894 11.0252 59.826V59.4241C11.0252 59.1407 10.9362 58.9181 10.7582 58.7561C10.594 58.5807 10.3681 58.493 10.0806 58.493C9.80679 58.493 9.58091 58.5807 9.40294 58.7561C9.22497 58.9181 9.13599 59.1407 9.13599 59.4241V68.6549C9.13599 68.9248 9.22497 69.1475 9.40294 69.3229C9.58091 69.4984 9.80679 69.5861 10.0806 69.5861C10.3681 69.5861 10.594 69.4984 10.7582 69.3229C10.9362 69.1475 11.0252 68.9248 11.0252 68.6549V62.825C11.0252 62.2986 11.1689 61.8331 11.4564 61.4282C11.7576 61.0233 12.1546 60.6995 12.6474 60.4565C13.1403 60.2136 13.6947 60.0922 14.3107 60.0922C14.9679 60.0922 15.5497 60.2204 16.0562 60.4768C16.5627 60.7197 16.9666 61.0976 17.2678 61.6104C17.5689 62.1097 17.7195 62.7575 17.7195 63.5537V68.6549C17.7195 68.9113 17.8085 69.134 17.9865 69.3229Z"/>
    <path fill-rule="evenodd" clip-rule="evenodd" d="M25.1261 68.9181C25.9338 69.4039 26.8511 69.6468 27.8778 69.6468C28.8772 69.6468 29.767 69.4107 30.5473 68.9383C31.0989 68.6102 31.5712 68.1974 31.9642 67.7V68.6549C31.9642 68.9248 32.0532 69.1475 32.2312 69.3229C32.4091 69.4984 32.635 69.5861 32.9088 69.5861C33.1826 69.5861 33.4085 69.4984 33.5865 69.3229C33.7781 69.1475 33.874 68.9248 33.874 68.6549V64.0395C33.8603 62.9734 33.6002 62.0152 33.0936 61.165C32.6008 60.3148 31.93 59.6468 31.0812 59.161C30.2325 58.6617 29.2673 58.412 28.1858 58.412C27.118 58.412 26.1529 58.6617 25.2904 59.161C24.4417 59.6468 23.764 60.3148 23.2575 61.165C22.7646 62.0017 22.5182 62.9599 22.5182 64.0395C22.5182 65.1057 22.751 66.0638 23.2164 66.914C23.6819 67.7642 24.3184 68.4322 25.1261 68.9181ZM30.1572 67.4808C29.5822 67.8182 28.9251 67.9869 28.1858 67.9869C27.474 67.9869 26.8237 67.8182 26.235 67.4808C25.6464 67.13 25.1809 66.6576 24.8387 66.0638C24.5101 65.4565 24.3458 64.7818 24.3458 64.0395C24.3458 63.2838 24.5101 62.609 24.8387 62.0152C25.1809 61.408 25.6464 60.9356 26.235 60.5982C26.8237 60.2474 27.474 60.0719 28.1858 60.0719C28.9251 60.0719 29.5822 60.2474 30.1572 60.5982C30.7321 60.9356 31.1839 61.408 31.5125 62.0152C31.8547 62.609 32.0258 63.2838 32.0258 64.0395C32.0258 64.7818 31.8547 65.4565 31.5125 66.0638C31.1839 66.6576 30.7321 67.13 30.1572 67.4808Z"/>
    <path d="M51.8784 69.5861C51.6046 69.5861 51.3788 69.4984 51.2008 69.3229C51.0228 69.1475 50.9338 68.9248 50.9338 68.6549V62.8452C50.9338 61.9545 50.7011 61.273 50.2357 60.8007C49.7839 60.3283 49.1952 60.0922 48.4697 60.0922C47.703 60.0922 47.0733 60.3553 46.5805 60.8816C46.1013 61.3945 45.8618 62.0625 45.8618 62.8857V68.6549C45.8618 68.9248 45.7728 69.1475 45.5948 69.3229C45.4305 69.4984 45.2047 69.5861 44.9172 69.5861C44.6434 69.5861 44.4175 69.4984 44.2395 69.3229C44.0615 69.1475 43.9726 68.9248 43.9726 68.6549V62.8452C43.9726 61.9545 43.7398 61.273 43.2744 60.8007C42.8226 60.3283 42.234 60.0922 41.5084 60.0922C40.7418 60.0922 40.1052 60.3486 39.5987 60.8614C39.1058 61.3742 38.8594 62.0287 38.8594 62.825V68.6549C38.8594 68.9248 38.7704 69.1475 38.5925 69.3229C38.4282 69.4984 38.2023 69.5861 37.9148 69.5861C37.641 69.5861 37.4151 69.4984 37.2372 69.3229C37.0592 69.1475 36.9702 68.9248 36.9702 68.6549V59.4444C36.9702 59.161 37.0592 58.9383 37.2372 58.7764C37.4151 58.6009 37.641 58.5132 37.9148 58.5132C38.2023 58.5132 38.4282 58.6009 38.5925 58.7764C38.7704 58.9383 38.8594 59.161 38.8594 59.4444V59.6099C39.1029 59.3582 39.3767 59.1411 39.6808 58.9586C40.3105 58.5807 41.0224 58.3918 41.8164 58.3918C42.6104 58.3918 43.3086 58.5672 43.911 58.9181C44.4124 59.2037 44.8231 59.5965 45.1431 60.0966C45.4917 59.6291 45.9298 59.2498 46.4573 58.9586C47.1418 58.5807 47.9152 58.3918 48.7777 58.3918C49.5717 58.3918 50.2699 58.5672 50.8722 58.9181C51.4883 59.269 51.9674 59.7818 52.3097 60.4565C52.6519 61.1178 52.823 61.914 52.823 62.8452V68.6549C52.823 68.9248 52.7341 69.1475 52.5561 69.3229C52.3918 69.4984 52.1659 69.5861 51.8784 69.5861Z"/>
    <path d="M71.9467 69.5861C71.6729 69.5861 71.4402 69.4984 71.2485 69.3229C71.0705 69.134 70.9815 68.9113 70.9815 68.6549V63.5537C70.9815 62.7575 70.831 62.1097 70.5298 61.6104C70.2286 61.0976 69.8248 60.7197 69.3182 60.4768C68.8117 60.2204 68.2299 60.0922 67.5728 60.0922C66.9567 60.0922 66.4023 60.2136 65.9095 60.4565C65.4166 60.6995 65.0196 61.0233 64.7184 61.4282C64.431 61.8331 64.2872 62.2986 64.2872 62.825V68.6549C64.2872 68.9248 64.1982 69.1475 64.0203 69.3229C63.856 69.4984 63.6301 69.5861 63.3426 69.5861C63.0688 69.5861 62.8429 69.4984 62.665 69.3229C62.487 69.1475 62.398 68.9248 62.398 68.6549V59.4241C62.398 59.1407 62.487 58.9181 62.665 58.7561C62.8429 58.5807 63.0688 58.493 63.3426 58.493C63.6301 58.493 63.856 58.5807 64.0203 58.7561C64.1982 58.9181 64.2872 59.1407 64.2872 59.4241V59.826C64.6156 59.4894 64.9989 59.207 65.4372 58.9788C66.1627 58.5874 66.9773 58.3918 67.8808 58.3918C68.8391 58.3918 69.6947 58.5942 70.4476 58.999C71.2006 59.3904 71.7961 59.9707 72.2342 60.7399C72.6722 61.5092 72.8913 62.4471 72.8913 63.5537V68.6549C72.8913 68.9113 72.7954 69.134 72.6038 69.3229C72.4258 69.4984 72.2068 69.5861 71.9467 69.5861Z"/>
    <path fill-rule="evenodd" clip-rule="evenodd" d="M78.3471 68.9383C79.1548 69.4107 80.0857 69.6468 81.1398 69.6468C82.0844 69.6468 82.9264 69.4174 83.6656 68.9586C84.3452 68.5368 84.8859 67.9667 85.2878 67.2484V68.2096C85.2878 69.0868 85.1167 69.8358 84.7745 70.4565C84.4322 71.0908 83.9736 71.5699 83.3987 71.8938C82.8237 72.2312 82.1871 72.3999 81.4889 72.3999C80.7223 72.3999 80.0446 72.2649 79.456 71.995C78.881 71.7251 78.4019 71.354 78.0186 70.8816C77.868 70.6927 77.6695 70.5712 77.423 70.5173C77.1766 70.4768 76.9439 70.5308 76.7249 70.6792C76.5195 70.8142 76.3963 70.9896 76.3552 71.2055C76.3279 71.4349 76.3963 71.6509 76.5606 71.8533C77.1219 72.5685 77.82 73.1151 78.6551 73.493C79.5039 73.8843 80.4348 74.08 81.4479 74.08C82.5567 74.08 83.5356 73.8236 84.3843 73.3108C85.2468 72.798 85.9176 72.103 86.3967 71.2258C86.8896 70.3621 87.136 69.3904 87.136 68.3108V64.0395C87.1223 62.9329 86.869 61.9613 86.3762 61.1246C85.8971 60.2743 85.2331 59.6131 84.3843 59.1407C83.5356 58.6549 82.5567 58.412 81.4479 58.412C80.3527 58.412 79.3738 58.6549 78.5114 59.1407C77.6626 59.6131 76.9918 60.2743 76.499 61.1246C76.0198 61.9613 75.7803 62.9329 75.7803 64.0395C75.7803 65.1326 76.0061 66.1043 76.4579 66.9545C76.9234 67.7912 77.5531 68.4525 78.3471 68.9383ZM83.4397 67.4808C82.8648 67.8182 82.2008 67.9869 81.4479 67.9869C80.7086 67.9869 80.0446 67.8182 79.456 67.4808C78.881 67.1434 78.4292 66.6779 78.1007 66.0841C77.7721 65.4903 77.6079 64.8088 77.6079 64.0395C77.6079 63.2703 77.7721 62.5888 78.1007 61.995C78.4292 61.3877 78.881 60.9154 79.456 60.578C80.0446 60.2406 80.7086 60.0719 81.4479 60.0719C82.2008 60.0719 82.8648 60.2406 83.4397 60.578C84.0147 60.9154 84.4665 61.3877 84.795 61.995C85.1236 62.5888 85.2878 63.2703 85.2878 64.0395C85.2878 64.8088 85.1236 65.4903 84.795 66.0841C84.4665 66.6779 84.0147 67.1434 83.4397 67.4808Z"/>
  </symbol>

  <symbol id="gulp-ic" viewBox="0 0 70 70">
    <path fill-rule="evenodd" clip-rule="evenodd" d="M25.0211 48.0064C26.9726 48.7895 29.9077 49.3903 34.3191 49.3903C38.7304 49.3903 41.6655 48.7895 43.6171 48.0064C42.8937 49.204 41.9455 50.3891 41.9455 50.3891C41.9455 50.3891 41.6732 58.2879 41.4008 59.9222C41.1284 61.5564 34.3191 61.5564 34.3191 61.5564H34.2995C33.9004 61.5548 27.5013 61.5055 27.2374 59.9222C26.965 58.2879 26.6926 50.3891 26.6926 50.3891C26.6926 50.3891 25.7445 49.204 25.0211 48.0064ZM22.9911 34.1744C22.4046 28.0613 21.7937 21.4385 21.5892 18.964C21.6164 18.9733 21.6444 18.9828 21.6728 18.9923C23.3353 19.5466 26.8972 20.2463 34.3191 20.2463C41.741 20.2463 45.3028 19.5466 46.9654 18.9923C46.9937 18.9828 47.0218 18.9733 47.049 18.964C46.836 21.5382 46.1839 28.6011 45.5765 34.9087C45.077 35.3824 44.5647 35.8487 44.072 36.2031C43.6446 36.51 43.2486 36.7432 42.8912 36.7432C42.8196 36.7432 42.7136 36.7217 42.6592 36.7091C42.6741 36.5675 42.7776 36.4071 42.9027 36.224C43.1982 35.791 43.6661 35.3121 44.1447 34.8725C44.6734 34.3869 44.9272 33.92 45.0081 33.5507C45.0985 33.1386 45.0007 32.8022 44.809 32.5636C44.6143 32.3212 44.3059 32.1605 43.9047 32.1605C43.1165 32.1605 42.4279 32.4171 41.8469 32.7927C41.8497 32.7761 41.8516 32.7594 41.8527 32.7426L41.8532 32.7338L41.8535 32.7259L41.8537 32.7205C41.8562 32.6358 41.8385 32.5527 41.8042 32.4778L41.8012 32.4718L41.7987 32.4666C41.7625 32.3923 41.7097 32.3264 41.6427 32.2744L41.6361 32.2694L41.6293 32.2645L41.6247 32.261C41.5865 32.2338 41.5441 32.2112 41.498 32.1943L41.4909 32.1916L41.4869 32.1902C41.4406 32.1744 41.3934 32.1649 41.3466 32.1616L41.3376 32.161L41.3297 32.1608L41.3243 32.1605C41.2395 32.1583 41.1567 32.1758 41.0818 32.2103L41.0758 32.2131L41.0704 32.2155C40.9963 32.2517 40.9301 32.3046 40.8784 32.3716L40.8732 32.3784L40.8683 32.3849L40.865 32.3896C40.8394 32.4255 40.8182 32.465 40.8016 32.5075L40.469 33.3431C40.006 34.3125 39.2932 35.2489 38.5662 35.9056C38.0266 36.3932 37.4985 36.7432 37.0641 36.7432C36.978 36.7432 36.9132 36.7475 36.8753 36.7116C36.8581 36.6952 36.8603 36.6694 36.8568 36.6451C36.8483 36.5887 36.85 36.5286 36.8557 36.4686C36.884 36.163 37.018 35.8574 37.0472 35.7942C37.8812 34.3185 38.8598 31.8879 40.2753 28.3238C40.3865 28.0444 40.2497 27.7273 39.9703 27.6162C39.6908 27.5054 39.3738 27.6421 39.2629 27.9216C37.8676 31.4344 36.9153 33.8239 36.0971 35.2626C36.0909 35.2726 36.0849 35.283 36.0794 35.2936C36.0102 35.414 35.9424 35.5273 35.8751 35.6341C35.6213 36.0375 35.3854 36.3371 35.1444 36.5313C34.9959 36.6511 34.8507 36.7247 34.6969 36.7399C34.6857 36.6514 34.6666 36.4684 34.6805 36.3229C34.7592 35.484 35.1983 34.2905 35.5074 33.5335C35.6148 33.2979 35.7213 33.0501 35.8272 32.7891C35.9386 32.5146 35.8103 32.2014 35.5382 32.084C35.2664 31.9666 34.9504 32.0881 34.8271 32.3577C34.8271 32.3577 34.7135 32.608 34.5552 32.9959C33.7648 34.7679 32.9785 35.776 32.3245 36.3063C31.9502 36.6095 31.6512 36.7432 31.4469 36.7432C31.3742 36.7432 31.2467 36.7315 31.1868 36.7258C31.1827 36.6999 31.1783 36.6642 31.1783 36.6342C31.1783 36.1023 31.4246 35.4194 31.704 34.787C32.1551 33.7659 32.7189 32.8758 32.7189 32.8758C32.8799 32.6219 32.8044 32.285 32.5503 32.124C32.2964 31.963 31.9595 32.0387 31.7985 32.2926C31.7985 32.2926 31.1922 33.2492 30.7074 34.3468C30.3626 35.1272 30.0888 35.9778 30.0888 36.6342C30.0888 37.1139 30.2591 37.3871 30.4598 37.5598C30.7197 37.7831 31.101 37.8327 31.4469 37.8327C31.8021 37.8327 32.3593 37.6801 33.0106 37.1526C33.192 37.0055 33.384 36.8265 33.5842 36.61C33.6144 37.3803 33.9925 37.8327 34.6361 37.8327C35.0757 37.8327 35.5088 37.6627 35.9432 37.2727C35.9928 37.3566 36.0535 37.4337 36.1257 37.5023C36.3229 37.6894 36.6165 37.8327 37.0641 37.8327C37.5538 37.8327 38.1511 37.5954 38.756 37.1553C38.8503 37.0866 38.9448 37.0131 39.0396 36.9352L37.5584 40.6575C37.4473 40.9369 37.5837 41.254 37.8632 41.3651C38.1427 41.4762 38.4597 41.3398 38.5708 41.0603L40.64 35.8602C40.6831 35.7665 41.1096 34.8668 41.89 34.1387C42.4023 33.6607 43.0732 33.25 43.9047 33.25C43.9172 33.25 43.9336 33.2522 43.9472 33.2546C43.9418 33.2966 43.9281 33.3824 43.9006 33.4445C43.8165 33.6343 43.6533 33.8443 43.4076 34.0701C42.8642 34.5691 42.3386 35.1182 42.003 35.6096C41.717 36.0282 41.5678 36.4264 41.5678 36.7437C41.5678 37.487 42.1482 37.8327 42.8912 37.8327C43.4316 37.8327 44.0616 37.5521 44.7077 37.0877C44.9419 36.9191 45.1808 36.7271 45.4207 36.5209C44.9324 41.5541 44.502 45.7775 44.3969 46.3035C44.3574 46.5007 44.2781 46.7262 44.1714 46.9678C44.1041 47.0019 44.0349 47.0356 43.9641 47.0694C42.1248 47.944 39.1431 48.6642 34.3191 48.6642C29.4951 48.6642 26.5134 47.944 24.6741 47.0694C24.6032 47.0356 24.5341 47.0019 24.4668 46.9678C24.36 46.7262 24.2807 46.5007 24.2413 46.3035C24.1402 45.7982 23.739 41.8804 23.2746 37.1093C23.6175 37.5301 24.0914 37.776 24.5793 37.776C24.9459 37.776 25.4819 37.6306 26.0863 37.2749C26.5368 37.0096 27.0372 36.6233 27.5372 36.0996C27.5375 36.0993 26.7212 38.8546 26.7212 38.8546C26.636 39.1431 26.8007 39.4462 27.0889 39.5317C27.3771 39.617 27.6805 39.4525 27.766 39.164L29.8742 32.0466C29.9586 31.7615 29.7988 31.4613 29.5152 31.3723C29.2317 31.2829 28.9288 31.4376 28.8351 31.7198C28.1111 33.8931 26.9884 35.274 25.9945 36.0258C25.4176 36.4618 24.9078 36.6865 24.5793 36.6865C24.4066 36.6865 24.2524 36.5931 24.1315 36.4517C23.8774 36.1549 23.7714 35.6681 23.8904 35.1144C24.591 31.8565 25.8352 29.8423 26.9982 28.7591C27.6729 28.131 28.2901 27.8232 28.7183 27.8232C29.1846 27.8232 29.5242 28.0926 29.7544 28.3475C30.0085 28.6286 30.1362 28.9081 30.1362 28.9081C30.2585 29.1826 30.581 29.306 30.8556 29.1837C31.1301 29.0612 31.2535 28.7387 31.1309 28.4641C31.1309 28.4641 30.861 27.8532 30.3092 27.3656C29.9142 27.017 29.3828 26.7337 28.7183 26.7337C28.1163 26.7337 27.2036 27.0791 26.2557 27.9619C25.0723 29.0642 23.7807 31.0331 22.9911 34.1744ZM37.4315 15.8546L38.8089 10.5741C38.8661 10.3554 38.9805 10.156 39.1401 9.9961L45.6771 3.45914C46.173 2.96314 46.9787 2.96314 47.4747 3.45914C47.9707 3.95513 47.9707 4.76081 47.4747 5.2568L41.1818 11.5497L40.0196 16.0047C44.6083 16.3715 47.1206 17.1742 47.1206 17.9766C47.1206 18.0066 47.1174 18.0706 47.1108 18.1668C46.9989 18.2112 46.8741 18.2572 46.7355 18.3032C45.1034 18.8472 41.6053 19.5202 34.3191 19.5202C27.0328 19.5202 23.5347 18.8472 21.9027 18.3032C21.764 18.2572 21.6393 18.2112 21.5273 18.1668C21.5208 18.0706 21.5175 18.0066 21.5175 17.9766C21.5175 16.8872 26.1479 15.7977 34.3191 15.7977L34.51 15.7979C35.5423 15.8001 36.5171 15.8197 37.4315 15.8546ZM36.7892 18.3337C36.7334 18.2648 36.7032 18.182 36.7032 18.0902C36.7032 17.8911 36.865 17.7293 37.0641 17.7293C37.1872 17.7293 37.2958 17.7912 37.3609 17.8854C37.5279 18.1259 37.7788 18.3098 38.0838 18.3896C38.5485 18.5108 39.0208 18.358 39.3294 18.0317C39.3956 17.9554 39.495 17.9088 39.6037 17.9088C39.8028 17.9088 39.9646 18.0706 39.9646 18.2697C39.9646 18.3672 39.9278 18.4577 39.8649 18.5225C39.3803 19.0403 38.6346 19.2838 37.9005 19.0923C37.4353 18.9708 37.0515 18.6949 36.7892 18.3337Z" />
  </symbol>

  <symbol id="js-ic" viewBox="0 0 58 58">
    <path fill-rule="evenodd" clip-rule="evenodd" d="M51.4091 12.8655C51.4091 9.40247 48.5975 6.59091 45.1345 6.59091H12.8655C9.40247 6.59091 6.59091 9.40247 6.59091 12.8655V45.1345C6.59091 48.5975 9.40247 51.4091 12.8655 51.4091H45.1345C48.5975 51.4091 51.4091 48.5975 51.4091 45.1345V12.8655ZM19.8169 45.814C20.9921 47.0738 22.6668 47.8616 24.5239 47.8616C28.0765 47.8616 30.9608 44.9773 30.9608 41.4247V28.6973C30.9608 27.6151 30.0822 26.7365 29 26.7365C27.9178 26.7365 27.0392 27.6151 27.0392 28.6973V41.4247C27.0392 42.8129 25.9121 43.94 24.5239 43.94C23.7981 43.94 23.1438 43.6314 22.6844 43.139C21.9463 42.3476 20.7045 42.3045 19.9132 43.0427C19.1218 43.7809 19.0787 45.0226 19.8169 45.814ZM45.0215 28.151C44.1418 27.4917 42.5116 26.5618 40.5534 26.5618C37.2571 26.5618 34.678 29.0918 34.678 32.4878C34.678 34.6212 35.7208 36.7274 38.2308 38.0162C39.5209 38.6785 40.2843 39.0245 42.1778 39.954C42.9364 40.3264 43.7867 40.9405 43.7867 42.1655C43.7867 43.3795 42.5571 43.94 40.7469 43.94C39.5899 43.94 38.5263 43.5624 37.5219 42.6755C36.7107 41.9592 35.4706 42.0362 34.7543 42.8474C34.038 43.6586 34.115 44.8988 34.9262 45.6151C36.7353 47.2125 38.6629 47.8616 40.7469 47.8616C45.3729 47.8616 47.7083 45.2677 47.7083 42.1655C47.7083 39.0844 45.8138 37.3702 43.9058 36.4337C42.0428 35.5191 41.2914 35.1793 40.022 34.5275C39.0722 34.0399 38.5996 33.295 38.5996 32.4878C38.5996 31.3486 39.4477 30.4834 40.5534 30.4834C41.4884 30.4834 42.2495 30.9743 42.6696 31.2891C43.5355 31.9381 44.7656 31.762 45.4146 30.896C46.0636 30.03 45.8875 28.8001 45.0215 28.151Z" />
  </symbol>

  <symbol id="pug-ic" viewBox="0 0 67 67">
    <path fill-rule="evenodd" clip-rule="evenodd" d="M34.0189 39.8692C35.5257 39.9022 36.6056 40.9634 37.3811 42.2025C38.6326 44.202 39.0919 46.7023 39.0919 46.7023C39.1314 46.9168 39.3375 47.0589 39.5523 47.0193C39.7668 46.9798 39.9088 46.7737 39.8693 46.559C39.8693 46.559 39.3799 43.9059 38.051 41.7829C37.1872 40.4023 35.9705 39.2579 34.342 39.0971V34.5667C34.796 34.4492 35.6245 34.2054 36.0285 33.9026C36.2029 33.7717 36.2385 33.5237 36.1075 33.3492C35.9766 33.1748 35.7286 33.1392 35.5541 33.2702C35.1734 33.5558 34.338 33.7643 34.006 33.8389L33.9467 33.852C33.6687 33.7919 32.7453 33.5748 32.3392 33.2702C32.1647 33.1392 31.9168 33.1748 31.7858 33.3492C31.6548 33.5237 31.6904 33.7717 31.8649 33.9026C32.2688 34.2054 33.0973 34.4492 33.5514 34.5667V39.0971C31.9228 39.2579 30.7062 40.4023 29.8423 41.7829C28.5134 43.9059 28.0241 46.559 28.0241 46.559C27.9845 46.7737 28.1266 46.9798 28.3411 47.0193C28.5558 47.0589 28.7619 46.9168 28.8014 46.7023C28.8014 46.7023 29.2608 44.202 30.5122 42.2025C31.3001 40.9439 32.4022 39.8685 33.9467 39.8685L34.0189 39.8692ZM33.889 29.8974C31.4606 29.9235 30.2774 31.5937 29.9804 32.0878C20.861 35.8964 20.6394 41.8694 20.6394 41.8694C20.6392 41.8754 20.6389 41.8812 20.6389 41.8873V45.0495C20.6389 47.2692 21.436 49.1402 22.3499 50.5553C20.1733 49.7673 17.7631 48.241 17.3449 45.313C17.3449 45.313 16.2081 43.0067 14.9732 41.3602C14.6754 40.9634 14.3445 40.2342 14.0888 39.4732C14.208 35.1037 14.5674 31.4719 14.5758 31.3873C15.4952 22.8904 21.5172 18.273 22.8335 17.3586C22.849 17.3654 22.8187 17.3512 22.8335 17.3586C22.8335 17.3586 27.8857 16.0623 33.9467 16.0623L34.0884 16.0626C40.0854 16.0829 45.0598 17.3586 45.0598 17.3586C45.0746 17.3512 45.0443 17.3654 45.0598 17.3586C46.3761 18.273 52.3981 22.8904 53.3175 31.3873C53.326 31.4719 53.6854 35.1037 53.8045 39.4732C53.5489 40.2342 53.2179 40.9634 52.9201 41.3602C51.6853 43.0067 50.5484 45.313 50.5484 45.313C50.1302 48.241 47.7201 49.7673 45.5434 50.5553C46.4573 49.1402 47.2544 47.2692 47.2544 45.0495V41.8873C47.2544 41.8812 47.2542 41.8754 47.2539 41.8694C47.2539 41.8694 47.0323 35.8964 37.9129 32.0878C37.6159 31.5937 36.4327 29.9235 34.0044 29.8974L33.9467 29.8971L33.889 29.8974ZM13.3259 38.5769C13.1607 38.9424 12.9254 39.2521 12.6015 39.2521C12.6015 39.2521 11.2839 39.2521 8.91225 33.5864C8.91225 33.5864 4.16888 28.9748 4.16888 28.4478C4.16888 27.9207 11.811 17.1164 21.2977 17.1164C21.2977 17.1164 21.5125 17.1164 21.7968 17.1406C19.7287 18.7373 14.6428 23.4127 13.7897 31.304C13.7895 31.3051 13.7895 31.3062 13.7892 31.3072C13.7892 31.3072 13.4675 34.5253 13.3259 38.5769ZM54.5674 38.5769C54.7326 38.9424 54.9679 39.2521 55.2918 39.2521C55.2918 39.2521 56.6094 39.2521 58.9811 33.5864C58.9811 33.5864 63.7245 28.9748 63.7245 28.4478C63.7245 27.9207 56.0824 17.1164 46.5956 17.1164C46.5956 17.1164 46.3809 17.1164 46.0965 17.1406C48.1646 18.7373 53.2506 23.4127 54.1036 31.304C54.1039 31.3051 54.1039 31.3062 54.1041 31.3072C54.1041 31.3072 54.4259 34.5253 54.5674 38.5769ZM21.1659 26.4714C18.6933 26.4714 16.6861 28.4786 16.6861 30.9512C16.6861 33.4238 18.6933 35.431 21.1659 35.431C23.6385 35.431 25.6458 33.4238 25.6458 30.9512C25.6458 28.4786 23.6385 26.4714 21.1659 26.4714ZM46.7274 26.4714C49.2 26.4714 51.2072 28.4786 51.2072 30.9512C51.2072 33.4238 49.2 35.431 46.7274 35.431C44.2548 35.431 42.2476 33.4238 42.2476 30.9512C42.2476 28.4786 44.2548 26.4714 46.7274 26.4714ZM21.1659 27.2619C23.2022 27.2619 24.8552 28.915 24.8552 30.9512C24.8552 32.9874 23.2022 34.6405 21.1659 34.6405C19.1297 34.6405 17.4767 32.9874 17.4767 30.9512C17.4767 28.915 19.1297 27.2619 21.1659 27.2619ZM46.7274 27.2619C44.6912 27.2619 43.0381 28.915 43.0381 30.9512C43.0381 32.9874 44.6912 34.6405 46.7274 34.6405C48.7636 34.6405 50.4167 32.9874 50.4167 30.9512C50.4167 28.915 48.7636 27.2619 46.7274 27.2619ZM22.22 27.9207C22.8746 27.9207 23.4059 28.452 23.4059 29.1066C23.4059 29.7611 22.8746 30.2924 22.22 30.2924C21.5654 30.2924 21.0342 29.7611 21.0342 29.1066C21.0342 28.452 21.5654 27.9207 22.22 27.9207ZM45.6733 27.9207C45.0187 27.9207 44.4875 28.452 44.4875 29.1066C44.4875 29.7611 45.0187 30.2924 45.6733 30.2924C46.3279 30.2924 46.8592 29.7611 46.8592 29.1066C46.8592 28.452 46.3279 27.9207 45.6733 27.9207ZM33.8869 52.4307C33.2981 52.4307 28.5116 52.6094 26.0411 51.374C26.0411 51.374 24.9693 51.3026 23.5758 50.936C22.5239 49.5707 21.4295 47.5495 21.4295 45.0495V41.8989C21.4445 41.6849 21.9043 36.2675 30.4079 32.7661C30.4961 32.7297 30.5683 32.6628 30.611 32.5774C30.611 32.5774 31.5689 30.6877 33.9467 30.6877L34.002 30.6879C36.3392 30.7169 37.2823 32.5774 37.2823 32.5774C37.325 32.6628 37.3972 32.7297 37.4855 32.7661C45.989 36.2675 46.4489 41.6849 46.4639 41.8989V45.0495C46.4639 47.5495 45.3695 49.5707 44.3175 50.936C42.924 51.3026 41.8523 51.374 41.8523 51.374C39.3818 52.6094 34.5952 52.4307 34.0065 52.4307H33.8869Z" />
  </symbol>

  <symbol id="sass-ic" viewBox="0 0 68 68">
    <path fill-rule="evenodd" clip-rule="evenodd" d="M32.7882 12.0006C32.7882 12.0006 43.2167 11.7868 43.2167 19.3008C43.2167 24.1705 37.4066 32.2114 26.2603 32.2114C21.2264 32.2114 19.5176 29.495 19.5176 28.474C19.5176 28.0307 19.9955 28.1378 20.283 28.474C20.5705 28.8103 21.96 30.2398 24.9364 30.2398C32.7882 30.2398 40.0053 24.41 40.0053 19.6284C40.0053 19.6284 40.3144 15.4757 32.7882 15.4757C27.3927 15.4757 16.7997 20.0823 12.4604 25.4443C11.1234 27.0963 10.3832 28.894 10.3832 30.5564C10.3832 32.2218 11.1022 33.4955 12.2815 34.666C14.9721 37.3364 17.6102 38.9478 19.7161 40.9751L25.5503 37.8358C25.5503 37.8358 28.193 34.2705 30.7986 34.2705C32.562 34.2705 32.6957 36.0655 32.6957 36.731C32.6957 37.3967 32.6309 37.6408 32.562 38.0524C32.562 38.0524 32.9172 37.6408 33.4562 37.6408C33.9954 37.6408 34.5794 38.0314 34.5794 38.609C34.5794 39.1866 34.4232 39.6783 34.3153 40.1657C34.2074 40.653 32.9547 44.6555 32.9547 45.7498C32.9547 46.1233 33.0304 46.3144 33.093 46.3735C33.093 46.3735 37.3472 38.0524 39.168 32.8478C39.3325 32.3776 40.0307 32.1115 41.4754 32.1115C42.3379 32.1115 42.8543 32.3232 42.8543 32.6606C42.8543 32.998 42.1548 34.409 42.1548 35.9483C42.1548 36.8942 42.1916 37.9259 43.0515 39.4505C43.0515 39.4505 46.3193 34.2335 46.7826 32.395C47.2458 30.5564 47.4495 30.3421 49.11 30.3421C50.7704 30.3421 50.7704 30.7221 50.7704 30.982C50.7704 31.2419 50.0739 32.7533 50.0739 34.409C50.0739 36.0648 50.851 37.3918 51.4912 38.609C51.4912 38.609 53.7762 37.2114 56.8929 37.2114C60.0096 37.2114 65 38.9281 65 43.6347C65 46.4729 62.4873 47.4085 62.0331 47.4085C61.5787 47.4085 61.6248 47.1514 61.9054 46.9112C62.186 46.6708 63.8296 45.5342 63.8296 44.1713C63.8296 42.6815 62.4537 39.2193 56.2638 39.2193C56.2638 39.2193 53.289 39.2048 52.1097 40.1657C52.1097 40.1657 52.6259 41.2365 52.6259 42.342C52.6259 43.3171 51.9113 44.7081 50.4206 45.7498C49.5986 46.3242 48.2679 47.0987 47.0673 47.0987C45.8038 47.0987 45.5932 45.91 45.5932 45.7498C45.5932 45.22 45.4109 42.7836 49.11 39.9974C49.11 39.9974 47.7208 37.8179 47.4963 35.3923C47.4963 35.3923 45.4589 39.1902 43.9146 41.3338C43.9146 41.3338 44.6301 42.7073 44.6301 44.2756C44.6301 45.8437 42.8656 49.0946 38.373 49.0946C37.6992 49.0946 36.9692 48.6089 36.9692 48.0086C36.9692 47.5656 37.1362 47.302 37.418 46.9612C37.6997 46.6204 41.3296 42.23 41.3296 42.23C41.3296 42.23 39.8475 39.4144 39.5077 37.2114C39.5077 37.2114 34.6218 49.8323 31.9544 49.8323C30.9576 49.8323 29.8004 48.427 30.4181 45.2258C30.4181 45.2258 28.6914 50.6974 26.4029 50.6974C24.1146 50.6974 23.3378 47.3159 23.3378 45.2258C23.3378 43.1355 23.8318 41.4782 24.1146 40.6658L20.792 42.5725C20.792 42.5725 21.5148 44.2609 21.5148 46.3735C21.5148 50.9892 17.9139 56 12.0407 56C8.82819 56 7.88818 54.1867 7.88818 52.0096C7.88818 49.4974 9.03981 46.4077 17.4578 42.23C17.4578 42.23 14.8402 40.2657 11.2208 37.6408C7.60139 35.016 6 32.2396 6 29.8378C6 26.1219 9.15056 21.9217 15.2482 17.8915C19.4457 15.1173 26.2603 12.0006 32.7882 12.0006ZM18.9331 43.3613C18.9331 43.3613 19.2097 44.1301 19.2097 45.5206C19.2097 48.3434 16.7145 52.7049 12.8209 52.7049C11.7789 52.7049 11.4681 51.8052 11.4681 51.236C11.4681 50.6667 11.0887 47.6994 18.9331 43.3613ZM42.1262 43.7897C42.1262 43.7897 42.1203 44.3949 41.7517 45.125C41.3833 45.8551 40.652 46.71 39.2013 47.2095L42.1262 43.7897ZM30.6625 36.57C30.7605 36.57 31.065 36.57 31.065 36.9838C31.065 38.4679 28.0351 47.0582 27.1029 47.0582C26.4207 47.0582 26.3739 45.6474 26.3739 44.7807C26.3739 40.8843 28.915 36.57 30.6625 36.57ZM49.9531 41.213C49.9531 41.213 50.1578 41.9943 49.975 42.8801C49.7922 43.766 49.2218 44.7567 47.6718 45.1753C47.6718 45.1753 47.7155 42.9799 49.9531 41.213Z"/>
  </symbol>

  <symbol id="stylelint-ic" viewBox="0 0 64 64">
    <path fill-rule="evenodd" clip-rule="evenodd" d="M7.31915 14.6383L14.8085 7.48936H19.5745L21.617 14.9787V23.1489H22.6383L24 22.4681L33.5319 58.5532L8.34043 23.1489L12.0851 19.0638L7.31915 14.6383ZM60.4255 14.6383L52.9362 7.48936H48.1702L46.1277 14.9787V23.1489H45.1064L43.7447 22.4681L34.2128 58.5532L59.4043 23.1489L55.6596 19.0638L60.4255 14.6383ZM33.8723 43.5745C34.9995 43.5745 35.9149 44.4899 35.9149 45.617C35.9149 46.7442 34.9995 47.6596 33.8723 47.6596C32.7452 47.6596 31.8298 46.7442 31.8298 45.617C31.8298 44.4899 32.7452 43.5745 33.8723 43.5745ZM33.8723 32.3404C34.9995 32.3404 35.9149 33.2558 35.9149 34.383C35.9149 35.5101 34.9995 36.4255 33.8723 36.4255C32.7452 36.4255 31.8298 35.5101 31.8298 34.383C31.8298 33.2558 32.7452 32.3404 33.8723 32.3404ZM33.8723 21.1064C34.9995 21.1064 35.9149 22.0218 35.9149 23.1489C35.9149 24.2761 34.9995 25.1915 33.8723 25.1915C32.7452 25.1915 31.8298 24.2761 31.8298 23.1489C31.8298 22.0218 32.7452 21.1064 33.8723 21.1064ZM22.6383 21.7872V9.19149L30.1277 13.2766V17.7021L22.6383 21.7872ZM45.1064 21.7872V9.19149L37.617 13.2766V17.7021L45.1064 21.7872ZM30.8085 17.7021V13.2766H36.9362V17.7021H30.8085Z"/>
  </symbol>

  <symbol id="svg-ic" viewBox="0 0 66 66">
    <path fill-rule="evenodd" clip-rule="evenodd" d="M10.2089 55.3097C10.2865 55.4746 10.3796 55.6279 10.4881 55.7695C10.8192 56.2014 11.2636 56.526 11.8215 56.7435C12.3795 56.961 13.0115 57.0698 13.7177 57.0698C14.4111 57.0698 15.0148 56.9689 15.5286 56.7672C16.0424 56.5654 16.4412 56.2849 16.7249 55.9255C17.0086 55.5661 17.1504 55.1532 17.1504 54.6867C17.1504 54.2517 17.0227 53.886 16.7674 53.5897C16.5121 53.2934 16.1402 53.0412 15.6516 52.8332C15.163 52.6251 14.5656 52.436 13.8595 52.2657L11.7507 51.7362C10.1178 51.339 8.82854 50.718 7.88278 49.8732C6.93712 49.0284 6.46749 47.8904 6.47378 46.4593C6.46749 45.2866 6.78109 44.2622 7.41469 43.3858C8.04829 42.5095 8.9199 41.8254 10.0295 41.3337C11.1391 40.8419 12.4 40.5961 13.8123 40.5961C15.2496 40.5961 16.5058 40.8419 17.5808 41.3337C18.6178 41.8082 19.4334 42.4616 20.0273 43.2939C20.0446 43.3175 20.0613 43.3413 20.0775 43.3655L20.0915 43.3858C20.1003 43.3987 20.1161 43.4255 20.1161 43.4255C20.2985 43.7211 20.4038 44.0693 20.4038 44.4419C20.4038 45.5123 19.5348 46.3814 18.4643 46.3814C17.687 46.3814 17.1504 45.9997 16.7066 45.2621C16.5546 45.0294 16.3568 44.8276 16.1197 44.653C15.546 44.2306 14.7673 44.0194 13.7838 44.0194C13.1155 44.0194 12.5513 44.1124 12.0911 44.2984C11.6309 44.4844 11.2794 44.7413 11.0366 45.0691C10.7939 45.397 10.6725 45.7689 10.6725 46.1851C10.6599 46.5318 10.7341 46.8344 10.8947 47.0929C11.0555 47.3514 11.2778 47.5736 11.5615 47.7596C11.8453 47.9456 12.1731 48.1064 12.545 48.2419C12.9169 48.3775 13.3142 48.4925 13.7366 48.587L15.4766 49.0032C16.3214 49.1923 17.0969 49.4445 17.803 49.7597C18.5091 50.0749 19.1206 50.4627 19.6376 50.9229C20.1545 51.3832 20.5564 51.9253 20.8433 52.5494C21.1302 53.1736 21.2768 53.8892 21.283 54.6962C21.2768 55.8814 20.9757 56.9075 20.38 57.7743C19.7841 58.6412 18.9267 59.3127 17.8077 59.7886C16.6886 60.2646 15.3411 60.5026 13.7649 60.5026C12.2014 60.5026 10.8412 60.2631 9.68437 59.7839C8.52741 59.3047 7.62589 58.5939 6.97971 57.6514C6.88566 57.5143 6.79821 57.3724 6.71715 57.2257C6.51266 56.9124 6.42314 56.535 6.42314 56.1333C6.42314 55.0317 7.28816 54.1406 8.38974 54.1406C9.19679 54.1406 9.89444 54.6197 10.2089 55.3097ZM53.6472 52.9466C53.5812 52.9466 53.5146 52.9459 53.4486 52.9459C52.598 52.9459 51.9113 52.2683 51.9113 51.4178C51.9113 50.5672 52.6018 49.8767 53.4524 49.8767C53.4524 49.8767 56.4332 49.8708 58.3837 49.867C58.8219 49.8661 59.2423 50.0396 59.5525 50.3491C59.8626 50.6586 60.0369 51.0788 60.0369 51.517C60.0369 51.9526 60.0369 52.3036 60.0369 52.3036C60.0369 54.0058 59.6775 55.4669 58.9588 56.6868C58.2402 57.9068 57.2504 58.8461 55.9895 59.5049C54.7285 60.1638 53.2848 60.4931 51.6582 60.4931C49.8425 60.4931 48.2474 60.0913 46.8731 59.2874C45.4988 58.4836 44.4285 57.3394 43.6625 55.8546C42.8965 54.3699 42.5135 52.6062 42.5135 50.5635C42.5135 48.9938 42.742 47.5925 43.1992 46.36C43.6562 45.1275 44.2977 44.0825 45.1236 43.2251C45.9495 42.3677 46.9109 41.7151 48.0079 41.2675C49.1049 40.8199 50.2932 40.5961 51.5731 40.5961C52.6701 40.5961 53.6914 40.7553 54.6371 41.0737C55.5827 41.392 56.4229 41.8412 57.1573 42.4213C57.7679 42.9035 58.286 43.4609 58.7113 44.0934C58.9051 44.3997 59.0152 44.7639 59.0152 45.1529C59.0152 46.2481 58.1262 47.1371 57.031 47.1371C56.2732 47.1371 55.5976 46.7209 55.2634 46.0956C55.2234 46.0276 55.1818 45.9613 55.1383 45.8966C54.8987 45.5404 54.6072 45.2379 54.2636 44.9888C53.9199 44.7398 53.5291 44.5491 53.0909 44.4167C52.6527 44.2843 52.1689 44.218 51.6393 44.218C50.6495 44.218 49.781 44.4639 49.034 44.9557C48.2868 45.4474 47.7053 46.1614 47.2892 47.0976C46.8731 48.0339 46.665 49.1765 46.665 50.5257C46.665 51.8749 46.8699 53.0223 47.2797 53.968C47.6895 54.9137 48.2695 55.634 49.0197 56.1289C49.77 56.6238 50.6558 56.8712 51.6772 56.8712C52.6039 56.8712 53.3967 56.7058 54.0555 56.3747C54.7143 56.0437 55.2187 55.5756 55.5686 54.9704C55.9185 54.3651 56.0934 53.7726 56.0934 52.9466H53.6472ZM36.6343 42.321C36.9144 41.4814 37.7071 40.8756 38.6402 40.8756C39.807 40.8756 40.7543 41.8229 40.7543 42.9896C40.7543 43.2141 40.7192 43.4305 40.6543 43.6336C40.6543 43.6336 37.3938 53.0999 35.798 57.7332C35.2838 59.2262 33.8787 60.2284 32.2996 60.2284C30.721 60.2284 29.3164 59.227 28.8017 57.7347C27.2077 53.1136 23.9554 43.6849 23.9554 43.6849C23.8795 43.4671 23.8383 43.2332 23.8383 42.9896C23.8383 41.8229 24.7856 40.8756 25.9523 40.8756C26.8844 40.8756 27.6763 41.4801 27.9573 42.318L32.2056 55.5756H32.3853L36.6343 42.321ZM17.325 36.1982H14.8112C13.9029 37.2703 12.5469 37.9513 11.033 37.9513C8.30115 37.9513 6.08304 35.7332 6.08304 33.0013C6.08304 30.2694 8.30115 28.0513 11.033 28.0513C12.5469 28.0513 13.9029 28.7323 14.8112 29.8045H25.282L17.8781 22.4004C16.4776 22.5162 15.0373 22.039 13.9668 20.9685C12.0351 19.0367 12.0351 15.8999 13.9668 13.9682C15.8987 12.0363 19.0354 12.0363 20.9673 13.9682C22.0376 15.0386 22.515 16.479 22.3991 17.8793L29.8031 25.2834V14.8125C28.731 13.9041 28.05 12.5482 28.05 11.0344C28.05 8.30239 30.268 6.08438 33 6.08438C35.732 6.08438 37.95 8.30239 37.95 11.0344C37.95 12.5482 37.269 13.9041 36.1969 14.8125V25.2834L43.6009 17.8793C43.485 16.479 43.9624 15.0386 45.0327 13.9682C46.9646 12.0363 50.1013 12.0363 52.0332 13.9682C53.9649 15.8999 53.9649 19.0367 52.0332 20.9685C50.9627 22.039 49.5224 22.5162 48.1219 22.4004L40.718 29.8045H51.1888C52.0971 28.7323 53.4531 28.0513 54.967 28.0513C57.6989 28.0513 59.917 30.2694 59.917 33.0013C59.917 35.7332 57.6989 37.9513 54.967 37.9513C53.4531 37.9513 52.0971 37.2703 51.1888 36.1982H48.4688V36.1969H17.325V36.1982Z" />
  </symbol>

  <symbol id="new-tab-ic" viewBox="0 0 22 22">
    <path fill-rule="evenodd" clip-rule="evenodd" d="M8 0C8.265 0 8.52 0.105 8.707 0.293C8.895 0.48 9 0.735 9 1C9 1.265 8.895 1.52 8.707 1.707C8.52 1.895 8.265 2 8 2C6.427 2 3.552 2 3.552 2C2.696 2 2 2.696 2 3.552V18.448C2 19.304 2.696 20 3.552 20H18.448C19.304 20 20 19.304 20 18.448V14C20 13.735 20.105 13.48 20.293 13.293C20.48 13.105 20.735 13 21 13C21.265 13 21.52 13.105 21.707 13.293C21.895 13.48 22 13.735 22 14C22 15.573 22 18.448 22 18.448C22 20.408 20.408 22 18.448 22H3.552C1.592 22 0 20.408 0 18.448V3.552C0 1.592 1.592 0 3.552 0H8ZM18.58 2.006C18.536 2.002 18.492 2 18.448 2H14C13.735 2 13.48 1.895 13.293 1.707C13.105 1.52 13 1.265 13 1C13 0.735 13.105 0.48 13.293 0.293C13.48 0.105 13.735 0 14 0C15.573 0 18.448 0 18.448 0C20.408 0 22 1.592 22 3.552V8C22 8.265 21.895 8.52 21.707 8.707C21.52 8.895 21.265 9 21 9C20.735 9 20.48 8.895 20.293 8.707C20.105 8.52 20 8.265 20 8C20 6.427 20 3.552 20 3.552C20 3.508 19.998 3.464 19.994 3.42L11.707 11.707C11.317 12.097 10.683 12.097 10.293 11.707C9.903 11.317 9.903 10.683 10.293 10.293L18.58 2.006Z" />
  </symbol>

  <symbol id="right-arrow-ic" viewBox="0 0 22 15">
    <path fill-rule="evenodd" clip-rule="evenodd" d="M15.6883 0.934351L22.2003 7.41588C22.5999 7.81362 22.5999 8.45848 22.2003 8.85622L15.6883 15.3377C15.2887 15.7355 14.6408 15.7355 14.2412 15.3377C13.8416 14.94 13.8416 14.2951 14.2412 13.8974L19.0064 9.15452H0.5V7.11757H19.0064L14.2412 2.37469C13.8416 1.97695 13.8416 1.33209 14.2412 0.934351C14.6408 0.536613 15.2887 0.536613 15.6883 0.934351Z"/>
  </symbol>

  <symbol id="left-arrow-ic" viewBox="0 0 22 15">
    <path fill-rule="evenodd" clip-rule="evenodd" d="M6.65685 0.934351L0.292892 7.41588C-0.0976315 7.81362 -0.0976315 8.45848 0.292892 8.85622L6.65685 15.3377C7.04738 15.7355 7.68054 15.7355 8.07107 15.3377C8.46159 14.94 8.46159 14.2951 8.07107 13.8974L3.41421 9.15452H22V7.11757H3.41421L8.07107 2.37469C8.46159 1.97695 8.46159 1.33209 8.07107 0.934351C7.68054 0.536613 7.04738 0.536613 6.65685 0.934351Z"/>
  </symbol>

  <symbol id="html" viewBox="0 0 48 48">
    <path d="M20.9237 10.5439H29.1127C29.9407 10.5439 30.6127 11.2155 30.6127 12.0436C30.6127 12.8717 29.9407 13.5433 29.1127 13.5433H20.9237C20.6277 13.5433 20.3867 13.7841 20.3867 14.081V18.6815C20.3867 18.9352 20.5937 19.1414 20.8477 19.1414H27.1527C29.0637 19.1414 30.6127 20.6908 30.6127 22.6018V28.1373C30.6127 29.3336 30.0057 30.4489 28.9997 31.0978C28.7236 31.2759 28.4041 31.4821 28.067 31.6997C27.3455 32.1652 26.5438 32.6826 25.9167 33.0866C24.7497 33.8402 23.2507 33.8402 22.0837 33.0866L18.0737 30.4997C17.3787 30.0516 17.1777 29.122 17.6267 28.4267C18.0757 27.7303 19.0047 27.5306 19.7007 27.9797L23.7097 30.5666C23.8867 30.68 24.1137 30.68 24.2907 30.5666L27.3727 28.5768C27.5227 28.4807 27.6127 28.3144 27.6127 28.1373V22.6018C27.6127 22.3481 27.4067 22.1419 27.1527 22.1419H20.8477C18.9367 22.1419 17.3867 20.5925 17.3867 18.6815V14.081C17.3867 12.1268 18.9707 10.5439 20.9237 10.5439Z" />
    <path fill-rule="evenodd" clip-rule="evenodd" d="M39.9416 2.01147L40.0183 2.01342C40.8114 2.05327 41.4412 2.70834 41.4412 3.51114V32.5054C41.4412 32.9768 41.2196 33.42 40.8435 33.7038L24.9021 45.705C24.3685 46.1074 23.6318 46.1074 23.0982 45.705L7.15681 33.7038C6.78068 33.42 6.55908 32.9768 6.55908 32.5054V3.51114C6.55908 2.68307 7.23068 2.01147 8.05875 2.01147H39.9416ZM9.55939 5.01081H38.4409V31.757L24.0002 42.6289L9.55939 31.757V5.01081Z" />
  </symbol>

  <symbol id="js" viewBox="0 0 48 48">
    <path d="M12.0601 27.8627C12.0601 29.7378 13.5818 31.261 15.4572 31.261H19.2517C21.1271 31.261 22.65 29.7378 22.65 27.8627V16.1372C22.65 14.2621 21.1271 12.74 19.2517 12.74C18.4243 12.74 17.7518 13.4117 17.7518 14.2396C17.7518 15.0675 18.4243 15.7393 19.2517 15.7393C19.4711 15.7393 19.6491 15.9179 19.6491 16.1372V27.8627C19.6491 28.083 19.4711 28.2606 19.2517 28.2606H15.4572C15.2378 28.2606 15.0599 28.083 15.0599 27.8627C15.0599 27.0348 14.3874 26.3631 13.56 26.3631C12.7314 26.3631 12.0601 27.0348 12.0601 27.8627Z" />
    <path d="M32.9396 27.8627V23.5017L27.8537 23.5071C27.19 23.5082 26.5536 23.245 26.0842 22.7754C25.6137 22.3059 25.3506 21.6694 25.3506 21.0062V16.1372C25.3506 14.2621 26.8723 12.74 28.7477 12.74H32.5422C34.4177 12.74 35.9405 14.2621 35.9405 16.1372C35.9405 16.9651 35.268 17.6368 34.4395 17.6368C33.612 17.6368 32.9396 16.9651 32.9396 16.1372C32.9396 15.9179 32.7617 15.7393 32.5422 15.7393H28.7477C28.5283 15.7393 28.3504 15.9179 28.3504 16.1372V20.5067L33.4363 20.5014C34.1 20.5003 34.7364 20.7634 35.2069 21.233C35.6763 21.7015 35.9405 22.339 35.9405 23.0022V27.8627C35.9405 29.7378 34.4177 31.261 32.5422 31.261H28.7477C26.8723 31.261 25.3506 29.7378 25.3506 27.8627C25.3506 27.0348 26.0219 26.3631 26.8505 26.3631C27.6779 26.3631 28.3504 27.0348 28.3504 27.8627C28.3504 28.083 28.5283 28.2606 28.7477 28.2606H32.5422C32.7617 28.2606 32.9396 28.083 32.9396 27.8627Z" />
    <path fill-rule="evenodd" clip-rule="evenodd" d="M40.0183 2.01342L39.9416 2.01147H8.05875C7.23068 2.01147 6.55908 2.68307 6.55908 3.51114V32.5054C6.55908 32.9768 6.78068 33.42 7.15681 33.7038L23.0982 45.705C23.6318 46.1074 24.3685 46.1074 24.9021 45.705L40.8435 33.7038C41.2196 33.42 41.4412 32.9768 41.4412 32.5054V3.51114C41.4412 2.70834 40.8114 2.05327 40.0183 2.01342ZM9.55939 5.01081V31.757L24.0002 42.6289L38.4409 31.757V5.01081H9.55939Z" />
  </symbol>

  <symbol id="css" viewBox="0 0 48 48">
    <path d="M23.0508 19.5161H27.4522V13.3461C27.4522 12.8081 27.0147 12.3711 26.4762 12.3711H21.5245C20.9851 12.3711 20.5485 12.8081 20.5485 13.3461C20.5485 14.1741 19.8764 14.8461 19.0486 14.8461C18.22 14.8461 17.5479 14.1741 17.5479 13.3461C17.5479 11.1521 19.3297 9.37109 21.5245 9.37109H26.4762C28.6701 9.37109 30.452 11.1521 30.452 13.3461V29.4761C30.452 30.4371 30.0409 31.2381 29.3996 31.8901C28.8673 32.4319 28.1499 32.8538 27.575 33.192C27.4612 33.2589 27.3531 33.3225 27.253 33.3831C26.4271 33.8831 24.7771 34.8831 24.7771 34.8831C24.2996 35.1721 23.7002 35.1721 23.2227 34.8831C23.2227 34.8831 21.3235 33.7321 20.7468 33.3831C20.6468 33.3225 20.5386 33.2589 20.4249 33.192C19.8499 32.8538 19.1325 32.4319 18.6002 31.8901C17.9599 31.2381 17.5479 30.4371 17.5479 29.4761C17.5479 28.6481 18.22 27.9761 19.0486 27.9761C19.8764 27.9761 20.5485 28.6481 20.5485 29.4761C20.5485 29.5766 20.614 29.6493 20.6774 29.7197C20.6808 29.7235 20.6843 29.7273 20.6877 29.7311C20.816 29.8771 20.976 30.0001 21.1388 30.1151C21.4167 30.3093 21.7086 30.4758 21.9688 30.6241C22.0877 30.6919 22.2 30.7559 22.3013 30.8171L24.0004 31.8461L25.6985 30.8171C25.7998 30.7559 25.9122 30.6919 26.0312 30.6241C26.2916 30.4758 26.5838 30.3093 26.861 30.1151C27.0238 30.0001 27.1839 29.8771 27.3121 29.7311C27.316 29.7267 27.32 29.7224 27.3239 29.718C27.387 29.6481 27.4522 29.5758 27.4522 29.4761V22.5161H23.0508C22.2231 22.5161 21.5509 21.8431 21.5509 21.0161C21.5509 20.1881 22.2231 19.5161 23.0508 19.5161Z" />
    <path fill-rule="evenodd" clip-rule="evenodd" d="M39.9416 2.01147L40.0183 2.01342C40.8114 2.05327 41.4412 2.70834 41.4412 3.51114V32.5054C41.4412 32.9768 41.2196 33.42 40.8435 33.7038L24.9021 45.705C24.3685 46.1074 23.6318 46.1074 23.0982 45.705L7.15681 33.7038C6.78068 33.42 6.55908 32.9768 6.55908 32.5054V3.51114C6.55908 2.68307 7.23068 2.01147 8.05875 2.01147H39.9416ZM9.55939 5.01081H38.4409V31.757L24.0002 42.6289L9.55939 31.757V5.01081Z" />
  </symbol>

  <symbol id="pen" viewBox="0 0 48 48">
    <path fill-rule="evenodd" clip-rule="evenodd" d="M22.9118 8.07448L9.53866 19.3528C9.17414 19.6609 8.97739 20.1234 9.00918 20.5992C9.00918 20.5992 9.63686 30.1553 7.55521 40.7859C7.41363 41.5061 7.81369 42.2222 8.50059 42.4793C9.18663 42.736 9.95921 42.4596 10.3259 41.8244L18.1742 28.2308C18.4157 27.8126 18.4408 27.304 18.2424 26.8633C17.6872 25.6337 17.7102 24.1629 18.4357 22.9063C19.6321 20.834 22.2861 20.1229 24.3584 21.3193C26.4307 22.5158 27.1419 25.1698 25.9454 27.2421C25.22 28.4986 23.9577 29.2539 22.6152 29.3879C22.1344 29.4364 21.7065 29.7125 21.465 30.1308L13.6167 43.7244C13.25 44.3596 13.3969 45.1668 13.9622 45.6326C14.5284 46.0989 15.3486 46.0873 15.9015 45.6046C24.0675 38.4857 32.6567 34.2521 32.6567 34.2521C33.0846 34.0417 33.3868 33.6401 33.4713 33.1704L36.5521 15.9497L40.0915 11.9865C40.3921 11.6496 40.5253 11.1953 40.4541 10.7498C40.3821 10.3038 40.114 9.91396 39.7234 9.68844L26.7486 2.19741C26.358 1.97189 25.8863 1.93464 25.464 2.09528C25.0426 2.25641 24.7158 2.59891 24.5743 3.02765L22.9118 8.07448ZM24.3655 10.7735L12.041 21.1675C12.1132 22.9524 12.2145 27.6845 11.633 33.5593L15.2187 27.3506C14.5949 25.4396 14.7547 23.2827 15.8379 21.4065C17.8621 17.9005 22.3522 16.6974 25.8582 18.7216C29.3642 20.7458 30.5673 25.2359 28.5431 28.7419C27.46 30.618 25.672 31.8349 23.7059 32.2507L20.1215 38.459C24.918 35.0188 29.0667 32.7406 30.6481 31.9114L33.4878 16.0403L24.3655 10.7735ZM26.8461 5.71854L36.6252 11.3645L34.8438 13.3583L26.0101 8.25821L26.8461 5.71854Z" />
  </symbol>

  <symbol id="tools" viewBox="0 0 48 48">
    <path fill-rule="evenodd" clip-rule="evenodd" d="M27.0874 30.6868C31.9851 30.6277 36.7281 28.0615 39.3529 23.5152C42.1071 18.7449 41.8069 13.0431 39.0583 8.68191C38.7783 8.23702 38.2857 7.97156 37.7604 7.98234C37.2348 7.99171 36.7528 8.27637 36.4901 8.73145L30.5045 19.0987L25.1157 19.487L22.7576 14.626L28.7431 4.25873C29.0058 3.80365 29.0114 3.24393 28.7566 2.78401C28.5033 2.3237 28.0271 2.02981 27.5018 2.00978C22.3506 1.81002 17.2627 4.40098 14.5085 9.1713C11.8837 13.7176 12.0328 19.1082 14.4305 23.3794L7.7045 35.0292C5.68777 38.5223 6.88562 42.9955 10.3787 45.0122C13.8718 47.029 18.3446 45.8297 20.3613 42.3366L27.0874 30.6868ZM26.2967 27.6717L26.311 27.6717C30.4416 27.8925 34.5468 25.8398 36.7549 22.0152C38.455 19.0706 38.6835 15.678 37.6682 12.6908L32.7049 21.2875C32.456 21.7186 32.0102 21.998 31.5142 22.034L24.3179 22.5521C23.706 22.5958 23.1282 22.2622 22.8602 21.7105L19.7106 15.2192C19.4938 14.7717 19.5129 14.2459 19.7618 13.8148L24.7251 5.21813C21.6305 5.83246 18.8067 7.7266 17.1066 10.6713C14.8984 14.4959 15.1734 19.0774 17.4299 22.5442C17.7376 23.0169 17.7536 23.6235 17.4714 24.1123L10.3025 36.5292C9.11353 38.5886 9.82015 41.2257 11.8787 42.4142C13.9372 43.6027 16.5743 42.8961 17.7633 40.8367L24.9394 28.4074L24.9531 28.3857L24.9642 28.3684L24.9724 28.3542L24.9826 28.3387L24.9917 28.325L25.0017 28.3118L25.0158 28.2915L25.0288 28.273L25.0338 28.2664L25.0407 28.2585L25.0617 28.2303L25.0805 28.208C25.1891 28.0775 25.317 27.9688 25.4576 27.8853L25.4601 27.8832L25.4758 27.8745L25.5096 27.8549L25.5162 27.8516L25.5234 27.8474L25.5585 27.8298L25.5736 27.8219L25.577 27.8203C25.7238 27.7486 25.8844 27.7003 26.052 27.681L26.0826 27.6773L26.1172 27.6748L26.1274 27.6735L26.1357 27.6736L26.1584 27.6713L26.1823 27.6709L26.1994 27.67L26.2159 27.6701L26.2339 27.6698L26.2513 27.6704L26.2715 27.6702L26.2967 27.6717Z" />
  </symbol>

  <symbol id="mm-social-ic" viewBox="0 0 26 17">
    <path fill-rule="evenodd" clip-rule="evenodd" d="M3.70512 7.78632L0.318154 11.1412C0.218619 11.2364 0.139226 11.3503 0.0846082 11.4762C0.0299906 11.6022 0.00124179 11.7376 3.93479e-05 11.8747C-0.00116309 12.0117 0.0252049 12.1477 0.0776048 12.2745C0.130005 12.4014 0.207387 12.5166 0.305237 12.6136C0.403086 12.7105 0.519443 12.7871 0.647519 12.839C0.775594 12.8909 0.912823 12.9171 1.0512 12.9159C1.18957 12.9147 1.32632 12.8862 1.45347 12.8321C1.58061 12.778 1.69561 12.6994 1.79174 12.6008L2.88964 11.5138C5.18392 14.2539 8.64696 16 12.5185 16C16.3901 16 19.8531 14.2539 22.1479 11.5138L23.2453 12.6008C23.3414 12.6994 23.4564 12.778 23.5836 12.8321C23.7107 12.8862 23.8475 12.9147 23.9858 12.9159C24.1242 12.9171 24.2614 12.8909 24.3895 12.839C24.5176 12.7871 24.634 12.7105 24.7318 12.6136C24.8297 12.5166 24.907 12.4014 24.9594 12.2745C25.0118 12.1477 25.0382 12.0117 25.037 11.8747C25.0358 11.7376 25.007 11.6022 24.9524 11.4762C24.8978 11.3503 24.8184 11.2364 24.7189 11.1412L21.4413 7.80903C21.2501 7.61783 20.991 7.50817 20.7192 7.5034C20.4475 7.49863 20.1847 7.59913 19.9866 7.78349C19.7886 7.96785 19.6711 8.22151 19.6591 8.49043C19.6471 8.75935 19.7416 9.02229 19.9224 9.22323L20.6832 10.0248C18.7735 12.4067 15.8247 13.9355 12.518 13.9355C9.2217 13.9355 6.28077 12.4155 4.37105 10.0459L5.17871 9.24593C5.27824 9.15071 5.35764 9.03681 5.41225 8.91087C5.46687 8.78493 5.49562 8.64948 5.49682 8.51241C5.49802 8.37535 5.47166 8.23942 5.41926 8.11256C5.36686 7.9857 5.28947 7.87045 5.19163 7.77353C5.09378 7.67661 4.97742 7.59996 4.84934 7.54805C4.72127 7.49615 4.58404 7.47003 4.44566 7.47123C4.30729 7.47242 4.17054 7.50089 4.04339 7.55499C3.91625 7.60909 3.80125 7.68773 3.70512 7.78632ZM17.2082 4.12903C16.0576 4.12903 15.1239 3.20413 15.1239 2.06452C15.1239 0.924903 16.0576 0 17.2082 0C18.3587 0 19.2924 0.924903 19.2924 2.06452C19.2924 3.20413 18.3587 4.12903 17.2082 4.12903ZM7.82888 0C8.9794 0 9.91316 0.924903 9.91316 2.06452C9.91316 3.20413 8.9794 4.12903 7.82888 4.12903C6.67835 4.12903 5.74459 3.20413 5.74459 2.06452C5.74459 0.924903 6.67835 0 7.82888 0Z" />
  </symbol>

  <symbol id="tg-social-ic" viewBox="0 0 22 22">
    <path fill-rule="evenodd" clip-rule="evenodd" d="M13.3264 4.72382C9.37697 6.37299 5.43869 8.04816 1.51186 9.74921C0.554171 10.1256 0.0513833 10.4947 0.00534049 10.8547C-0.0720114 11.4619 0.699667 11.7019 1.75128 12.0292L2.19329 12.1674C3.22834 12.5001 4.62067 12.8874 5.34262 12.9037C6.00011 12.9183 6.73127 12.6492 7.53978 12.1037C13.0594 8.42559 15.9067 6.56743 16.0853 6.52562C16.2124 6.49834 16.3874 6.46198 16.5052 6.56743C16.6231 6.67107 16.6121 6.86743 16.5992 6.92016C16.5236 7.24197 13.4922 10.0238 11.9249 11.4637C11.435 11.911 11.0888 12.2292 11.0169 12.3037C10.8585 12.4674 10.6965 12.6201 10.5418 12.7674C9.5804 13.6819 8.86029 14.3673 10.5804 15.4873C11.4092 16.0255 12.0704 16.471 12.7297 16.9146C13.4517 17.4 14.1718 17.8837 15.1018 18.4855C15.3394 18.64 15.566 18.7982 15.787 18.9546C16.6249 19.5455 17.38 20.0764 18.3101 19.9909C18.8534 19.9418 19.4115 19.44 19.6951 17.94C20.3673 14.3983 21.686 6.72379 21.9917 3.56201C22.0099 3.29912 21.9982 3.03505 21.9567 2.77475C21.9331 2.56497 21.8306 2.3716 21.6694 2.23294C21.4263 2.03839 21.0524 1.99658 20.8848 2.00021C20.1224 2.01294 18.9529 2.41475 13.3264 4.72564V4.72382Z" />
  </symbol>

  <symbol id="ok-social-ic" viewBox="0 0 16 23">
    <g transform="matrix(1.01475,0,0,1,0.0999999,0)">
        <path d="M5.431,16.876C3.382,16.429 1.499,15.407 0,13.928L1.701,11.482C2.472,12.336 3.412,13.019 4.459,13.485C5.507,13.952 6.64,14.193 7.785,14.192C10.194,14.192 12.362,13.147 13.87,11.482L15.57,13.928C14.071,15.407 12.189,16.429 10.139,16.876L13.574,23L10.231,23L7.785,18.639L5.339,23L1.996,23L5.431,16.876ZM7.785,0C4.574,0 1.967,2.631 1.967,5.872C1.967,9.113 4.574,11.745 7.785,11.745C10.996,11.745 13.603,9.113 13.603,5.872C13.603,2.631 10.996,0 7.785,0ZM7.785,2.936C9.391,2.936 10.694,4.252 10.694,5.872C10.694,7.493 9.391,8.809 7.785,8.809C6.18,8.809 4.876,7.493 4.876,5.872C4.876,4.252 6.18,2.936 7.785,2.936Z" />
    </g>
  </symbol>

  <symbol id="x-social-ic" viewBox="0 0 20 18">
    <g clip-path="url(#clip0_1015_112)">
      <path fill-rule="evenodd" clip-rule="evenodd" d="M13.7773 18H20L12.0507 7.61538L18.8147 0H15.704L10.64 5.77385L6.22267 0H0L7.54267 9.85431L0.296 18H3.408L8.97333 11.7249L13.7773 18ZM14.6573 16.2291H16.4093L5.34267 1.77231H3.59067L14.6573 16.2305V16.2291Z" />
      </g>
      <defs>
      <clipPath id="clip0_1015_112">
      <rect width="20" height="18" />
      </clipPath>
      </defs>
  </symbol>

  <symbol id="vk-social-ic" viewBox="0 0 22 15">
    <g clip-path="url(#clip0_1015_102)">
    <path fill-rule="evenodd" clip-rule="evenodd" d="M11.9819 14.3478C4.466 14.3478 0.178316 8.96141 0 0H3.76547C3.88937 6.57728 6.66484 9.36435 8.86368 9.93826V0H12.408V5.67337C14.5802 5.42946 16.8601 2.84326 17.6301 0H21.1756C20.5851 3.50326 18.1106 6.08946 16.3518 7.15239C18.1118 8.01326 20.9278 10.2695 22 14.3478H18.0979C17.2596 11.6193 15.1707 9.50783 12.408 9.22087V14.3478H11.9831H11.9819Z" />
    </g>
    <defs>
    <clipPath id="clip0_1015_102">
    <rect width="22" height="14.3478" />
    </clipPath>
    </defs>
  </symbol>

  <symbol id="tailwind-ic" viewBox="0 0 95 95">
   <g transform="matrix(1.11268,0,0,1.11268,-5.35211,-5.29577)">
      <path d="M12,60.2C15.228,54.7 20.821,47 30.288,47C36.675,47 41.181,50.845 45.329,54.385C48.867,57.403 52.145,60.2 56.107,60.2C59.335,60.2 63.638,58 65.789,55.8C63.638,60.2 58.689,69 47.501,69C40.216,69 36.726,65.419 33.382,61.987C30.306,58.83 27.352,55.8 21.682,55.8C16.305,55.8 14.152,58 12,60.2ZM29.211,38.2C32.44,32.7 38.033,25 47.5,25C53.886,25 58.392,28.845 62.541,32.385C66.079,35.403 69.356,38.2 73.318,38.2C76.546,38.2 80.85,36 83,33.8C80.85,38.2 75.9,47 64.712,47C57.428,47 53.938,43.419 50.593,39.987C47.517,36.83 44.564,33.8 38.893,33.8C33.517,33.8 31.363,36 29.211,38.2Z" />
    </g>
  </symbol>

  <symbol id="vector-ic" viewBox="0 0 44 44">
    <path fill-rule="evenodd" clip-rule="evenodd" d="M14.8738 14.221L10.9358 27.2065C10.7525 27.8097 10.8918 28.4623 11.3025 28.939L20.6011 39.6842C20.6836 39.7832 20.7771 39.8712 20.8798 39.95L20.8835 39.9537L20.889 39.9573C20.9806 40.027 21.0778 40.0893 21.1823 40.1407L21.1841 40.1425L21.1915 40.1462C21.4353 40.2653 21.7103 40.3332 22 40.3332C22.385 40.3332 22.7425 40.214 23.0376 40.0105L23.0431 40.0087L23.0486 40.0032C23.1256 39.95 23.1971 39.8913 23.265 39.8253L23.2686 39.8235L23.2741 39.8162C23.3163 39.7758 23.3566 39.7337 23.3933 39.6897L23.3988 39.6842L32.6975 28.939C33.1081 28.4623 33.2475 27.8097 33.0641 27.2065L29.1261 14.221C31.0841 13.3795 32.4573 11.4325 32.4573 9.1665C32.4573 6.1305 29.9915 3.6665 26.9573 3.6665H17.0426C14.0085 3.6665 11.5426 6.1305 11.5426 9.1665C11.5426 11.4325 12.9158 13.3795 14.8738 14.221ZM25.4301 14.6665H18.5698L14.7381 27.3037L20.1666 33.5792V28.5485C20.1666 27.5365 20.988 26.7152 22 26.7152C23.012 26.7152 23.8333 27.5365 23.8333 28.5485V33.5792L29.2618 27.3037L25.4301 14.6665ZM28.7906 9.1665C28.7906 10.1785 27.9693 10.9998 26.9573 10.9998H17.0426C16.0306 10.9998 15.2093 10.1785 15.2093 9.1665C15.2093 8.1545 16.0306 7.33317 17.0426 7.33317H26.9573C27.9693 7.33317 28.7906 8.1545 28.7906 9.1665Z" />
  </symbol>

  <symbol id="correction-ic" viewBox="0 0 44 44">
    <path fill-rule="evenodd" clip-rule="evenodd" d="M30.3965 32.9888L37.2037 39.796C37.9187 40.511 39.081 40.511 39.796 39.796C40.511 39.081 40.511 37.9187 39.796 37.2037L32.9888 30.3965C35.2402 27.5805 36.5877 24.0092 36.5877 20.128C36.5877 11.042 29.2122 3.6665 20.128 3.6665C11.042 3.6665 3.6665 11.042 3.6665 20.128C3.6665 29.2122 11.042 36.5877 20.128 36.5877C24.0092 36.5877 27.5805 35.2402 30.3965 32.9888ZM29.1938 29.1498C31.4965 26.8362 32.921 23.6462 32.921 20.128C32.921 13.066 27.1882 7.33317 20.128 7.33317C13.066 7.33317 7.33317 13.066 7.33317 20.128C7.33317 27.1882 13.066 32.921 20.128 32.921C23.6462 32.921 26.8362 31.4965 29.1498 29.1938C29.1572 29.1865 29.1645 29.1792 29.1718 29.1718C29.1792 29.1645 29.1865 29.1572 29.1938 29.1498ZM20.1243 15.2678L16.6575 23.9157C16.2798 24.8543 16.7382 25.9232 17.6768 26.299C18.6155 26.6767 19.6843 26.2202 20.0602 25.2797L23.5288 16.6318C23.9047 15.6932 23.4482 14.6243 22.5095 14.2485C21.569 13.8708 20.502 14.3292 20.1243 15.2678ZM11.9568 16.1753L9.15367 18.9767C8.43684 19.6935 8.43684 20.854 9.15367 21.5708L11.9568 24.3722C12.6718 25.089 13.8342 25.089 14.5492 24.3722C15.2642 23.6572 15.2642 22.4967 14.5492 21.7798L13.0422 20.2747L14.5492 18.7677C15.2642 18.0527 15.2642 16.8903 14.5492 16.1753C13.8342 15.4585 12.6718 15.4585 11.9568 16.1753ZM25.6537 18.7677L27.1607 20.2747L25.6537 21.7798C24.9387 22.4967 24.9387 23.6572 25.6537 24.3722C26.3687 25.089 27.531 25.089 28.246 24.3722L31.0492 21.5708C31.7642 20.854 31.7642 19.6935 31.0492 18.9767L28.246 16.1753C27.531 15.4585 26.3687 15.4585 25.6537 16.1753C24.9387 16.8903 24.9387 18.0527 25.6537 18.7677Z" />
  </symbol>

  <symbol id="new-section-ic" viewBox="0 0 44 44">
    <path fill-rule="evenodd" clip-rule="evenodd" d="M40.3332 12.8569C40.3332 9.82277 37.8692 7.35693 34.8332 7.35693H9.1665C6.1305 7.35693 3.6665 9.82277 3.6665 12.8569V31.1426C3.6665 34.1768 6.1305 36.6426 9.1665 36.6426H34.8332C37.8692 36.6426 40.3332 34.1768 40.3332 31.1426V12.8569ZM36.6665 12.8569V31.1426C36.6665 32.1546 35.8452 32.9759 34.8332 32.9759H9.1665C8.1545 32.9759 7.33317 32.1546 7.33317 31.1426V12.8569C7.33317 11.8449 8.1545 11.0236 9.1665 11.0236H34.8332C35.8452 11.0236 36.6665 11.8449 36.6665 12.8569ZM20.1665 20.1664H17.0608C16.0488 20.1664 15.2275 20.9878 15.2275 21.9998C15.2275 23.0118 16.0488 23.8331 17.0608 23.8331H20.1665V26.9388C20.1665 27.9508 20.9878 28.7721 21.9998 28.7721C23.0118 28.7721 23.8332 27.9508 23.8332 26.9388V23.8331H26.9388C27.9508 23.8331 28.7722 23.0118 28.7722 21.9998C28.7722 20.9878 27.9508 20.1664 26.9388 20.1664H23.8332V17.0608C23.8332 16.0488 23.0118 15.2274 21.9998 15.2274C20.9878 15.2274 20.1665 16.0488 20.1665 17.0608V20.1664Z" />
  </symbol>

  <symbol id="animation-ic" viewBox="0 0 44 44">
    <path fill-rule="evenodd" clip-rule="evenodd" d="M40.3332 18.7881C40.3332 15.7539 37.8692 13.2881 34.8332 13.2881H28.411C25.375 13.2881 22.911 15.7539 22.911 18.7881V25.2121C22.911 28.2463 25.375 30.7121 28.411 30.7121H34.8332C37.8692 30.7121 40.3332 28.2463 40.3332 25.2121V18.7881ZM5.49984 28.5909H19.1197C20.1317 28.5909 20.953 27.7696 20.953 26.7576C20.953 25.7456 20.1317 24.9243 19.1197 24.9243H5.49984C4.48784 24.9243 3.6665 25.7456 3.6665 26.7576C3.6665 27.7696 4.48784 28.5909 5.49984 28.5909ZM36.6665 18.7881V25.2121C36.6665 26.2223 35.8452 27.0454 34.8332 27.0454H28.411C27.399 27.0454 26.5777 26.2223 26.5777 25.2121V18.7881C26.5777 17.7779 27.399 16.9548 28.411 16.9548H34.8332C35.8452 16.9548 36.6665 17.7779 36.6665 18.7881ZM9.15917 23.8334H19.1197C20.1317 23.8334 20.953 23.0121 20.953 22.0001C20.953 20.9881 20.1317 20.1668 19.1197 20.1668H9.15917C8.14717 20.1668 7.32584 20.9881 7.32584 22.0001C7.32584 23.0121 8.14717 23.8334 9.15917 23.8334ZM13.9075 19.0759H19.1197C20.1317 19.0759 20.953 18.2546 20.953 17.2426C20.953 16.2306 20.1317 15.4093 19.1197 15.4093H13.9075C12.8955 15.4093 12.0742 16.2306 12.0742 17.2426C12.0742 18.2546 12.8955 19.0759 13.9075 19.0759Z" />
  </symbol>

  <symbol id="favicon-ic" viewBox="0 0 44 44">
    <path fill-rule="evenodd" clip-rule="evenodd" d="M21.9998 3.6665C11.8817 3.6665 3.6665 11.8817 3.6665 21.9998C3.6665 32.118 11.8817 40.3332 21.9998 40.3332C32.118 40.3332 40.3332 32.118 40.3332 21.9998C40.3332 11.8817 32.118 3.6665 21.9998 3.6665ZM21.9998 7.33317C30.094 7.33317 36.6665 13.9057 36.6665 21.9998C36.6665 30.094 30.094 36.6665 21.9998 36.6665C13.9057 36.6665 7.33317 30.094 7.33317 21.9998C7.33317 13.9057 13.9057 7.33317 21.9998 7.33317ZM23.626 11.3445C23.3107 10.7377 22.6837 10.3563 21.9998 10.3563C21.316 10.3563 20.689 10.7377 20.3737 11.3445L17.8235 16.2505L12.3693 17.1598C11.6947 17.2717 11.1373 17.752 10.9265 18.401C10.7157 19.0518 10.8843 19.7668 11.3628 20.2545L15.2422 24.1962L14.4208 29.6632C14.32 30.3397 14.6023 31.018 15.156 31.4195C15.7097 31.821 16.4412 31.8815 17.0535 31.5772L21.9998 29.1058L26.9462 31.5772C27.5585 31.8815 28.29 31.821 28.8437 31.4195C29.3973 31.018 29.6797 30.3397 29.5788 29.6632L28.7575 24.1962L32.6368 20.2545C33.1153 19.7668 33.284 19.0518 33.0732 18.401C32.8623 17.752 32.305 17.2717 31.6303 17.1598L26.1762 16.2505L23.626 11.3445ZM21.9998 16.1662L23.3455 18.7548C23.6113 19.2663 24.1027 19.622 24.671 19.7173L27.5475 20.1977L25.5015 22.2767C25.0982 22.6873 24.9093 23.2648 24.9955 23.835L25.4282 26.7188L22.8193 25.4153C22.3042 25.1587 21.6955 25.1587 21.1803 25.4153L18.5715 26.7188L19.0042 23.835C19.0903 23.2648 18.9015 22.6873 18.4982 22.2767L16.4522 20.1977L19.3287 19.7173C19.897 19.622 20.3883 19.2663 20.6542 18.7548L21.9998 16.1662Z" />
  </symbol>

  <symbol id="comments-ic" viewBox="0 0 44 44">
    <path fill-rule="evenodd" clip-rule="evenodd" d="M38.5 12.8369C38.5 9.80091 36.036 7.33691 33 7.33691H11C7.964 7.33691 5.5 9.80091 5.5 12.8369V31.1666C5.5 34.2026 7.964 36.6666 11 36.6666H12.8352L12.8425 38.5054C12.8443 39.1196 13.1523 39.6897 13.662 40.0289C14.1735 40.3662 14.8207 40.4268 15.3853 40.1903L23.771 36.6666H33C36.036 36.6666 38.5 34.2026 38.5 31.1666V12.8369ZM34.8333 12.8369V31.1666C34.8333 32.1786 34.012 32.9999 33 32.9999H23.4025C23.1587 32.9999 22.9167 33.0494 22.693 33.1429L16.5 35.7444L16.4963 34.8277C16.4927 33.8176 15.6732 32.9999 14.663 32.9999H11C9.988 32.9999 9.16667 32.1786 9.16667 31.1666V12.8369C9.16667 11.8249 9.988 11.0036 11 11.0036H33C34.012 11.0036 34.8333 11.8249 34.8333 12.8369ZM14.6667 27.4999H23.8333C24.8453 27.4999 25.6667 26.6786 25.6667 25.6666C25.6667 24.6546 24.8453 23.8332 23.8333 23.8332H14.6667C13.6547 23.8332 12.8333 24.6546 12.8333 25.6666C12.8333 26.6786 13.6547 27.4999 14.6667 27.4999ZM14.6667 20.1666H29.3333C30.3453 20.1666 31.1667 19.3452 31.1667 18.3332C31.1667 17.3212 30.3453 16.4999 29.3333 16.4999H14.6667C13.6547 16.4999 12.8333 17.3212 12.8333 18.3332C12.8333 19.3452 13.6547 20.1666 14.6667 20.1666Z" />
  </symbol>

  <symbol id="form-ic" viewBox="0 0 44 44">
    <path fill-rule="evenodd" clip-rule="evenodd" d="M12.8333 7.33317H11.4657C8.173 7.33317 5.5 10.0062 5.5 13.2988V34.3675C5.5 37.6602 8.173 40.3332 11.4657 40.3332H32.5343C35.827 40.3332 38.5 37.6602 38.5 34.3675V13.2988C38.5 10.0062 35.827 7.33317 32.5343 7.33317H31.1667C31.1667 5.30917 29.524 3.6665 27.5 3.6665H16.5C14.476 3.6665 12.8333 5.30917 12.8333 7.33317ZM31.1667 10.9998C31.1667 13.0238 29.524 14.6665 27.5 14.6665H16.5C14.476 14.6665 12.8333 13.0238 12.8333 10.9998H11.4657C10.197 10.9998 9.16667 12.0302 9.16667 13.2988V34.3675C9.16667 35.6362 10.197 36.6665 11.4657 36.6665H32.5343C33.803 36.6665 34.8333 35.6362 34.8333 34.3675V13.2988C34.8333 12.0302 33.803 10.9998 32.5343 10.9998H31.1667ZM14.6667 31.1665H25.6667C26.6787 31.1665 27.5 30.3452 27.5 29.3332C27.5 28.3212 26.6787 27.4998 25.6667 27.4998H14.6667C13.6547 27.4998 12.8333 28.3212 12.8333 29.3332C12.8333 30.3452 13.6547 31.1665 14.6667 31.1665ZM14.6667 23.8332H29.3333C30.3453 23.8332 31.1667 23.0118 31.1667 21.9998C31.1667 20.9878 30.3453 20.1665 29.3333 20.1665H14.6667C13.6547 20.1665 12.8333 20.9878 12.8333 21.9998C12.8333 23.0118 13.6547 23.8332 14.6667 23.8332ZM16.5 7.33317V10.9998H27.5V7.33317H16.5Z" />
  </symbol>

  <symbol id="plugin-ic" viewBox="0 0 44 44">
    <path fill-rule="evenodd" clip-rule="evenodd" d="M16.7459 12.0185H15.3053C12.4779 12.0185 10.185 14.3114 10.185 17.1388V18.5794C6.56887 18.687 3.6665 21.6562 3.6665 25.2984C3.6665 28.939 6.56887 31.9098 10.185 32.0173V33.3797C10.185 36.2071 12.4779 38.5 15.3053 38.5H31.5462C34.3736 38.5 36.6665 36.2071 36.6665 33.3797V29.9216V29.9135V29.8662L36.6616 29.7766L36.6584 29.7473L36.6567 29.7342L36.6551 29.7179L36.6518 29.6853L36.647 29.6609L36.6453 29.643L36.6404 29.6185L36.6372 29.5957L36.6339 29.5762L36.629 29.5517L36.6225 29.5207L36.6193 29.5044L36.616 29.493L36.6095 29.4637L36.5834 29.3773L36.5557 29.291L36.5231 29.2079L36.5052 29.1704L36.497 29.1508L36.4856 29.1264L36.471 29.097L36.4563 29.0677L36.4449 29.0482L36.4351 29.0302L36.4107 28.9879L36.3993 28.9683C36.2754 28.7646 36.1157 28.5919 35.9315 28.4533L35.8647 28.4061C35.6741 28.2757 35.4573 28.1812 35.2243 28.1307L35.2031 28.1258L35.1542 28.1176L35.1347 28.1127L35.1118 28.1095L35.0792 28.1046L35.0467 28.1013L35.0206 28.0981L34.9994 28.0964L34.957 28.0916L34.9277 28.0899H34.9147L34.8674 28.0883H34.8332H34.825H34.7778L34.6881 28.0932L34.6588 28.0964L34.6458 28.0981L34.6295 28.0997L34.5969 28.103L34.5724 28.1079L34.5545 28.1095L34.5301 28.1144L34.5072 28.1176L34.4877 28.1209L34.4632 28.1258L34.4323 28.1323L34.416 28.1356L34.4046 28.1388L34.3752 28.1453L34.2889 28.1714L34.2449 28.1861L34.2367 28.1877C33.9238 28.2953 33.5898 28.3539 33.2427 28.3539C31.556 28.3539 30.1871 26.985 30.1871 25.2984C30.1871 23.6117 31.556 22.2428 33.2427 22.2428C33.5898 22.2428 33.9238 22.2999 34.2367 22.4074L34.2449 22.4107L34.2889 22.4253L34.3752 22.4498L34.4046 22.4563L34.416 22.4596L34.4323 22.4628L34.4632 22.471L34.4877 22.4742L34.5072 22.4791L34.5301 22.4824L34.5545 22.4856L34.5724 22.4889L34.5969 22.4922L34.6295 22.4954L34.6458 22.4987H34.6588L34.6881 22.5019L34.7778 22.5068H34.8674L34.957 22.5036L34.9994 22.5003L35.0206 22.4987L35.0467 22.4954L35.0792 22.4905L35.1118 22.4856L35.1347 22.4824L35.1542 22.4791L35.2031 22.471L35.2243 22.4644C35.4573 22.4156 35.6724 22.3194 35.8631 22.1907L35.9299 22.1434L35.9315 22.1418C36.1157 22.0033 36.2754 21.8305 36.3993 21.6284L36.4107 21.6089L36.4351 21.5649L36.4449 21.547L36.4563 21.5274L36.471 21.4981L36.4856 21.4687L36.497 21.4459L36.5052 21.4264L36.5231 21.3873L36.5329 21.3596L36.5378 21.3482L36.5557 21.3042L36.5671 21.2716L36.5687 21.2634L36.5834 21.2194L36.6095 21.1314L36.616 21.1037L36.6193 21.0907L36.6225 21.0744L36.629 21.0434L36.6339 21.019L36.6372 21.001L36.6404 20.9766L36.6453 20.9538L36.647 20.9342L36.6518 20.9098L36.6551 20.8772L36.6567 20.8609L36.6584 20.8495L36.6616 20.8202L36.6665 20.7289V20.6833V20.6735V17.1388C36.6665 14.3114 34.3736 12.0185 31.5462 12.0185H30.1838C30.0763 8.40237 27.1055 5.5 23.4649 5.5C19.8227 5.5 16.8535 8.40237 16.7459 12.0185ZM26.3232 13.3076L26.3461 13.2407C26.4585 12.9213 26.5204 12.5791 26.5204 12.2222C26.5204 10.5356 25.1515 9.16667 23.4649 9.16667C21.7782 9.16667 20.4093 10.5356 20.4093 12.2222C20.4093 12.5791 20.4696 12.9213 20.5821 13.2407L20.6049 13.3076L20.6293 13.3939L20.6358 13.42L20.6407 13.4396L20.6505 13.4819L20.6538 13.4982L20.6554 13.5096L20.6603 13.5422L20.6668 13.5732L20.6684 13.5846L20.6701 13.6009L20.675 13.6449L20.6782 13.6644L20.6815 13.6905L20.6847 13.7573L20.6864 13.7818L20.688 13.8714L20.6847 13.961L20.6766 14.049L20.6717 14.0914L20.6668 14.1305L20.6652 14.1419C20.6228 14.4043 20.525 14.6504 20.3832 14.8622L20.3735 14.8769L20.3507 14.9095L20.3278 14.9437L20.3181 14.9551C20.1632 15.1604 19.9661 15.3348 19.7314 15.4619L19.7216 15.4668L19.6858 15.4847L19.6483 15.5043L19.5668 15.5418L19.4837 15.5744L19.399 15.6021L19.3126 15.6281L19.2865 15.633L19.267 15.6379L19.2229 15.6477L19.2067 15.651L19.1952 15.6526L19.1643 15.6591L19.1333 15.664L19.1219 15.6656L19.1056 15.6689L19.06 15.6738L19.0421 15.6754L19.0144 15.6787L18.9492 15.6836H18.9247L18.8351 15.6852H18.8286H15.3053C14.5019 15.6852 13.8517 16.3354 13.8517 17.1388V20.6621V20.6914L13.8501 20.7582L13.8452 20.8479L13.8419 20.8756L13.8403 20.8935L13.8354 20.9391L13.8321 20.9554L13.8305 20.9668L13.8256 20.9978L13.8191 21.0287L13.8175 21.0402L13.8142 21.0564L13.8044 21.1004L13.7995 21.12L13.7947 21.1461L13.7751 21.2096L13.7686 21.2324L13.7409 21.3172L13.7083 21.4003L13.6708 21.4818L13.6512 21.5193L13.6333 21.5551L13.6284 21.5649C13.5013 21.7996 13.327 21.9967 13.1216 22.1516L13.1102 22.1613L13.076 22.1842L13.0434 22.207L13.0287 22.2167C12.8169 22.3585 12.5708 22.4563 12.3084 22.4987L12.297 22.5003L12.2579 22.5052L12.2155 22.5101L12.1275 22.5182L12.0379 22.5215L11.9483 22.5199L11.857 22.515L11.8309 22.5117L11.8114 22.5084L11.7674 22.5036L11.7511 22.5019L11.7397 22.5003L11.7087 22.4938L11.6761 22.4889L11.6647 22.4873L11.6484 22.484L11.6061 22.4742L11.5865 22.4693L11.5604 22.4628L11.4969 22.4449L11.4741 22.4384L11.4072 22.4156C11.0878 22.3031 10.7456 22.2428 10.3887 22.2428C8.70206 22.2428 7.33317 23.6117 7.33317 25.2984C7.33317 26.985 8.70206 28.3539 10.3887 28.3539C10.7456 28.3539 11.0878 28.292 11.4072 28.1796L11.4741 28.1567L11.5604 28.1323L11.5865 28.1258L11.6061 28.1225L11.6484 28.1127L11.6647 28.1095L11.6761 28.1062L11.7087 28.1013L11.7397 28.0964L11.7511 28.0948L11.7674 28.0916L11.8114 28.0867L11.8309 28.085L11.857 28.0818L11.9238 28.0769L11.9483 28.0753H12.0379L12.1275 28.0785L12.2155 28.085L12.2579 28.0916L12.297 28.0964L12.3084 28.0981C12.5708 28.1404 12.8169 28.2382 13.0287 28.38L13.0434 28.3882L13.076 28.411L13.1102 28.4354L13.1216 28.4452C13.327 28.5984 13.5013 28.7972 13.6284 29.0302L13.6333 29.04L13.6512 29.0759L13.6708 29.1133L13.7083 29.1948L13.7409 29.2779L13.7686 29.3627L13.7947 29.4507L13.7995 29.4767L13.8044 29.4947L13.8142 29.5387L13.8175 29.555L13.8191 29.5664L13.8256 29.5973L13.8305 29.6299L13.8321 29.6413L13.8354 29.6576L13.8403 29.7016L13.8419 29.7212L13.8452 29.7473L13.8501 29.8141V29.8385L13.8517 29.9282V29.9347V33.3797C13.8517 34.1831 14.5019 34.8333 15.3053 34.8333H31.5462C32.3496 34.8333 32.9998 34.1831 32.9998 33.3797V32.0157C29.4016 31.8886 26.5204 28.9276 26.5204 25.2984C26.5204 21.6692 29.4016 18.7082 32.9998 18.581V17.1388C32.9998 16.3354 32.3496 15.6852 31.5462 15.6852H28.1012H28.0718L28.005 15.6836L27.9138 15.6787L27.8877 15.6754L27.8681 15.6738L27.8241 15.6689L27.8078 15.6656L27.7964 15.664L27.7638 15.6591L27.7329 15.6526L27.7215 15.651L27.7052 15.6477L27.6612 15.6379L27.6432 15.633L27.6172 15.6281L27.552 15.6086L27.5292 15.6021L27.4444 15.5744L27.3613 15.5418L27.2798 15.5043L27.2424 15.4847L27.2065 15.4668L27.1967 15.4619C26.9637 15.3348 26.7649 15.1604 26.6117 14.9551L26.6019 14.9437L26.5775 14.9095L26.5547 14.8769L26.5465 14.8622C26.4047 14.6504 26.3053 14.4043 26.2646 14.1419L26.263 14.1305L26.2581 14.0914L26.2515 14.049L26.245 13.961L26.2418 13.8714V13.7818L26.2483 13.6905L26.2515 13.6644L26.2532 13.6449L26.2581 13.6009L26.2613 13.5846L26.263 13.5732L26.2678 13.5422L26.2727 13.5096L26.276 13.4982L26.2792 13.4819L26.289 13.4396L26.2923 13.42L26.2988 13.3939L26.3167 13.3304L26.3232 13.3076Z" />
  </symbol>

  <symbol id="compress-ic" viewBox="0 0 44 44">
    <path fill-rule="evenodd" clip-rule="evenodd" d="M26.015 3.6665H11C7.964 3.6665 5.5 6.1305 5.5 9.1665V34.8332C5.5 37.8692 7.964 40.3332 11 40.3332H33C36.036 40.3332 38.5 37.8692 38.5 34.8332V15.9352C38.5 14.4465 37.8968 13.022 36.828 11.9862C35.0478 10.2628 31.5902 6.9115 29.843 5.2175C28.8163 4.222 27.4432 3.6665 26.015 3.6665ZM23.8333 7.33317H11C9.988 7.33317 9.16667 8.1545 9.16667 9.1665V34.8332C9.16667 35.8452 9.988 36.6665 11 36.6665H33C34.012 36.6665 34.8333 35.8452 34.8333 34.8332V18.049H29.3333C27.874 18.049 26.4752 17.4697 25.4448 16.4393C24.4127 15.4072 23.8333 14.0083 23.8333 12.549V7.33317ZM22.957 23.494C22.8323 23.56 22.715 23.6425 22.605 23.7397L22.5683 23.7727L22.5408 23.7983L22.5078 23.8313L22.4748 23.8662L22.4492 23.8955C22.352 24.0037 22.2695 24.1228 22.2035 24.2457C22.066 24.5042 21.9872 24.7975 21.9872 25.111V30.1783C21.9872 31.1903 22.8085 32.0117 23.8205 32.0117C24.8325 32.0117 25.6538 31.1903 25.6538 30.1783V29.5367L28.8383 32.7212C29.5552 33.438 30.7157 33.438 31.4325 32.7212C32.1475 32.0062 32.1475 30.8438 31.4325 30.1288L28.2462 26.9443H28.8897C29.9017 26.9443 30.723 26.123 30.723 25.111C30.723 24.099 29.9017 23.2777 28.8897 23.2777H23.8205C23.5088 23.2777 23.2137 23.3565 22.957 23.494ZM15.7117 20.1665H15.07C14.058 20.1665 13.2367 20.9878 13.2367 21.9998C13.2367 23.0118 14.058 23.8332 15.07 23.8332H20.1373C20.4508 23.8332 20.7442 23.7543 21.0027 23.6168C21.1255 23.5508 21.2447 23.4683 21.3528 23.3712L21.3913 23.3382L21.417 23.3125L21.45 23.2795L21.483 23.2447L21.5087 23.2153C21.6058 23.1072 21.6883 22.988 21.7543 22.8652C21.8918 22.6067 21.9707 22.3133 21.9707 21.9998V16.9307C21.9707 15.9205 21.1493 15.0973 20.1373 15.0973C19.1253 15.0973 18.304 15.9205 18.304 16.9307V17.5742L15.1195 14.3897C14.4045 13.6728 13.2422 13.6728 12.5272 14.3897C11.8103 15.1047 11.8103 16.267 12.5272 16.982L15.7117 20.1665ZM27.5 8.05367V12.549C27.5 13.0367 27.6925 13.5023 28.0372 13.847C28.38 14.1898 28.8475 14.3823 29.3333 14.3823H34.0322L27.5 8.05367Z" />
  </symbol>

  <symbol id="adaptive-ic" viewBox="0 0 44 44">
    <path fill-rule="evenodd" clip-rule="evenodd" d="M30.4242 12.837V11C30.4242 7.964 27.9602 5.5 24.9242 5.5H11C7.964 5.5 5.5 7.964 5.5 11V33C5.5 36.036 7.964 38.5 11 38.5H19.437V34.8333H11C9.988 34.8333 9.16667 34.012 9.16667 33V11C9.16667 9.988 9.988 9.16667 11 9.16667H24.9242C25.9362 9.16667 26.7575 9.988 26.7575 11V12.837H30.4242ZM38.5 20.1667C38.5 17.1307 36.036 14.6667 33 14.6667H26.7703C23.7343 14.6667 21.2703 17.1307 21.2703 20.1667V33C21.2703 36.036 23.7343 38.5 26.7703 38.5H33C36.036 38.5 38.5 36.036 38.5 33V20.1667ZM34.8333 20.1667V33C34.8333 34.012 34.012 34.8333 33 34.8333H26.7703C25.7583 34.8333 24.937 34.012 24.937 33V20.1667C24.937 19.1547 25.7583 18.3333 26.7703 18.3333H33C34.012 18.3333 34.8333 19.1547 34.8333 20.1667Z" />
  </symbol>

</svg>
