<svg xmlns="http://www.w3.org/2000/svg" version="1.1" xmlns:xlink="http://www.w3.org/1999/xlink" xmlns:svgjs="http://svgjs.com/svgjs" width="48" height="48"><svg width="48" height="48" viewBox="0 0 48 48" fill="none" xmlns="http://www.w3.org/2000/svg">
<g clip-path="url(#clip0_1010_102)">
<rect x="5" y="13" width="34" height="22" fill="white"></rect>
<path fill-rule="evenodd" clip-rule="evenodd" d="M3.84772 9.13945L17.6532 1.04706C20.0338 -0.34902 22.9672 -0.34902 25.3477 1.04706C27.2336 2.1527 29.742 3.62298 32.2505 5.09325C34.7589 6.56353 37.2673 8.03381 39.1532 9.13945C41.5338 10.5355 43 13.1149 43 15.907V32.0928C43 34.8849 41.5338 37.4643 39.1532 38.8603C37.2893 39.9531 34.8171 41.4021 32.3379 42.8553L32.2647 42.8982C29.7515 44.3713 27.2372 45.845 25.3477 46.9527C22.9672 48.3488 20.0338 48.3488 17.6532 46.9527C15.8279 45.8826 13.4194 44.4709 10.9922 43.0482L10.7337 42.8967C8.23085 41.4297 5.7294 39.9635 3.84772 38.8603C1.46716 37.4643 0 34.8849 0 32.0928V15.907C0 13.1149 1.46716 10.5355 3.84772 9.13945ZM18.4682 14.9998H11.2386C10.8081 14.9998 10.3949 15.1736 10.0905 15.4834L6.47571 19.1581C6.17098 19.4675 6 19.8875 6 20.3251V23.9998C6 24.9115 6.72694 25.6505 7.62378 25.6505H16.8444V26.9906L14.1807 29.6985H7.62378C6.72766 29.6985 6 30.4382 6 31.3492C6 32.2601 6.72766 32.9998 7.62378 32.9998H14.8534C15.2839 32.9998 15.6971 32.826 16.0015 32.5162L19.6163 28.8416C19.921 28.5322 20.092 28.1121 20.092 27.6745V23.9998C20.092 23.0881 19.3651 22.3492 18.4682 22.3492H9.24755V21.009L11.9113 18.3011H18.4682C19.3643 18.3011 20.092 17.5614 20.092 16.6505C20.092 15.7395 19.3643 14.9998 18.4682 14.9998ZM33.7524 18.3011H24.5318C23.6357 18.3011 22.908 17.5614 22.908 16.6505C22.908 15.7395 23.6357 14.9998 24.5318 14.9998H35.3762C36.2731 14.9998 37 15.7388 37 16.6505V20.3251C37 20.8771 36.7285 21.3923 36.277 21.6984L26.1555 28.5579V29.6985H35.3762C36.2723 29.6985 37 30.4382 37 31.3492C37 32.2601 36.2723 32.9998 35.3762 32.9998H24.5318C23.6349 32.9998 22.908 32.2608 22.908 31.3492V27.6745C22.908 27.1226 23.1795 26.6074 23.631 26.3013L33.7524 19.4418V18.3011Z" fill="#292A73"></path>
</g>
<defs>
<clipPath id="SvgjsClipPath1000">
<rect width="48" height="48" fill="white"></rect>
</clipPath>
</defs>
</svg><style>@media (prefers-color-scheme: light) { :root { filter: none; } }
@media (prefers-color-scheme: dark) { :root { filter: none; } }
</style></svg>