<svg xmlns="http://www.w3.org/2000/svg" version="1.1" xmlns:xlink="http://www.w3.org/1999/xlink" xmlns:svgjs="http://svgjs.com/svgjs" width="256" height="256"><svg width="256" height="256" viewBox="0 0 256 256" fill="none" xmlns="http://www.w3.org/2000/svg">
<rect width="256" height="256" fill="white"></rect>
<path d="M150.103 86.0263H217.324V94.3275L143.535 144.249C140.244 146.477 138.265 150.227 138.265 154.243V180.987C138.265 187.622 143.564 193 150.103 193H229.162C235.695 193 241 187.617 241 180.987C241 174.357 235.695 168.974 229.162 168.974H161.94V160.673L235.729 110.751C239.021 108.523 241 104.773 241 100.757V74.0132C241 67.3781 235.7 62 229.162 62H150.103C143.57 62 138.265 67.3835 138.265 74.0132C138.265 80.6428 143.57 86.0263 150.103 86.0263Z" fill="#292A73"></path>
<path d="M53.191 62H105.897C112.43 62 117.735 67.3835 117.735 74.0132C117.735 80.6428 112.43 86.0263 105.897 86.0263H58.0954L38.6757 105.734V115.487H105.897C112.436 115.487 117.735 120.865 117.735 127.5V154.243C117.735 157.429 116.489 160.485 114.267 162.737L87.914 189.481C85.695 191.735 82.6829 193 79.5442 193H26.8379C20.3049 193 15 187.617 15 180.987C15 174.357 20.3049 168.974 26.8379 168.974H74.6399L94.0595 149.266V139.513H26.8379C20.2996 139.513 15 134.135 15 127.5V100.757C15 97.5714 16.2465 94.5147 18.4681 92.2629L44.8213 65.5194C47.0402 63.265 50.0524 62 53.191 62Z" fill="#292A73"></path>
</svg><style>@media (prefers-color-scheme: light) { :root { filter: none; } }
</style></svg>