<?xml version="1.0" encoding="UTF-8" standalone="no"?>
<!DOCTYPE svg PUBLIC "-//W3C//DTD SVG 1.1//EN" "http://www.w3.org/Graphics/SVG/1.1/DTD/svg11.dtd">
<svg width="100%" height="100%" viewBox="0 0 968 544" version="1.1" xmlns="http://www.w3.org/2000/svg" xmlns:xlink="http://www.w3.org/1999/xlink" xml:space="preserve" xmlns:serif="http://www.serif.com/" style="fill-rule:evenodd;clip-rule:evenodd;stroke-linejoin:round;stroke-miterlimit:2;">
    <rect x="0" y="0" width="968" height="544" style="fill:rgb(196,185,148);"/>
    <g id="first-place-ic.svg" transform="matrix(4.26667,0,0,4.26667,780,272)">
        <g transform="matrix(1,0,0,1,-30,-30)">
            <path d="M15.821,33.193L15.821,57C15.821,57.334 15.988,57.647 16.266,57.832C16.544,58.018 16.897,58.052 17.205,57.923L30,52.594L42.795,57.923C43.103,58.052 43.456,58.018 43.734,57.832C44.012,57.647 44.179,57.334 44.179,57L44.179,33.193C44.358,32.788 44.669,32.449 45.068,32.237L47.457,30.964C49.357,29.953 50.115,27.62 49.173,25.685L47.988,23.252C47.719,22.699 47.719,22.053 47.989,21.5L49.176,19.068C50.12,17.132 49.361,14.795 47.458,13.785L45.068,12.514C44.525,12.225 44.145,11.702 44.038,11.098L43.565,8.432C43.19,6.314 41.205,4.871 39.073,5.169L36.392,5.544C35.783,5.629 35.169,5.429 34.726,5.002L32.779,3.122C31.229,1.626 28.771,1.626 27.221,3.122L25.274,5.002C24.831,5.429 24.217,5.629 23.608,5.544L20.927,5.169C18.795,4.871 16.81,6.314 16.435,8.432L15.962,11.098C15.855,11.702 15.475,12.225 14.932,12.514L12.542,13.785C10.639,14.795 9.88,17.132 10.824,19.068L12.011,21.5C12.281,22.053 12.281,22.699 12.012,23.252L10.827,25.685C9.885,27.62 10.643,29.953 12.543,30.964L14.932,32.237C15.331,32.449 15.642,32.788 15.821,33.193ZM17.821,53.626L17.821,55.501L29.615,50.588C29.707,50.549 29.801,50.526 29.895,50.516L29.947,50.512L30.105,50.516C30.199,50.526 30.293,50.549 30.385,50.588L42.179,55.501L42.179,53.626L30,48.553L17.821,53.626ZM17.821,38.706L17.821,51.46L29.615,46.547C29.707,46.509 29.801,46.486 29.895,46.476L29.947,46.472L30.105,46.476C30.199,46.486 30.293,46.509 30.385,46.547L42.179,51.46L42.179,38.706C41.342,39.398 40.229,39.748 39.073,39.586L36.391,39.209C35.782,39.123 35.168,39.323 34.725,39.75L32.776,41.627C31.227,43.121 28.773,43.121 27.224,41.627L25.275,39.75C24.832,39.323 24.218,39.123 23.609,39.209L20.927,39.586C19.771,39.748 18.658,39.398 17.821,38.706ZM42.243,32.651C42.576,31.723 43.244,30.943 44.128,30.473C44.819,30.105 45.695,29.638 46.517,29.2C47.467,28.694 47.846,27.527 47.375,26.561L46.19,24.128C45.652,23.022 45.652,21.729 46.191,20.625L47.378,18.191C47.85,17.224 47.471,16.055 46.519,15.55L44.129,14.278C43.043,13.702 42.283,12.657 42.068,11.445C41.932,10.675 41.759,9.698 41.596,8.781C41.408,7.722 40.416,7.001 39.35,7.15L36.669,7.525C35.451,7.695 34.222,7.295 33.337,6.441L31.389,4.561C30.614,3.813 29.386,3.813 28.611,4.561L26.663,6.441C25.778,7.295 24.549,7.695 23.331,7.525C22.555,7.416 21.572,7.279 20.65,7.15C19.584,7.001 18.592,7.722 18.404,8.781L17.932,11.445C17.717,12.657 16.957,13.702 15.871,14.278L13.481,15.55C12.529,16.055 12.15,17.224 12.622,18.191L13.809,20.625C14.348,21.729 14.348,23.022 13.81,24.128C13.467,24.831 13.033,25.723 12.625,26.561C12.154,27.527 12.533,28.694 13.483,29.2L15.872,30.473C16.756,30.943 17.424,31.723 17.757,32.651C17.762,32.665 17.767,32.679 17.771,32.693C17.84,32.892 17.894,33.097 17.931,33.307L18.401,35.973C18.588,37.033 19.582,37.755 20.649,37.605L23.33,37.228C24.548,37.058 25.778,37.456 26.663,38.31C27.227,38.853 27.941,39.542 28.612,40.189C29.387,40.935 30.613,40.935 31.388,40.189L33.337,38.31C34.222,37.456 35.452,37.058 36.67,37.228L39.351,37.605C40.418,37.755 41.412,37.033 41.599,35.973L42.069,33.307C42.106,33.097 42.16,32.892 42.229,32.693C42.233,32.679 42.238,32.665 42.243,32.651ZM30,9.415C22.811,9.415 16.974,15.25 16.974,22.437C16.974,29.625 22.811,35.46 30,35.46C37.189,35.46 43.026,29.625 43.026,22.437C43.026,15.25 37.189,9.415 30,9.415ZM30,11.414C36.086,11.414 41.026,16.354 41.026,22.437C41.026,28.521 36.086,33.461 30,33.461C23.914,33.461 18.974,28.521 18.974,22.437C18.974,16.354 23.914,11.414 30,11.414ZM29.52,27.061L27.913,27.061C27.361,27.061 26.913,27.508 26.913,28.06C26.913,28.612 27.361,29.06 27.913,29.06L33.151,29.06C33.703,29.06 34.151,28.612 34.151,28.06C34.151,27.508 33.703,27.061 33.151,27.061L31.52,27.061L31.52,16.013C31.52,15.652 31.324,15.318 31.009,15.141C30.694,14.964 30.308,14.971 29.999,15.159L27.392,16.747C26.921,17.035 26.771,17.65 27.059,18.121C27.346,18.592 27.962,18.742 28.433,18.454L29.52,17.792L29.52,27.061Z"/>
        </g>
    </g>
    <g id="house-ic.svg" transform="matrix(4.26667,0,0,4.26667,484,272)">
        <g transform="matrix(1,0,0,1,-30,-30)">
            <path d="M25.781,6.804L18.202,6.804C17.937,6.804 17.683,6.91 17.495,7.097L2.293,22.299L2.273,22.32L2.26,22.334L2.242,22.355C2.1,22.52 2.011,22.731 2.001,22.963L2.001,22.969C2,22.984 2,22.998 2,23.013L2,27.007C2,27.559 2.448,28.007 3,28.007L5.774,28.007L5.774,56.007C5.774,56.559 6.222,57.007 6.774,57.007L53.226,57.007C53.778,57.007 54.226,56.559 54.226,56.007L54.226,28.007L57,28.007C57.552,28.007 58,27.559 58,27.007L58,23.014C58,22.997 58,22.981 57.999,22.965L57.999,22.958C57.988,22.726 57.897,22.514 57.754,22.35L57.741,22.336L57.729,22.322L57.716,22.308L57.709,22.302L42.603,7.1C42.415,6.911 42.16,6.804 41.893,6.804L34.219,6.804L30.707,3.293C30.317,2.902 29.683,2.902 29.293,3.293L25.781,6.804ZM52.226,28.007L7.774,28.007L7.774,55.007L20,55.007L20,52.007C20,51.454 20.448,51.007 21,51.007L23,51.007L23,37.005C23,35.149 23.737,33.369 25.05,32.056C26.362,30.744 28.142,30.007 29.998,30.007L30.002,30.007C31.858,30.007 33.638,30.744 34.95,32.056C36.263,33.369 37,35.149 37,37.005L37,51.007L39,51.007C39.552,51.007 40,51.454 40,52.007L40,55.007L52.226,55.007L52.226,28.007ZM38,53.007L22,53.007L22,55.007L38,55.007L38,53.007ZM35,51.007L25,51.007L25,37.005C25,35.679 25.527,34.408 26.464,33.47C27.401,32.533 28.672,32.007 29.998,32.007L30.002,32.007C31.328,32.007 32.599,32.533 33.536,33.47C34.473,34.408 35,35.679 35,37.005L35,51.007ZM19.3,34.007L11.3,34.007C10.195,34.007 9.3,34.902 9.3,36.007L9.3,46.007C9.3,47.111 10.195,48.007 11.3,48.007L19.3,48.007C20.405,48.007 21.3,47.111 21.3,46.007L21.3,36.007C21.3,34.902 20.405,34.007 19.3,34.007ZM48.7,34L40.7,34C39.595,34 38.7,34.895 38.7,36L38.7,46C38.7,47.105 39.595,48 40.7,48L48.7,48C49.805,48 50.7,47.105 50.7,46L50.7,36C50.7,34.895 49.805,34 48.7,34ZM16.3,42.007L16.3,46.007L19.3,46.007L19.3,42.007L16.3,42.007ZM11.3,42.007L11.3,46.007L14.3,46.007L14.3,42.007L11.3,42.007ZM45.7,42L45.7,46L48.7,46L48.7,42L45.7,42ZM40.7,42L40.7,46L43.7,46L43.7,42L40.7,42ZM31.316,40.401L31.316,42.612C31.316,43.164 31.764,43.612 32.316,43.612C32.868,43.612 33.316,43.164 33.316,42.612L33.316,40.401C33.316,39.849 32.868,39.401 32.316,39.401C31.764,39.401 31.316,39.849 31.316,40.401ZM16.3,40.007L19.3,40.007L19.3,36.007L16.3,36.007L16.3,40.007ZM11.3,40.007L14.3,40.007L14.3,36.007L11.3,36.007L11.3,40.007ZM45.7,40L48.7,40L48.7,36L45.7,36L45.7,40ZM40.7,40L43.7,40L43.7,36L40.7,36L40.7,40ZM56,24.007L4,24.007L4,26.007L56,26.007L56,24.007ZM23.781,8.804L18.616,8.804L5.414,22.007L10.579,22.007L23.781,8.804ZM13.408,22.007L46.592,22.007L30,5.414L13.408,22.007ZM36.219,8.804L49.421,22.007L54.597,22.007L41.477,8.804L36.219,8.804ZM30,10.607C27.293,10.607 25.096,12.804 25.096,15.511C25.096,18.218 27.293,20.415 30,20.415C32.707,20.415 34.904,18.218 34.904,15.511C34.904,12.804 32.707,10.607 30,10.607ZM30,12.607C31.603,12.607 32.904,13.908 32.904,15.511C32.904,17.114 31.603,18.415 30,18.415C28.397,18.415 27.096,17.114 27.096,15.511C27.096,13.908 28.397,12.607 30,12.607Z"/>
        </g>
    </g>
    <g id="investments-ic.svg" transform="matrix(4.26667,0,0,4.26667,188,272)">
        <g transform="matrix(1,0,0,1,-30,-30)">
            <path d="M35.14,4.645C34.592,3.163 33.223,2.143 31.647,2.041C31.642,2.041 31.637,2.041 31.633,2.04C30.542,1.985 29.45,1.985 28.36,2.049L28.354,2.049C26.782,2.151 25.417,3.168 24.869,4.644C24.771,4.886 24.674,5.147 24.582,5.397C24.361,5.994 23.867,6.451 23.254,6.626C22.74,6.769 22.227,6.936 21.72,7.119C21.719,7.12 21.717,7.12 21.716,7.121C21.119,7.339 20.453,7.26 19.924,6.907L19.254,6.466C17.94,5.59 16.233,5.569 14.898,6.413C14.894,6.416 14.89,6.418 14.886,6.421C13.971,7.017 13.088,7.659 12.243,8.351C12.242,8.353 12.24,8.354 12.239,8.355C11.027,9.361 10.52,10.986 10.945,12.503C11.007,12.756 11.083,13.024 11.155,13.281C11.327,13.894 11.196,14.553 10.803,15.055C10.471,15.474 10.154,15.91 9.852,16.357C9.851,16.357 9.85,16.358 9.85,16.359C9.495,16.887 8.91,17.214 8.274,17.24L7.473,17.277C5.895,17.341 4.502,18.327 3.917,19.795C3.916,19.799 3.914,19.804 3.912,19.808C3.523,20.828 3.185,21.867 2.909,22.923C2.909,22.925 2.908,22.927 2.908,22.929C2.519,24.455 3.064,26.068 4.299,27.045C4.498,27.213 4.717,27.386 4.926,27.551C5.426,27.946 5.707,28.556 5.684,29.193C5.662,29.727 5.662,30.266 5.68,30.805L5.68,30.809C5.703,31.444 5.422,32.053 4.923,32.447L4.297,32.948C3.057,33.927 2.51,35.544 2.9,37.075C2.901,37.08 2.902,37.084 2.903,37.089C3.188,38.143 3.525,39.182 3.923,40.198C3.924,40.2 3.924,40.202 3.925,40.204C4.508,41.668 5.896,42.652 7.47,42.717C7.73,42.735 8.008,42.746 8.274,42.757C8.911,42.783 9.498,43.111 9.853,43.64C10.149,44.085 10.466,44.521 10.797,44.947C10.798,44.948 10.799,44.949 10.799,44.95C11.192,45.45 11.322,46.108 11.15,46.72L10.938,47.493C10.51,49.014 11.018,50.644 12.233,51.653C12.237,51.656 12.241,51.659 12.244,51.662C13.094,52.348 13.978,52.99 14.897,53.579C14.899,53.58 14.9,53.581 14.902,53.582C16.234,54.424 17.936,54.404 19.247,53.531C19.468,53.393 19.7,53.239 19.921,53.091C20.452,52.737 21.119,52.658 21.718,52.877C22.219,53.063 22.732,53.23 23.25,53.38C23.251,53.38 23.252,53.38 23.253,53.381C23.865,53.555 24.356,54.01 24.577,54.607L24.86,55.357C25.408,56.839 26.777,57.859 28.353,57.961C28.358,57.961 28.363,57.961 28.367,57.962C29.458,58.017 30.55,58.017 31.64,57.953L31.646,57.953C33.218,57.851 34.583,56.834 35.131,55.358C35.229,55.116 35.326,54.855 35.418,54.605C35.639,54.008 36.133,53.551 36.746,53.376C37.26,53.233 37.773,53.066 38.28,52.883C38.281,52.882 38.283,52.882 38.284,52.881C38.881,52.663 39.547,52.742 40.076,53.095L40.746,53.536C42.06,54.412 43.767,54.433 45.102,53.589C45.106,53.586 45.11,53.584 45.114,53.581C46.029,52.985 46.912,52.343 47.757,51.651C47.758,51.649 47.76,51.648 47.761,51.647C48.973,50.641 49.48,49.016 49.055,47.499C48.993,47.246 48.917,46.978 48.845,46.721C48.673,46.108 48.804,45.449 49.197,44.947C49.529,44.528 49.846,44.092 50.148,43.645C50.149,43.645 50.15,43.644 50.15,43.643C50.505,43.115 51.09,42.788 51.726,42.762L52.527,42.725C54.105,42.661 55.498,41.675 56.083,40.207C56.084,40.203 56.086,40.198 56.088,40.194C56.477,39.174 56.815,38.135 57.091,37.079C57.091,37.077 57.092,37.075 57.092,37.073C57.481,35.547 56.936,33.934 55.701,32.957C55.502,32.789 55.283,32.616 55.074,32.451C54.574,32.056 54.293,31.446 54.316,30.809C54.338,30.275 54.338,29.736 54.32,29.197L54.32,29.193C54.297,28.558 54.578,27.949 55.077,27.555L55.703,27.054C56.943,26.075 57.49,24.458 57.1,22.927C57.099,22.922 57.098,22.918 57.097,22.913C56.812,21.859 56.475,20.82 56.077,19.804C56.076,19.802 56.076,19.8 56.075,19.798C55.492,18.334 54.104,17.35 52.53,17.285C52.27,17.267 51.992,17.256 51.726,17.245C51.089,17.219 50.502,16.891 50.147,16.362C49.851,15.917 49.534,15.481 49.203,15.055C49.202,15.054 49.201,15.053 49.201,15.052C48.808,14.552 48.678,13.894 48.85,13.282L49.062,12.509C49.49,10.988 48.982,9.358 47.767,8.349C47.763,8.346 47.759,8.343 47.756,8.34C46.906,7.654 46.022,7.012 45.103,6.423C45.101,6.422 45.1,6.421 45.098,6.42C43.766,5.578 42.064,5.598 40.753,6.471C40.532,6.609 40.3,6.763 40.079,6.911C39.548,7.265 38.881,7.344 38.282,7.125C37.781,6.939 37.268,6.772 36.75,6.622C36.749,6.622 36.748,6.622 36.747,6.621C36.135,6.447 35.644,5.992 35.423,5.395L35.14,4.645ZM33.264,5.339L33.551,6.099C33.995,7.289 34.978,8.197 36.199,8.545C36.666,8.68 37.132,8.831 37.59,9.001C37.592,9.002 37.593,9.002 37.595,9.003C38.792,9.441 40.127,9.282 41.188,8.575C41.397,8.436 41.616,8.29 41.834,8.153C41.843,8.148 41.851,8.143 41.86,8.137C42.513,7.701 43.363,7.69 44.027,8.109C44.882,8.657 45.703,9.254 46.493,9.891C47.098,10.396 47.35,11.209 47.137,11.968L46.922,12.751C46.582,13.974 46.843,15.287 47.627,16.286C47.925,16.67 48.213,17.066 48.484,17.473C48.485,17.475 48.486,17.476 48.487,17.477C49.198,18.536 50.371,19.192 51.645,19.243C51.896,19.253 52.159,19.264 52.416,19.282C52.426,19.283 52.436,19.283 52.446,19.284C53.231,19.315 53.924,19.806 54.216,20.535C54.585,21.481 54.899,22.447 55.164,23.427C55.356,24.19 55.082,24.996 54.464,25.484L53.829,25.992C52.835,26.782 52.275,27.997 52.322,29.266C52.338,29.752 52.338,30.242 52.317,30.731L52.317,30.735C52.27,32.01 52.834,33.23 53.834,34.02C53.834,34.021 53.834,34.021 53.835,34.021C54.032,34.176 54.238,34.339 54.435,34.505C54.443,34.511 54.451,34.518 54.459,34.524C55.075,35.011 55.348,35.815 55.155,36.577C54.898,37.559 54.584,38.525 54.222,39.473C53.929,40.204 53.234,40.695 52.446,40.726L51.635,40.764C50.366,40.819 49.199,41.473 48.49,42.527C48.218,42.929 47.93,43.325 47.626,43.709C47.625,43.71 47.624,43.712 47.623,43.713C46.837,44.716 46.575,46.035 46.92,47.262C46.988,47.503 47.059,47.757 47.121,48.007C47.124,48.017 47.126,48.027 47.129,48.036C47.342,48.793 47.089,49.604 46.485,50.106C45.701,50.75 44.879,51.347 44.029,51.901C43.362,52.32 42.511,52.309 41.855,51.872L41.176,51.425C40.118,50.724 38.789,50.567 37.596,51.003C37.14,51.168 36.674,51.32 36.203,51.452C36.201,51.452 36.2,51.453 36.198,51.453C34.972,51.802 33.985,52.715 33.542,53.911C33.455,54.147 33.364,54.393 33.268,54.632C33.264,54.641 33.26,54.651 33.257,54.66C32.984,55.397 32.303,55.905 31.519,55.957C30.506,56.016 29.49,56.016 28.477,55.965C27.691,55.912 27.009,55.402 26.736,54.663L26.449,53.903C26.005,52.713 25.022,51.805 23.801,51.457C23.334,51.322 22.868,51.171 22.41,51.001C22.408,51 22.407,51 22.405,50.999C21.208,50.561 19.873,50.72 18.812,51.427C18.603,51.566 18.384,51.712 18.166,51.849C18.157,51.854 18.149,51.859 18.14,51.865C17.487,52.301 16.637,52.312 15.973,51.893C15.118,51.345 14.297,50.748 13.507,50.111C12.902,49.606 12.65,48.793 12.863,48.034L13.078,47.251C13.418,46.028 13.157,44.715 12.373,43.716C12.075,43.332 11.787,42.936 11.516,42.529C11.515,42.527 11.514,42.526 11.513,42.525C10.802,41.466 9.629,40.81 8.355,40.759C8.104,40.749 7.841,40.738 7.584,40.72C7.574,40.719 7.564,40.719 7.554,40.718C6.769,40.687 6.076,40.196 5.784,39.467C5.415,38.521 5.101,37.555 4.836,36.575C4.644,35.812 4.918,35.006 5.536,34.518L6.171,34.01C7.165,33.22 7.725,32.005 7.678,30.736C7.662,30.25 7.662,29.76 7.683,29.271L7.683,29.267C7.73,27.992 7.166,26.772 6.166,25.982C6.166,25.981 6.166,25.981 6.165,25.981C5.968,25.826 5.762,25.663 5.565,25.497C5.557,25.491 5.549,25.484 5.541,25.478C4.925,24.991 4.652,24.187 4.845,23.425C5.102,22.443 5.416,21.477 5.778,20.529C6.071,19.798 6.766,19.307 7.554,19.276L8.365,19.238C9.634,19.183 10.801,18.529 11.51,17.475C11.782,17.073 12.07,16.677 12.374,16.293C12.375,16.292 12.376,16.29 12.377,16.289C13.163,15.286 13.425,13.967 13.08,12.74L13.08,12.739C13.012,12.498 12.941,12.245 12.879,11.995C12.876,11.985 12.874,11.975 12.871,11.966C12.658,11.209 12.911,10.398 13.515,9.896C14.299,9.252 15.121,8.655 15.971,8.101C16.638,7.682 17.489,7.693 18.145,8.13L18.824,8.577C19.882,9.278 21.211,9.435 22.404,8.999C22.86,8.834 23.326,8.682 23.797,8.55C23.799,8.55 23.8,8.549 23.802,8.549C25.028,8.2 26.015,7.287 26.458,6.091C26.545,5.855 26.636,5.609 26.732,5.37C26.736,5.361 26.74,5.351 26.743,5.342C27.016,4.605 27.697,4.097 28.481,4.045C29.494,3.986 30.51,3.986 31.523,4.037C32.309,4.09 32.991,4.6 33.264,5.339ZM30,12.963C20.597,12.963 12.962,20.598 12.962,30.001C12.962,39.404 20.597,47.039 30,47.039C39.403,47.039 47.038,39.404 47.038,30.001C47.038,20.598 39.403,12.963 30,12.963ZM30,14.963C38.3,14.963 45.038,21.701 45.038,30.001C45.038,38.301 38.3,45.039 30,45.039C21.7,45.039 14.962,38.301 14.962,30.001C14.962,21.701 21.7,14.963 30,14.963ZM29,21.501L26.25,21.501C24.663,21.501 23.375,22.789 23.375,24.376L23.375,28.126C23.375,29.713 24.663,31.001 26.25,31.001L33.75,31.001C34.233,31.001 34.625,31.393 34.625,31.876L34.625,35.626C34.625,36.109 34.233,36.501 33.75,36.501L24.375,36.501C23.823,36.501 23.375,36.949 23.375,37.501C23.375,38.053 23.823,38.501 24.375,38.501L29,38.501L29,40.001C29,40.553 29.448,41.001 30,41.001C30.552,41.001 31,40.553 31,40.001L31,38.501L33.75,38.501C35.337,38.501 36.625,37.213 36.625,35.626L36.625,31.876C36.625,30.289 35.337,29.001 33.75,29.001L26.25,29.001C25.767,29.001 25.375,28.609 25.375,28.126L25.375,24.376C25.375,23.893 25.767,23.501 26.25,23.501L35.625,23.501C36.177,23.501 36.625,23.053 36.625,22.501C36.625,21.949 36.177,21.501 35.625,21.501L31,21.501L31,20.001C31,19.449 30.552,19.001 30,19.001C29.448,19.001 29,19.449 29,20.001L29,21.501Z"/>
        </g>
    </g>
</svg>
