<?xml version="1.0" encoding="UTF-8" standalone="no"?>
<!DOCTYPE svg PUBLIC "-//W3C//DTD SVG 1.1//EN" "http://www.w3.org/Graphics/SVG/1.1/DTD/svg11.dtd">
<svg width="100%" height="100%" viewBox="0 0 968 544" version="1.1" xmlns="http://www.w3.org/2000/svg" xmlns:xlink="http://www.w3.org/1999/xlink" xml:space="preserve" xmlns:serif="http://www.serif.com/" style="fill-rule:evenodd;clip-rule:evenodd;stroke-linejoin:round;stroke-miterlimit:2;">
    <rect x="0" y="0" width="968" height="544" style="fill:rgb(224,55,184);"/>
    <g transform="matrix(1,0,0,1,-14.5574,0)">
        <g id="_1_2.svg" serif:id="1_2.svg" transform="matrix(0.533333,0,0,0.533333,639,284)">
            <g transform="matrix(1,0,0,1,-420,-139.5)">
                <path d="M142.864,166.579C132.722,185.16 109.294,195.72 82.189,193.77C55.151,191.824 50.523,181.319 45.201,180.937C39.879,180.554 34.885,190.365 22.258,189.457C4.62,187.415 -2.201,167.915 0.613,128.655C3.26,92.635 14.932,65.603 35.645,42.19L35.51,23.701C36.03,16.25 40.034,11.579 46.3,12.03C56.28,12.748 52.978,23.897 58.8,24.317C64.621,24.736 81.047,13.168 104.703,16.233C128.365,18.44 144.387,35.649 143.022,54.71C140.855,84.936 114.494,95.479 114.127,100.613C113.836,104.667 131.251,109.361 141.301,123.268C147.256,107.825 161.3,89.916 185.286,89.916C197.575,89.916 211.542,97.636 211.542,115.937C211.542,150.693 166.142,157.477 166.142,157.477C166.142,157.477 171.065,166.897 185.895,166.897C213.139,166.897 235.43,136.424 235.43,136.424L240,160.811C240,160.811 215.291,188.037 185.286,188.037C165.375,188.037 150.393,180.052 142.864,166.579ZM88.785,118.589C114.945,121.721 128.66,131.509 127.433,148.644C126.114,167.042 110.1,174.316 84.873,173.161C67.038,171.877 52.864,165.289 53.414,157.619C53.652,154.299 57.635,137.691 58.576,124.555C59.379,118.356 70.286,116.748 88.785,118.589ZM36.337,76.997C39.11,77.198 38.739,99.806 37.715,114.085C35.602,143.556 30.362,163.82 24.71,165.103C19.828,164.566 18.441,153.106 20.469,130.975C22.252,106.08 31.052,76.617 36.337,76.997ZM163.362,140.907C163.362,140.907 164.787,110.303 182.55,110.303C186.217,110.303 190.157,113.34 190.157,118.267C190.157,136.223 163.362,140.907 163.362,140.907ZM101.252,35.835C113.403,36.711 121.951,43.314 121.12,54.911C120.504,61.346 115.33,71.371 107.083,78.165C91.886,90.688 66.729,98.502 62.475,98.196C55.334,97.682 56.662,56.56 56.952,52.512C57.533,44.395 83.944,34.59 101.252,35.835Z" style="fill:rgb(255,196,241);"/>
                <path d="M446.211,148.921C446.477,124.219 466.789,87.064 501.413,85.859C508.999,85.595 510.786,92.638 510.786,93.834C513.24,93.065 516.353,92.87 520.067,92.87C520.067,92.87 530.619,92.223 530.619,100.237C530.619,110.389 521.826,146.65 521.826,153.757C521.826,157.14 524.478,161.677 527.979,161.832C533.217,161.824 539.915,156.133 547.881,145.514C547.881,145.514 549.232,115.856 557.811,93.834C559.876,88.53 565.87,85.758 572.911,85.859C572.911,85.859 582.917,85.859 582.917,91.591C582.917,96.415 572.911,129.72 572.911,147.65C572.911,150.395 572.911,154.827 576.954,154.827C584.121,154.827 594.629,135.154 603.898,102.82C607.409,90.574 611.455,85.566 619.843,85.859C625.598,85.859 629.667,87.835 629.553,91.591C629.264,101.09 617.779,148.628 617.779,153.757C617.779,157.777 619.843,161.832 624.195,161.832C632.319,161.832 652.875,136.979 652.875,136.979C652.905,126.158 652.947,115.361 653.761,106.11L645.534,106.11C637.841,106.13 634.525,102.701 634.837,96.415C634.652,89.09 637.485,84.998 644.093,84.95L655.845,84.95C655.845,84.95 667.897,1 706.578,1C721.61,1 725.909,16.269 725.909,28.173C725.909,47.745 715.28,69.676 697.981,84.95L722.179,84.95C726.184,84.95 727.925,87.323 727.855,91.591C726.909,102.069 719.076,105.82 707.698,106.11L678.766,106.11C678.766,106.11 672.317,161.832 698.981,161.832C715.592,161.832 726.82,145.842 726.82,145.842C727.813,131.838 730.518,116.611 734.827,100.237C734.827,100.237 737.466,85.859 752.18,85.859C757.446,85.859 761.674,87.895 761.674,91.591C761.674,98.74 751.711,132.848 751.711,147.117C751.711,151.764 752.969,154.827 755.893,154.827C763.73,154.827 775.632,129.006 784.003,98.74C784.003,98.74 787.081,85.859 798.514,85.859C802.815,85.859 808.8,87.666 808.8,91.591C808.8,96.415 797.765,160.798 797.765,160.798C797.765,160.798 828.126,137.364 833.948,137.364C837.917,137.364 840,140.691 840,146.65C840,154.827 833.948,158.794 833.948,158.794L792.849,186.168C792.849,186.168 781.842,279 739.745,279C722.55,279 715.92,266.202 715.92,254.909C715.92,232.809 735.066,208.527 771.912,181.193L775.743,154.827C775.743,154.827 766.326,184.799 747.403,184.799C734.827,184.799 729.457,170.035 729.457,170.035C729.457,170.035 714.293,184.799 696.927,184.799C665.958,184.799 657.576,159.129 657.576,159.129C657.576,159.129 637.724,184.799 615.116,184.799C593.531,184.799 594.659,154.827 594.659,154.827C594.659,154.827 587.534,184.799 568.902,184.799C556.395,184.799 550.547,170.035 550.547,170.035C550.547,170.035 536.63,184.799 523.632,184.799C507.954,184.799 502.528,166.643 502.528,166.643C502.528,166.643 492.089,184.799 474.802,184.799C461.196,184.799 454.476,176.748 451.257,170.178C441.221,177.3 426.907,184.799 411.13,184.799C390.79,184.799 375.587,176.498 368.202,162.543C359.455,182.58 335.59,194.189 307.718,192.187C281.494,190.305 277.004,180.138 271.842,179.768C266.68,179.397 261.836,188.893 249.589,188.014C232.481,186.037 225.865,167.165 228.594,129.17C231.162,94.308 242.483,68.146 262.574,45.487L262.443,27.594C262.946,20.381 266.83,15.862 272.908,16.298C282.588,16.993 279.386,27.784 285.032,28.189C290.678,28.594 306.611,17.4 329.555,20.365C352.504,22.501 368.046,39.156 366.721,57.604C364.621,86.857 339.052,97.061 338.695,102.029C338.409,106.017 355.863,110.645 365.526,124.625C370.319,108.415 384.696,86.746 411.13,86.746C423.437,86.746 437.425,94.46 437.425,112.748C437.425,147.481 391.957,154.26 391.957,154.26C391.957,154.26 396.887,163.673 411.739,163.673C425.098,163.673 437.268,156.374 446.211,148.921ZM766.801,206.374C766.801,206.374 755.388,259.114 741.854,259.114C737.653,259.114 735.811,253.906 735.811,250.36C735.811,230.147 766.801,206.374 766.801,206.374ZM314.115,119.427C339.488,122.458 352.792,131.93 351.601,148.516C350.323,166.32 334.79,173.36 310.322,172.242C293.022,171 279.275,164.624 279.808,157.2C280.039,153.988 283.902,137.914 284.815,125.201C285.594,119.201 296.173,117.645 314.115,119.427ZM263.244,79.174C265.934,79.367 265.574,101.248 264.581,115.068C262.532,143.59 257.449,163.202 251.968,164.445C247.232,163.925 245.886,152.833 247.853,131.415C249.583,107.321 258.118,78.806 263.244,79.174ZM505.084,105.312C505.084,105.312 501.473,123.168 498.924,135.773C496.85,146.03 493.591,163.822 482.308,163.822C473.622,163.822 472.702,155.46 472.702,149.793C472.702,126.762 485.009,107.936 505.084,105.312ZM389.173,137.701C389.173,137.701 390.6,107.118 408.389,107.118C412.062,107.118 416.008,110.153 416.008,115.076C416.008,133.02 389.173,137.701 389.173,137.701ZM326.208,39.337C337.993,40.185 346.284,46.575 345.478,57.798C344.881,64.027 339.863,73.728 331.864,80.304C317.124,92.425 292.723,99.987 288.597,99.69C281.671,99.193 282.958,59.395 283.239,55.476C283.803,47.62 309.42,38.131 326.208,39.337ZM681.036,81.09C681.036,81.09 689.16,21.042 701.087,21.042C705.357,21.042 705.744,27.354 705.744,32.975C705.744,60.56 681.036,81.09 681.036,81.09Z" style="fill:white;"/>
            </g>
        </g>
        <g id="_1_1.svg" serif:id="1_1.svg" transform="matrix(0.669565,0,0,0.669565,253.632,272)">
            <g transform="matrix(1,0,0,1,-178.5,-133.5)">
                <g>
                    <path d="M156.581,3C142.344,3 145.022,20.684 135.905,20.958C126.789,21.232 111.4,5.434 75.64,5.434C48.021,5.434 13.441,19.516 13.441,58.828C13.441,104.582 52.094,117.126 52.094,128.301C52.094,139.477 0,145.049 0,194.893C0,234.199 35.918,265.988 92.405,265.988C116.142,266.382 140.436,257.277 165.353,237.555L152.672,186.923L165.353,102.79C165.353,102.79 171,29.043 171,22.884C171,11.608 165.353,3 156.581,3ZM131.557,161.253C127.552,155.813 105.019,155.813 91.567,155.813C38.612,155.813 28.497,181.349 28.497,197.657C28.497,234.751 70.834,237.687 87.167,237.687C105.437,237.687 129.902,232.247 139.249,220.573C148.454,209.077 139.504,172.046 131.557,161.253ZM138.727,56.831C138.727,48.341 93.27,32.64 77.315,32.64C53.615,32.64 43.066,45.667 43.066,60.376C43.066,99.684 112.059,127.905 126.773,127.905C135.327,127.905 138.727,117.221 138.727,56.831Z" style="fill:rgb(255,196,241);"/>
                    <path d="M190.653,0.152C205.608,0.152 201.877,17.113 210.601,17.113C219.324,17.113 242.577,-1.877 278.172,0.152C313.682,0.903 339.409,24.819 339.409,53.356C339.409,98.608 301.236,117.139 301.236,124.823C301.236,133.633 357,140.454 357,192.553C357,236.662 315.956,267 263.574,267C223.058,267 215.035,251.85 207.06,251.85C199.084,251.85 192.687,267 173.767,267C147.252,265.848 135,237.536 135,178.758C135.098,124.823 149.611,83.309 177.99,46.216L175.814,18.693C175.791,7.538 181.263,0.152 190.653,0.152ZM265.375,154.314C304.71,156.175 326.204,169.283 326.204,194.939C326.204,222.483 303.107,235.034 265.375,236.016C238.647,236.016 216.813,227.722 216.813,216.239C216.813,211.269 220.977,186.105 220.977,166.438C221.511,157.119 237.601,153.555 265.375,154.314ZM182.741,97.988C186.895,97.988 188.758,131.701 188.756,153.079C188.756,197.202 183.108,227.946 174.82,230.463C167.483,230.187 164.191,213.266 164.85,180.086C164.85,142.814 174.82,97.988 182.741,97.988ZM275.121,29.72C293.329,29.722 306.779,38.64 306.779,56.002C306.548,65.654 299.906,81.139 288.337,92.145C267.018,112.425 230.348,126.76 223.974,126.76C213.272,126.76 210.858,65.368 210.858,59.306C210.858,47.154 249.183,29.72 275.121,29.72Z" style="fill:white;"/>
                </g>
            </g>
        </g>
    </g>
</svg>
