<?xml version="1.0" encoding="UTF-8" standalone="no"?>
<!DOCTYPE svg PUBLIC "-//W3C//DTD SVG 1.1//EN" "http://www.w3.org/Graphics/SVG/1.1/DTD/svg11.dtd">
<svg width="100%" height="100%" viewBox="0 0 968 544" version="1.1" xmlns="http://www.w3.org/2000/svg" xmlns:xlink="http://www.w3.org/1999/xlink" xml:space="preserve" xmlns:serif="http://www.serif.com/" style="fill-rule:evenodd;clip-rule:evenodd;stroke-linejoin:round;stroke-miterlimit:2;">
    <rect x="0" y="0" width="968" height="544" style="fill:rgb(70,75,226);"/>
    <g transform="matrix(2.94843,0,0,2.94843,176.884,-32.9681)">
        <path d="M166.229,78.5C166.229,68.652 162.317,59.207 155.353,52.243C148.389,45.279 138.944,41.367 129.096,41.367L79.229,41.367C69.38,41.367 59.935,45.279 52.972,52.243C46.008,59.207 42.096,68.652 42.096,78.5L42.096,128.368C42.096,138.216 46.008,147.661 52.972,154.625C59.935,161.589 69.38,165.501 79.229,165.501L129.096,165.501C138.944,165.501 148.389,161.589 155.353,154.625C162.317,147.661 166.229,138.216 166.229,128.368L166.229,78.5Z" style="fill:white;"/>
    </g>
    <g transform="matrix(1.16182,0,0,1.16182,108.005,169.964)">
        <path d="M433.815,22.27L373.32,182.098C373.201,182.574 372.786,182.917 372.296,182.944C371.806,182.972 371.355,182.676 371.184,182.216C363.267,160.874 322.856,46.126 322.856,46.126L279.308,179.226C279.308,179.226 278.121,182.946 275.741,182.946C273.361,182.946 272.411,180.15 271.064,176.726C269.716,173.301 211.988,17.354 211.988,17.354C211.988,17.354 209.444,8.028 199.532,8.028L197.801,8.028C197.801,8.028 194.2,7.679 194.2,5.7C194.2,5.7 193.977,3.154 196.595,3.154L248.593,3.154C248.593,3.154 252.979,3.138 252.979,5.049C252.979,9.241 240.962,6.785 240.962,14.768C240.962,21.697 285.793,139.243 285.793,139.243L328.7,8.028C328.7,8.028 329.823,3.831 332.698,3.831C335.572,3.831 336.584,8.067 337.075,9.751C337.382,10.802 369.877,96.437 384.905,135.975C384.905,135.975 422.321,36.597 423.187,34.375C424.503,31 427.185,21.692 427.185,17.481C427.185,13.271 425.57,7.937 415.255,7.937C412.113,7.937 412.112,5.7 412.113,5.7C412.113,5.7 411.844,3.831 414.269,3.831L450.73,3.831C450.73,3.831 453.056,3.713 453.056,5.7C453.056,7.687 450.972,8.872 446.769,8.872C442.565,8.872 437.675,11.831 433.815,22.27Z" style="fill:url(#_Linear1);"/>
    </g>
    <defs>
        <linearGradient id="_Linear1" x1="0" y1="0" x2="1" y2="0" gradientUnits="userSpaceOnUse" gradientTransform="matrix(258.861,0,0,258.861,194.195,93.0503)"><stop offset="0" style="stop-color:rgb(92,118,255);stop-opacity:1"/><stop offset="1" style="stop-color:rgb(10,0,255);stop-opacity:1"/></linearGradient>
    </defs>
</svg>
