<svg width="512" height="512" viewBox="0 0 512 512" fill="none" xmlns="http://www.w3.org/2000/svg">
<g clip-path="url(#clip0_325_102)">
<path d="M0 0H512V512H427.5V488.924L422.416 472.656L388.661 454.519L337.062 446.504L300.019 443L185.461 445.001L139.365 451.514L95.6202 470.118L84.5 495.897V512H0V0Z" fill="url(#paint0_linear_325_102)"/>
<path d="M426.5 512H85.5V496.103L96.3798 470.882L139.635 452.486L185.539 445.999L299.981 444L336.938 447.496L388.339 455.481L421.584 473.344L426.5 489.076V512Z" fill="url(#paint1_linear_325_102)"/>
<path fill-rule="evenodd" clip-rule="evenodd" d="M90 512C90 512 90.0261 511.591 90 488.862C89.9498 445.891 184.187 442.319 256 442.378C327.813 442.319 422.046 445.891 422 488.862C421.974 513.591 422 512 422 512H90Z" fill="#455A64"/>
<path fill-rule="evenodd" clip-rule="evenodd" d="M299.702 385H212.298V447.298C212.298 458.889 216.903 470.005 225.098 478.2C233.294 486.396 244.41 491 256 491C280.136 491 299.702 471.434 299.702 447.298C299.702 418.094 299.702 385 299.702 385Z" fill="white"/>
<path d="M133.864 268.489L144 266.069C144 266.069 133.505 243.241 133 231C129.157 137.932 202.589 138.007 245.6 138.051C249.345 138.055 252.859 138.058 256.071 138C298.046 137.241 380.057 143.927 368 231L371.232 266.069L399.102 284.737L395.718 313C395.718 313 394.13 326.935 386 337.37C384.434 339.379 380.564 339.928 376.478 340.508C371.991 341.145 367.243 341.818 365 344.504C360.763 349.578 357.675 356.642 354.471 363.973C350.623 372.777 346.605 381.968 340.225 388.567C328.202 401.003 313.326 410.567 298.053 416.914V417.947C298.053 441.172 279.225 460 256 460C244.847 460 234.15 455.569 226.264 447.683C218.378 439.797 213.947 429.1 213.947 417.947V417.805C200.174 412.226 187.516 403.908 176.804 393.196C163.16 379.552 153.399 362.75 148.234 344.504C134.565 345.919 121.612 337.009 118.335 323.281L113.259 302.015C109.694 287.077 118.927 272.054 133.864 268.489Z" fill="#FACCB4"/>
<path d="M141.575 296.996C141.062 296.688 140.438 296.629 139.877 296.835C135.864 298.312 133 302.17 133 306.692C133 312.487 137.705 317.192 143.5 317.192H143.502C144.095 317.192 144.656 316.924 145.029 316.462C145.401 316.001 145.545 315.395 145.419 314.816C144.35 309.833 143.537 305.197 142.92 301.071C142.892 300.881 142.863 300.691 142.836 300.503C142.73 299.792 142.627 299.096 142.514 298.42C142.433 297.828 142.088 297.304 141.575 296.996Z" fill="#D59877"/>
<path d="M368.889 296.996C369.402 296.688 370.026 296.629 370.587 296.835C374.6 298.312 377.464 302.17 377.464 306.692C377.464 312.487 372.759 317.192 366.964 317.192H366.962C366.369 317.192 365.808 316.924 365.435 316.462C365.063 316.001 364.919 315.395 365.045 314.816C366.114 309.833 366.927 305.197 367.544 301.071C367.572 300.88 367.6 300.691 367.628 300.502C367.734 299.791 367.837 299.096 367.95 298.42C368.031 297.828 368.376 297.304 368.889 296.996Z" fill="#D59877"/>
<path d="M149.038 247.973H227.858V296.192H149.038V247.973Z" fill="white"/>
<path d="M284.654 248.263H363.474V296.482H284.654V248.263Z" fill="white"/>
<path d="M256 321.158C259.201 321.158 262.118 319.937 264.313 317.937C266.761 315.707 270.558 315.883 272.789 318.331C275.019 320.777 274.844 324.576 272.396 326.806C268.067 330.751 262.313 333.159 256 333.159C249.688 333.159 243.933 330.751 239.604 326.806C237.157 324.576 236.981 320.777 239.212 318.331C241.442 315.883 245.24 315.707 247.688 317.937C249.883 319.937 252.8 321.158 256 321.158Z" fill="#EF9A9A"/>
<path d="M256.001 376.002C261.574 376.002 266.781 374.428 271.202 371.698C274.019 369.957 277.719 370.832 279.46 373.65C281.199 376.467 280.324 380.168 277.507 381.908C271.253 385.77 263.886 388.001 256.001 388.001C239.739 388.001 225.674 378.514 219.05 364.775C217.611 361.793 218.866 358.203 221.848 356.765C224.832 355.327 228.421 356.581 229.859 359.564C234.546 369.285 244.495 376.002 256.001 376.002Z" fill="#EF9A9A"/>
<path d="M222.373 219.539C221.913 216.257 218.879 213.97 215.598 214.431L156.735 222.686C153.453 223.146 151.166 226.179 151.626 229.461C152.086 232.742 155.12 235.03 158.401 234.569L217.264 226.314C220.546 225.854 222.833 222.821 222.373 219.539Z" fill="#263238"/>
<path d="M286.627 219.539C287.087 216.257 290.12 213.97 293.402 214.431L352.265 222.686C355.546 223.146 357.833 226.179 357.373 229.461C356.913 232.742 353.88 235.03 350.598 234.569L291.735 226.314C288.454 225.854 286.166 222.821 286.627 219.539Z" fill="#263238"/>
<path d="M202 270.967C202 276.489 197.523 280.966 192 280.966C186.477 280.966 182 276.489 182 270.967C182 265.444 186.477 260.967 192 260.967C197.523 260.967 202 265.444 202 270.967Z" fill="#263238"/>
<path d="M330 270.967C330 276.489 325.523 280.966 320 280.966C314.477 280.966 310 276.489 310 270.967C310 265.444 314.477 260.967 320 260.967C325.523 260.967 330 265.444 330 270.967Z" fill="#263238"/>
<path fill-rule="evenodd" clip-rule="evenodd" d="M118.609 186.589C120.348 186.67 121.717 188.104 121.717 189.845V244.047C121.717 248.368 124.014 252.157 127.454 254.257C126.633 255.284 126.142 256.585 126.142 258C126.142 260.409 127.565 262.489 129.616 263.443C113.113 268.892 103.244 286.196 107.352 303.408L112.428 324.674C116.007 339.668 129.083 349.931 143.754 350.615C149.464 368.107 159.238 384.186 172.49 397.439C183.093 408.041 195.505 416.417 209 422.267V437.524C146.091 440.022 83.9617 450.053 84 487.405C84.015 502.272 84.038 512 84.038 512H96.038L96 487.393C95.993 480.159 99.985 474.737 106.145 470.34C111.627 466.428 118.659 463.337 126.735 460.765C149.146 453.626 178.945 450.672 209.024 449.493C209.402 461.416 214.305 472.773 222.766 481.234C231.58 490.048 243.535 495 256 495C281.457 495 302.188 474.759 302.977 449.493C333.055 450.672 362.854 453.626 385.265 460.765C393.341 463.337 400.373 466.428 405.855 470.34C412.015 474.737 416.007 480.159 416 487.393L415.962 512H427.962C427.962 512 427.985 502.272 428 487.405C428.038 450.053 365.909 440.022 303 437.524V422.267C316.496 416.417 328.908 408.041 339.51 397.439C352.762 384.186 362.536 368.107 368.246 350.615C382.917 349.931 395.993 339.668 399.572 324.674L404.648 303.408C408.749 286.225 398.92 268.95 382.466 263.47C384.549 262.529 386 260.432 386 258C386 256.063 385.08 254.34 383.654 253.242C386.292 251.049 387.973 247.742 387.973 244.047C387.973 244.047 387.973 206.707 387.984 192.107C387.984 190.45 389.23 189.059 390.877 188.877C408.103 186.961 373.845 126.677 373.845 126.677C378.447 122.687 372.704 112.048 356.457 97.3343C344.791 86.7699 331.391 83.5325 324.759 82.5392C322.276 82.1881 319.811 83.2923 318.42 85.3789C317.333 87.0101 316.247 88.6402 316.247 88.6402C298.21 72.1128 273.722 56.0374 252.128 56.0374C207.712 56.0374 192.356 81.0329 192.356 81.0329C153.714 92.8014 136.964 113.44 132.006 120.729C130.977 122.369 130.269 124.191 129.924 126.096L129.875 126.361C129.851 126.498 129.825 126.637 129.799 126.78C128.832 132.1 130.761 137.535 134.866 141.053C135.461 141.563 135.844 141.891 135.844 141.891C119.945 160.268 116.283 186.449 116.283 186.449C117.067 186.506 117.843 186.553 118.609 186.589ZM135.186 274.325L141 272.937V285C141 296.046 149.954 305 161 305H213.955C223.848 305 232.254 297.767 233.731 287.985L236.898 267H275.102L278.269 287.985C279.746 297.767 288.152 305 298.045 305H351C362.046 305 371 296.046 371 285V272.937L376.814 274.325C388.53 277.121 395.773 288.905 392.976 300.622L387.9 321.888C385.33 332.654 375.175 339.645 364.454 338.536C361.554 338.236 358.858 340.064 358.064 342.87C353.175 360.138 343.938 376.04 331.024 388.953C311.146 408.832 284.184 420 256.071 420H255.929C227.816 420 200.854 408.832 180.976 388.953C168.062 376.04 158.825 360.138 153.936 342.87C153.142 340.064 150.446 338.236 147.546 338.536C136.825 339.645 126.67 332.654 124.1 321.888L119.024 300.622C116.227 288.905 123.47 277.121 135.186 274.325ZM351 240C355.825 240 360.469 241.743 364.093 244.881C364.074 244.606 364.064 244.327 364.064 244.047V197.28C364.064 194.617 362.844 192.101 360.752 190.452C358.66 188.804 355.927 188.205 353.338 188.827C343.819 191.142 332.083 192.212 320.594 188.622C320.594 188.622 330.662 171.183 334.721 162.54L316.247 176.668C316.247 176.668 316.756 166.042 320.594 156.019C320.594 156.019 280.042 182.677 218.438 181.015C218.438 181.015 222.143 167.795 243.434 148.412C243.434 148.412 190.023 167.041 176.055 196.229C176.055 196.229 168.761 184.252 168.447 169.06C168.447 169.06 163.211 175.268 152.463 180.315C148.307 182.289 145.659 186.48 145.659 191.081C145.625 211.464 145.625 244.047 145.625 244.047C145.625 245.475 145.374 246.846 144.914 248.116C145.501 247.321 146.15 246.566 146.858 245.858C150.609 242.107 155.696 240 161 240H217.728C223.554 240 229.09 242.54 232.889 246.956C234.912 249.307 236.335 252.065 237.093 255H274.907C275.665 252.065 277.088 249.307 279.111 246.956C282.91 242.54 288.446 240 294.272 240H351ZM221.925 426.995C232.566 430.197 243.695 431.907 255 431.996H257C268.308 431.907 279.44 430.196 290.083 426.992C286.468 442.471 272.58 454 256 454C246.717 454 237.815 450.313 231.251 443.749C226.606 439.104 223.402 433.288 221.925 426.995ZM231.251 472.749C225.271 466.769 221.678 458.847 221.087 450.465C221.63 451.068 222.19 451.658 222.766 452.234C231.58 461.048 243.535 466 256 466C269.856 466 282.312 460.004 290.915 450.464C289.65 468.644 274.502 483 256 483C246.717 483 237.815 479.313 231.251 472.749ZM225.639 261.194L221.865 286.194C221.274 290.107 217.912 293 213.955 293H161C156.582 293 153 289.418 153 285V260C153 257.878 153.843 255.843 155.343 254.343C156.843 252.843 158.878 252 161 252H217.728C220.058 252 222.273 253.016 223.793 254.782C225.312 256.549 225.986 258.89 225.639 261.194ZM286.361 261.194L290.135 286.194C290.726 290.107 294.088 293 298.045 293H351C355.418 293 359 289.418 359 285V260C359 257.878 358.157 255.843 356.657 254.343C355.157 252.843 353.122 252 351 252H294.272C291.942 252 289.727 253.016 288.207 254.782C286.688 256.549 286.014 258.89 286.361 261.194Z" fill="#263238"/>
</g>
<defs>
<linearGradient id="paint0_linear_325_102" x1="0" y1="0" x2="512" y2="512" gradientUnits="userSpaceOnUse">
<stop stop-color="#0073FF"/>
<stop offset="1" stop-color="#00DEFF"/>
</linearGradient>
<linearGradient id="paint1_linear_325_102" x1="0" y1="0" x2="512" y2="512" gradientUnits="userSpaceOnUse">
<stop stop-color="#0073FF"/>
<stop offset="1" stop-color="#00DEFF"/>
</linearGradient>
<clipPath id="clip0_325_102">
<rect width="512" height="512" fill="white"/>
</clipPath>
</defs>
</svg>
