<svg width="14" height="14" viewBox="0 0 14 14" fill="none" xmlns="http://www.w3.org/2000/svg">
<path fill-rule="evenodd" clip-rule="evenodd" d="M7.46022 0.316558C7.29857 -0.10552 6.70143 -0.105519 6.53978 0.316558L5.61693 2.72616C5.51585 2.99007 5.214 3.1151 4.95592 2.99996L2.59952 1.94867C2.18676 1.76452 1.76452 2.18676 1.94867 2.59952L2.99996 4.95592C3.1151 5.214 2.99007 5.51585 2.72616 5.61693L0.316558 6.53978C-0.10552 6.70143 -0.105519 7.29857 0.316558 7.46022L2.72616 8.38307C2.99007 8.48415 3.1151 8.786 2.99996 9.04408L1.94867 11.4005C1.76452 11.8132 2.18676 12.2355 2.59952 12.0513L4.95592 11C5.214 10.8849 5.51585 11.0099 5.61693 11.2738L6.53978 13.6834C6.70143 14.1055 7.29857 14.1055 7.46022 13.6834L8.38307 11.2738C8.48415 11.0099 8.786 10.8849 9.04408 11L11.4005 12.0513C11.8132 12.2355 12.2355 11.8132 12.0513 11.4005L11 9.04408C10.8849 8.786 11.0099 8.48415 11.2738 8.38307L13.6834 7.46022C14.1055 7.29857 14.1055 6.70143 13.6834 6.53978L11.2738 5.61693C11.0099 5.51585 10.8849 5.214 11 4.95592L12.0513 2.59952C12.2355 2.18676 11.8132 1.76452 11.4005 1.94867L9.04408 2.99996C8.786 3.1151 8.48415 2.99007 8.38307 2.72616L7.46022 0.316558ZM7 8.97127C8.0887 8.97127 8.97127 8.0887 8.97127 7C8.97127 5.9113 8.0887 5.02873 7 5.02873C5.9113 5.02873 5.02873 5.9113 5.02873 7C5.02873 8.0887 5.9113 8.97127 7 8.97127Z" fill="#38385F"/>
</svg>
