<svg xmlns="http://www.w3.org/2000/svg" xmlns:xlink="http://www.w3.org/1999/xlink">

  <symbol id="header-logo" viewBox="0 0 43 48">

    <path d="M23.8238 19.3168H31.5353V20.2696L23.0705 26C22.6929 26.2557 22.4658 26.6861 22.4658 27.1472V30.217C22.4658 30.9786 23.0738 31.596 23.8238 31.596H32.8933C33.6428 31.596 34.2514 30.978 34.2514 30.217C34.2514 29.456 33.6428 28.8381 32.8933 28.8381H25.1818V27.8852L33.6467 22.1548C34.0243 21.8991 34.2514 21.4687 34.2514 21.0076V17.9378C34.2514 17.1762 33.6434 16.5589 32.8933 16.5589H23.8238C23.0744 16.5589 22.4658 17.1768 22.4658 17.9378C22.4658 18.6988 23.0744 19.3168 23.8238 19.3168Z" />
    <path d="M12.7064 16.5589H18.7527C19.5022 16.5589 20.1107 17.1768 20.1107 17.9378C20.1107 18.6988 19.5022 19.3168 18.7527 19.3168H13.269L11.0412 21.5789V22.6985H18.7527C19.5028 22.6985 20.1107 23.3158 20.1107 24.0774V27.1472C20.1107 27.5128 19.9677 27.8637 19.7129 28.1222L16.6897 31.192C16.4352 31.4508 16.0896 31.596 15.7295 31.596H9.68321C8.93376 31.596 8.3252 30.978 8.3252 30.217C8.3252 29.456 8.93376 28.8381 9.68321 28.8381H15.1669L17.3947 26.5759V25.4564H9.68321C8.93316 25.4564 8.3252 24.839 8.3252 24.0774V21.0076C8.3252 20.642 8.46819 20.2911 8.72305 20.0327L11.7462 16.9629C12.0008 16.7041 12.3463 16.5589 12.7064 16.5589Z" />
    <path fill-rule="evenodd" clip-rule="evenodd" d="M17.6532 1.04727L3.84772 9.13966C1.46716 10.5357 0 13.1151 0 15.9072V32.093C0 34.8851 1.46716 37.4645 3.84772 38.8605C5.7294 39.9637 8.23085 41.4299 10.7337 42.8969L10.7432 42.9025C13.2541 44.3742 15.7655 45.8462 17.6532 46.9529C20.0338 48.349 22.9672 48.349 25.3477 46.9529C27.2372 45.8452 29.7515 44.3715 32.2647 42.8984L32.2711 42.8946C34.7727 41.4284 37.2725 39.9631 39.1532 38.8605C41.5338 37.4645 43 34.8851 43 32.093V15.9072C43 13.1151 41.5338 10.5357 39.1532 9.13966C37.2673 8.03402 34.7589 6.56374 32.2505 5.09346C29.742 3.62319 27.2336 2.15291 25.3477 1.04727C22.9672 -0.34881 20.0338 -0.34881 17.6532 1.04727ZM19.0108 3.43525C20.5511 2.53219 22.4499 2.53219 23.9902 3.43525L37.7947 11.5286C39.3359 12.4317 40.2849 14.1011 40.2849 15.9072V32.093C40.2849 33.9001 39.3359 35.5685 37.7947 36.4716L23.9902 44.565C22.4499 45.468 20.5511 45.468 19.0108 44.565L5.20627 36.4716C3.66507 35.5685 2.71611 33.9001 2.71611 32.093V15.9072C2.71611 14.1011 3.66507 12.4317 5.20627 11.5286L19.0108 3.43525Z" />

  </symbol>

  <symbol id="email-ic" viewBox="0 0 22 18">
    <path d="M19.8 4.5L11 10.125L2.2 4.5V2.25L11 7.875L19.8 2.25V4.5ZM19.8 0H2.2C0.979 0 0 1.00125 0 2.25V15.75C0 16.3467 0.231785 16.919 0.644365 17.341C1.05694 17.7629 1.61652 18 2.2 18H19.8C20.3835 18 20.9431 17.7629 21.3556 17.341C21.7682 16.919 22 16.3467 22 15.75V2.25C22 1.00125 21.01 0 19.8 0Z"/>
  </symbol>

  <symbol id="github-ic" viewBox="0 0 22 22">
    <path fill-rule="evenodd" clip-rule="evenodd" d="M10.9964 0C8.38493 0.00139711 5.85912 0.95511 3.87058 2.6906C1.88204 4.4261 0.560451 6.8302 0.142112 9.47304C-0.276226 12.1159 0.235965 14.8251 1.58711 17.1163C2.93826 19.4075 5.04025 21.1312 7.51722 21.9793C8.06368 22.0839 8.26952 21.7346 8.26952 21.4377C8.26952 21.1408 8.25858 20.2798 8.25494 19.3386C5.19476 20.0202 4.54812 18.007 4.54812 18.007C4.04902 16.6997 3.32769 16.3561 3.32769 16.3561C2.32949 15.6576 3.40238 15.6707 3.40238 15.6707C4.50805 15.751 5.08912 16.8342 5.08912 16.8342C6.06911 18.5579 7.66294 18.0593 8.28955 17.7679C8.38791 17.0377 8.6739 16.541 8.98903 16.259C6.54452 15.9751 3.97615 15.0077 3.97615 10.6862C3.961 9.5654 4.36665 8.48155 5.10916 7.65886C4.99622 7.37499 4.61916 6.22831 5.21662 4.67076C5.21662 4.67076 6.14015 4.36822 8.2422 5.82678C10.0452 5.32126 11.9475 5.32126 13.7505 5.82678C15.8508 4.36822 16.7724 4.67076 16.7724 4.67076C17.3717 6.22457 16.9947 7.37125 16.8817 7.65886C17.6266 8.48168 18.0331 9.56742 18.0166 10.6899C18.0166 15.0208 15.4427 15.9751 12.9946 16.2534C13.388 16.6045 13.7396 17.2899 13.7396 18.3432C13.7396 19.8521 13.7268 21.0661 13.7268 21.4377C13.7268 21.7384 13.9254 22.0895 14.4828 21.9793C16.96 21.1311 19.0622 19.4071 20.4134 17.1155C21.7645 14.8239 22.2764 12.1143 21.8576 9.4712C21.4388 6.82812 20.1165 4.42399 18.1273 2.68879C16.1381 0.953596 13.6117 0.00051155 11 0H10.9964Z"/>
  </symbol>

  <symbol id="telegram-ic" viewBox="0 0 22 22">
    <path fill-rule="evenodd" clip-rule="evenodd" d="M22 11C22 17.0751 17.0751 22 11 22C4.92487 22 0 17.0751 0 11C0 4.92487 4.92487 0 11 0C17.0751 0 22 4.92487 22 11ZM11.3942 8.12071C10.3243 8.56572 8.18596 9.48678 4.97924 10.8839C4.45852 11.091 4.18574 11.2936 4.16091 11.4916C4.11894 11.8264 4.53816 11.9582 5.10903 12.1377C5.18668 12.1621 5.26713 12.1874 5.34961 12.2142C5.91126 12.3968 6.66676 12.6104 7.05952 12.6189C7.41579 12.6266 7.81342 12.4797 8.25243 12.1783C11.2486 10.1558 12.7952 9.13351 12.8923 9.11148C12.9608 9.09593 13.0557 9.07638 13.12 9.13355C13.1844 9.19072 13.178 9.29898 13.1712 9.32803C13.1297 9.50507 11.4841 11.0349 10.6325 11.8266C10.3671 12.0735 10.1787 12.2485 10.1402 12.2885C10.054 12.3781 9.96612 12.4628 9.88165 12.5442C9.35988 13.0472 8.96859 13.4244 9.90332 14.0404C10.3525 14.3364 10.712 14.5812 11.0705 14.8254C11.4622 15.0921 11.8528 15.3581 12.3582 15.6894C12.4869 15.7738 12.6099 15.8615 12.7297 15.9468C13.1854 16.2717 13.5949 16.5637 14.1007 16.5171C14.3946 16.4901 14.6983 16.2137 14.8525 15.3893C15.2169 13.4412 15.9332 9.22027 16.0987 7.48092C16.1132 7.32853 16.095 7.1335 16.0803 7.04788C16.0657 6.96227 16.035 6.84029 15.9238 6.74999C15.792 6.64305 15.5885 6.6205 15.4975 6.6221C15.0838 6.62939 14.449 6.8501 11.3942 8.12071Z"/>
  </symbol>

  <symbol id="vk-ic" viewBox="0 0 20 20">
    <path fill-rule="evenodd" clip-rule="evenodd" d="M1.40589 1.40589C0 2.81177 0 5.0745 0 9.6V10.4C0 14.9255 0 17.1882 1.40589 18.5941C2.81177 20 5.0745 20 9.6 20H10.4C14.9255 20 17.1882 20 18.5941 18.5941C20 17.1882 20 14.9255 20 10.4V9.6C20 5.0745 20 2.81177 18.5941 1.40589C17.1882 0 14.9255 0 10.4 0H9.6C5.0745 0 2.81177 0 1.40589 1.40589ZM3.37505 6.08337C3.48338 11.2834 6.08337 14.4084 10.6417 14.4084H10.9001V11.4334C12.5751 11.6 13.8417 12.825 14.35 14.4084H16.7167C16.0667 12.0417 14.3583 10.7334 13.2916 10.2334C14.3583 9.61671 15.8583 8.11671 16.2166 6.08337H14.0666C13.5999 7.73337 12.2168 9.23337 10.9001 9.37504V6.08337H8.75V11.85C7.41667 11.5167 5.73338 9.90004 5.65837 6.08337H3.37505Z"/>
  </symbol>

  <symbol id="bem-ic" viewBox="0 0 97 97">
    <path fill-rule="evenodd" clip-rule="evenodd" d="M9.51761 48.6599C9.84908 48.9801 10.2986 49.16 10.7673 49.16H20.3789C22.5295 49.16 24.3138 48.8373 25.7321 48.1919C27.1505 47.5464 28.212 46.6646 28.9166 45.5462C29.6211 44.4278 29.9736 43.1658 29.9736 41.76C29.9736 40.3807 29.6806 39.2048 29.0951 38.2323C28.5093 37.2598 27.7567 36.506 26.8371 35.9712C25.9175 35.4364 24.9589 35.1423 23.9615 35.0894V34.8242C24.8766 34.6119 25.7047 34.2626 26.4459 33.7763C27.1872 33.2901 27.7773 32.6558 28.2165 31.8732C28.6558 31.0908 28.8753 30.1472 28.8753 29.0419C28.8753 27.6981 28.5392 26.4956 27.8666 25.4347C27.1939 24.3738 26.1828 23.5362 24.833 22.9217C23.4834 22.3072 21.7927 22 19.7613 22H10.7673C10.2986 22 9.84908 22.1799 9.51761 22.5001C9.18615 22.8204 9 23.2546 9 23.7075V47.4525C9 47.9054 9.18615 48.3397 9.51761 48.6599ZM19.5691 45.0489H14.0925V37.0919H19.7063C20.7586 37.0919 21.6647 37.2797 22.4242 37.6554C23.1837 38.0312 23.7693 38.544 24.1811 39.1938C24.5928 39.8436 24.7988 40.5708 24.7988 41.3754C24.7988 42.4539 24.3892 43.336 23.5704 44.021C22.7513 44.7063 21.4176 45.0489 19.5691 45.0489ZM19.1298 33.5509H14.0925V26.0581H19.2398C20.7404 26.0581 21.8728 26.3985 22.6369 27.0792C23.4009 27.7599 23.783 28.6264 23.783 29.6786C23.783 30.4742 23.5794 31.1616 23.1722 31.7406C22.7651 32.3198 22.2092 32.7663 21.5044 33.0801C20.7999 33.394 20.0083 33.5509 19.1298 33.5509Z"/>
    <path d="M34.9247 48.6599C35.2562 48.9801 35.7057 49.16 36.1744 49.16H51.0328C51.5015 49.16 51.951 48.9801 52.2825 48.6599C52.6137 48.3397 52.8001 47.9054 52.8001 47.4525V46.7431C52.8001 46.2903 52.6137 45.856 52.2825 45.5358C51.951 45.2155 51.5015 45.0357 51.0328 45.0357H39.4994V37.6223H49.9758C50.4445 37.6223 50.894 37.4425 51.2255 37.1222C51.5569 36.802 51.7431 36.3677 51.7431 35.9149V35.2053C51.7431 34.7524 51.5569 34.3182 51.2255 33.9979C50.894 33.6779 50.4445 33.4978 49.9758 33.4978H39.4994V26.1243H50.9229C51.3916 26.1243 51.8412 25.9445 52.1725 25.6242C52.504 25.304 52.6901 24.8697 52.6901 24.4168V23.7075C52.6901 22.7644 51.899 22 50.9229 22H36.1744C35.1982 22 34.4071 22.7644 34.4071 23.7075V47.4525C34.4071 47.9054 34.5933 48.3397 34.9247 48.6599Z"/>
    <path d="M59.6597 22C58.6837 22 57.8924 22.7644 57.8924 23.7075V47.4525C57.8924 48.3956 58.6837 49.16 59.6597 49.16H61.0116C61.4803 49.16 61.9298 48.9801 62.2613 48.6599C62.5927 48.3397 62.7789 47.9054 62.7789 47.4525V30.461H63.0397L70.3627 48.0114C70.6321 48.6574 71.2808 49.0805 72.0017 49.0805H73.2677C73.9881 49.0805 74.6365 48.658 74.9063 48.0126L82.2287 30.5008H82.4897V47.4525C82.4897 47.9054 82.6758 48.3397 83.0073 48.6599C83.3386 48.9801 83.7882 49.16 84.257 49.16H85.6087C86.5849 49.16 87.376 48.3956 87.376 47.4525V23.7075C87.376 22.7644 86.5849 22 85.6087 22H82.3302C81.6129 22 80.9669 22.4189 80.6949 23.0602L72.7989 41.6805H72.4694L64.5737 23.0602C64.3017 22.4189 63.6555 22 62.9383 22H59.6597Z"/>
    <path d="M56.8151 69.3027C56.9931 69.4781 57.2258 69.5658 57.5133 69.5658C57.7871 69.5658 58.013 69.4781 58.191 69.3027C58.3689 69.1273 58.4579 68.9046 58.4579 68.6347V59.4241C58.4579 59.1407 58.3689 58.9181 58.191 58.7561C58.013 58.5807 57.7871 58.493 57.5133 58.493C57.2258 58.493 56.9931 58.5807 56.8151 58.7561C56.6372 58.9181 56.5482 59.1407 56.5482 59.4241V68.6347C56.5482 68.9046 56.6372 69.1273 56.8151 69.3027Z"/>
    <path d="M56.6098 56.2055C56.8562 56.4484 57.1505 56.5699 57.4928 56.5699C57.8487 56.5699 58.1499 56.4484 58.3963 56.2055C58.6427 55.9626 58.7659 55.6657 58.7659 55.3148C58.7659 54.964 58.6359 54.6738 58.3758 54.4444C58.1294 54.2015 57.8419 54.08 57.5133 54.08C57.1711 54.08 56.8699 54.2015 56.6098 54.4444C56.3634 54.6738 56.2402 54.964 56.2402 55.3148C56.2402 55.6657 56.3634 55.9626 56.6098 56.2055Z"/>
    <path d="M17.9865 69.3229C18.1781 69.4984 18.4109 69.5861 18.6846 69.5861C18.9448 69.5861 19.1638 69.4984 19.3418 69.3229C19.5334 69.134 19.6292 68.9113 19.6292 68.6549V63.5537C19.6292 62.4471 19.4102 61.5092 18.9721 60.7399C18.5341 59.9707 17.9386 59.3904 17.1856 58.999C16.4327 58.5942 15.5771 58.3918 14.6188 58.3918C13.7152 58.3918 12.9007 58.5874 12.1751 58.9788C11.7369 59.207 11.3536 59.4894 11.0252 59.826V59.4241C11.0252 59.1407 10.9362 58.9181 10.7582 58.7561C10.594 58.5807 10.3681 58.493 10.0806 58.493C9.80679 58.493 9.58091 58.5807 9.40294 58.7561C9.22497 58.9181 9.13599 59.1407 9.13599 59.4241V68.6549C9.13599 68.9248 9.22497 69.1475 9.40294 69.3229C9.58091 69.4984 9.80679 69.5861 10.0806 69.5861C10.3681 69.5861 10.594 69.4984 10.7582 69.3229C10.9362 69.1475 11.0252 68.9248 11.0252 68.6549V62.825C11.0252 62.2986 11.1689 61.8331 11.4564 61.4282C11.7576 61.0233 12.1546 60.6995 12.6474 60.4565C13.1403 60.2136 13.6947 60.0922 14.3107 60.0922C14.9679 60.0922 15.5497 60.2204 16.0562 60.4768C16.5627 60.7197 16.9666 61.0976 17.2678 61.6104C17.5689 62.1097 17.7195 62.7575 17.7195 63.5537V68.6549C17.7195 68.9113 17.8085 69.134 17.9865 69.3229Z"/>
    <path fill-rule="evenodd" clip-rule="evenodd" d="M25.1261 68.9181C25.9338 69.4039 26.8511 69.6468 27.8778 69.6468C28.8772 69.6468 29.767 69.4107 30.5473 68.9383C31.0989 68.6102 31.5712 68.1974 31.9642 67.7V68.6549C31.9642 68.9248 32.0532 69.1475 32.2312 69.3229C32.4091 69.4984 32.635 69.5861 32.9088 69.5861C33.1826 69.5861 33.4085 69.4984 33.5865 69.3229C33.7781 69.1475 33.874 68.9248 33.874 68.6549V64.0395C33.8603 62.9734 33.6002 62.0152 33.0936 61.165C32.6008 60.3148 31.93 59.6468 31.0812 59.161C30.2325 58.6617 29.2673 58.412 28.1858 58.412C27.118 58.412 26.1529 58.6617 25.2904 59.161C24.4417 59.6468 23.764 60.3148 23.2575 61.165C22.7646 62.0017 22.5182 62.9599 22.5182 64.0395C22.5182 65.1057 22.751 66.0638 23.2164 66.914C23.6819 67.7642 24.3184 68.4322 25.1261 68.9181ZM30.1572 67.4808C29.5822 67.8182 28.9251 67.9869 28.1858 67.9869C27.474 67.9869 26.8237 67.8182 26.235 67.4808C25.6464 67.13 25.1809 66.6576 24.8387 66.0638C24.5101 65.4565 24.3458 64.7818 24.3458 64.0395C24.3458 63.2838 24.5101 62.609 24.8387 62.0152C25.1809 61.408 25.6464 60.9356 26.235 60.5982C26.8237 60.2474 27.474 60.0719 28.1858 60.0719C28.9251 60.0719 29.5822 60.2474 30.1572 60.5982C30.7321 60.9356 31.1839 61.408 31.5125 62.0152C31.8547 62.609 32.0258 63.2838 32.0258 64.0395C32.0258 64.7818 31.8547 65.4565 31.5125 66.0638C31.1839 66.6576 30.7321 67.13 30.1572 67.4808Z"/>
    <path d="M51.8784 69.5861C51.6046 69.5861 51.3788 69.4984 51.2008 69.3229C51.0228 69.1475 50.9338 68.9248 50.9338 68.6549V62.8452C50.9338 61.9545 50.7011 61.273 50.2357 60.8007C49.7839 60.3283 49.1952 60.0922 48.4697 60.0922C47.703 60.0922 47.0733 60.3553 46.5805 60.8816C46.1013 61.3945 45.8618 62.0625 45.8618 62.8857V68.6549C45.8618 68.9248 45.7728 69.1475 45.5948 69.3229C45.4305 69.4984 45.2047 69.5861 44.9172 69.5861C44.6434 69.5861 44.4175 69.4984 44.2395 69.3229C44.0615 69.1475 43.9726 68.9248 43.9726 68.6549V62.8452C43.9726 61.9545 43.7398 61.273 43.2744 60.8007C42.8226 60.3283 42.234 60.0922 41.5084 60.0922C40.7418 60.0922 40.1052 60.3486 39.5987 60.8614C39.1058 61.3742 38.8594 62.0287 38.8594 62.825V68.6549C38.8594 68.9248 38.7704 69.1475 38.5925 69.3229C38.4282 69.4984 38.2023 69.5861 37.9148 69.5861C37.641 69.5861 37.4151 69.4984 37.2372 69.3229C37.0592 69.1475 36.9702 68.9248 36.9702 68.6549V59.4444C36.9702 59.161 37.0592 58.9383 37.2372 58.7764C37.4151 58.6009 37.641 58.5132 37.9148 58.5132C38.2023 58.5132 38.4282 58.6009 38.5925 58.7764C38.7704 58.9383 38.8594 59.161 38.8594 59.4444V59.6099C39.1029 59.3582 39.3767 59.1411 39.6808 58.9586C40.3105 58.5807 41.0224 58.3918 41.8164 58.3918C42.6104 58.3918 43.3086 58.5672 43.911 58.9181C44.4124 59.2037 44.8231 59.5965 45.1431 60.0966C45.4917 59.6291 45.9298 59.2498 46.4573 58.9586C47.1418 58.5807 47.9152 58.3918 48.7777 58.3918C49.5717 58.3918 50.2699 58.5672 50.8722 58.9181C51.4883 59.269 51.9674 59.7818 52.3097 60.4565C52.6519 61.1178 52.823 61.914 52.823 62.8452V68.6549C52.823 68.9248 52.7341 69.1475 52.5561 69.3229C52.3918 69.4984 52.1659 69.5861 51.8784 69.5861Z"/>
    <path d="M71.9467 69.5861C71.6729 69.5861 71.4402 69.4984 71.2485 69.3229C71.0705 69.134 70.9815 68.9113 70.9815 68.6549V63.5537C70.9815 62.7575 70.831 62.1097 70.5298 61.6104C70.2286 61.0976 69.8248 60.7197 69.3182 60.4768C68.8117 60.2204 68.2299 60.0922 67.5728 60.0922C66.9567 60.0922 66.4023 60.2136 65.9095 60.4565C65.4166 60.6995 65.0196 61.0233 64.7184 61.4282C64.431 61.8331 64.2872 62.2986 64.2872 62.825V68.6549C64.2872 68.9248 64.1982 69.1475 64.0203 69.3229C63.856 69.4984 63.6301 69.5861 63.3426 69.5861C63.0688 69.5861 62.8429 69.4984 62.665 69.3229C62.487 69.1475 62.398 68.9248 62.398 68.6549V59.4241C62.398 59.1407 62.487 58.9181 62.665 58.7561C62.8429 58.5807 63.0688 58.493 63.3426 58.493C63.6301 58.493 63.856 58.5807 64.0203 58.7561C64.1982 58.9181 64.2872 59.1407 64.2872 59.4241V59.826C64.6156 59.4894 64.9989 59.207 65.4372 58.9788C66.1627 58.5874 66.9773 58.3918 67.8808 58.3918C68.8391 58.3918 69.6947 58.5942 70.4476 58.999C71.2006 59.3904 71.7961 59.9707 72.2342 60.7399C72.6722 61.5092 72.8913 62.4471 72.8913 63.5537V68.6549C72.8913 68.9113 72.7954 69.134 72.6038 69.3229C72.4258 69.4984 72.2068 69.5861 71.9467 69.5861Z"/>
    <path fill-rule="evenodd" clip-rule="evenodd" d="M78.3471 68.9383C79.1548 69.4107 80.0857 69.6468 81.1398 69.6468C82.0844 69.6468 82.9264 69.4174 83.6656 68.9586C84.3452 68.5368 84.8859 67.9667 85.2878 67.2484V68.2096C85.2878 69.0868 85.1167 69.8358 84.7745 70.4565C84.4322 71.0908 83.9736 71.5699 83.3987 71.8938C82.8237 72.2312 82.1871 72.3999 81.4889 72.3999C80.7223 72.3999 80.0446 72.2649 79.456 71.995C78.881 71.7251 78.4019 71.354 78.0186 70.8816C77.868 70.6927 77.6695 70.5712 77.423 70.5173C77.1766 70.4768 76.9439 70.5308 76.7249 70.6792C76.5195 70.8142 76.3963 70.9896 76.3552 71.2055C76.3279 71.4349 76.3963 71.6509 76.5606 71.8533C77.1219 72.5685 77.82 73.1151 78.6551 73.493C79.5039 73.8843 80.4348 74.08 81.4479 74.08C82.5567 74.08 83.5356 73.8236 84.3843 73.3108C85.2468 72.798 85.9176 72.103 86.3967 71.2258C86.8896 70.3621 87.136 69.3904 87.136 68.3108V64.0395C87.1223 62.9329 86.869 61.9613 86.3762 61.1246C85.8971 60.2743 85.2331 59.6131 84.3843 59.1407C83.5356 58.6549 82.5567 58.412 81.4479 58.412C80.3527 58.412 79.3738 58.6549 78.5114 59.1407C77.6626 59.6131 76.9918 60.2743 76.499 61.1246C76.0198 61.9613 75.7803 62.9329 75.7803 64.0395C75.7803 65.1326 76.0061 66.1043 76.4579 66.9545C76.9234 67.7912 77.5531 68.4525 78.3471 68.9383ZM83.4397 67.4808C82.8648 67.8182 82.2008 67.9869 81.4479 67.9869C80.7086 67.9869 80.0446 67.8182 79.456 67.4808C78.881 67.1434 78.4292 66.6779 78.1007 66.0841C77.7721 65.4903 77.6079 64.8088 77.6079 64.0395C77.6079 63.2703 77.7721 62.5888 78.1007 61.995C78.4292 61.3877 78.881 60.9154 79.456 60.578C80.0446 60.2406 80.7086 60.0719 81.4479 60.0719C82.2008 60.0719 82.8648 60.2406 83.4397 60.578C84.0147 60.9154 84.4665 61.3877 84.795 61.995C85.1236 62.5888 85.2878 63.2703 85.2878 64.0395C85.2878 64.8088 85.1236 65.4903 84.795 66.0841C84.4665 66.6779 84.0147 67.1434 83.4397 67.4808Z"/>
  </symbol>

  <symbol id="gulp-ic" viewBox="0 0 70 70">
    <path fill-rule="evenodd" clip-rule="evenodd" d="M25.0211 48.0064C26.9726 48.7895 29.9077 49.3903 34.3191 49.3903C38.7304 49.3903 41.6655 48.7895 43.6171 48.0064C42.8937 49.204 41.9455 50.3891 41.9455 50.3891C41.9455 50.3891 41.6732 58.2879 41.4008 59.9222C41.1284 61.5564 34.3191 61.5564 34.3191 61.5564H34.2995C33.9004 61.5548 27.5013 61.5055 27.2374 59.9222C26.965 58.2879 26.6926 50.3891 26.6926 50.3891C26.6926 50.3891 25.7445 49.204 25.0211 48.0064ZM22.9911 34.1744C22.4046 28.0613 21.7937 21.4385 21.5892 18.964C21.6164 18.9733 21.6444 18.9828 21.6728 18.9923C23.3353 19.5466 26.8972 20.2463 34.3191 20.2463C41.741 20.2463 45.3028 19.5466 46.9654 18.9923C46.9937 18.9828 47.0218 18.9733 47.049 18.964C46.836 21.5382 46.1839 28.6011 45.5765 34.9087C45.077 35.3824 44.5647 35.8487 44.072 36.2031C43.6446 36.51 43.2486 36.7432 42.8912 36.7432C42.8196 36.7432 42.7136 36.7217 42.6592 36.7091C42.6741 36.5675 42.7776 36.4071 42.9027 36.224C43.1982 35.791 43.6661 35.3121 44.1447 34.8725C44.6734 34.3869 44.9272 33.92 45.0081 33.5507C45.0985 33.1386 45.0007 32.8022 44.809 32.5636C44.6143 32.3212 44.3059 32.1605 43.9047 32.1605C43.1165 32.1605 42.4279 32.4171 41.8469 32.7927C41.8497 32.7761 41.8516 32.7594 41.8527 32.7426L41.8532 32.7338L41.8535 32.7259L41.8537 32.7205C41.8562 32.6358 41.8385 32.5527 41.8042 32.4778L41.8012 32.4718L41.7987 32.4666C41.7625 32.3923 41.7097 32.3264 41.6427 32.2744L41.6361 32.2694L41.6293 32.2645L41.6247 32.261C41.5865 32.2338 41.5441 32.2112 41.498 32.1943L41.4909 32.1916L41.4869 32.1902C41.4406 32.1744 41.3934 32.1649 41.3466 32.1616L41.3376 32.161L41.3297 32.1608L41.3243 32.1605C41.2395 32.1583 41.1567 32.1758 41.0818 32.2103L41.0758 32.2131L41.0704 32.2155C40.9963 32.2517 40.9301 32.3046 40.8784 32.3716L40.8732 32.3784L40.8683 32.3849L40.865 32.3896C40.8394 32.4255 40.8182 32.465 40.8016 32.5075L40.469 33.3431C40.006 34.3125 39.2932 35.2489 38.5662 35.9056C38.0266 36.3932 37.4985 36.7432 37.0641 36.7432C36.978 36.7432 36.9132 36.7475 36.8753 36.7116C36.8581 36.6952 36.8603 36.6694 36.8568 36.6451C36.8483 36.5887 36.85 36.5286 36.8557 36.4686C36.884 36.163 37.018 35.8574 37.0472 35.7942C37.8812 34.3185 38.8598 31.8879 40.2753 28.3238C40.3865 28.0444 40.2497 27.7273 39.9703 27.6162C39.6908 27.5054 39.3738 27.6421 39.2629 27.9216C37.8676 31.4344 36.9153 33.8239 36.0971 35.2626C36.0909 35.2726 36.0849 35.283 36.0794 35.2936C36.0102 35.414 35.9424 35.5273 35.8751 35.6341C35.6213 36.0375 35.3854 36.3371 35.1444 36.5313C34.9959 36.6511 34.8507 36.7247 34.6969 36.7399C34.6857 36.6514 34.6666 36.4684 34.6805 36.3229C34.7592 35.484 35.1983 34.2905 35.5074 33.5335C35.6148 33.2979 35.7213 33.0501 35.8272 32.7891C35.9386 32.5146 35.8103 32.2014 35.5382 32.084C35.2664 31.9666 34.9504 32.0881 34.8271 32.3577C34.8271 32.3577 34.7135 32.608 34.5552 32.9959C33.7648 34.7679 32.9785 35.776 32.3245 36.3063C31.9502 36.6095 31.6512 36.7432 31.4469 36.7432C31.3742 36.7432 31.2467 36.7315 31.1868 36.7258C31.1827 36.6999 31.1783 36.6642 31.1783 36.6342C31.1783 36.1023 31.4246 35.4194 31.704 34.787C32.1551 33.7659 32.7189 32.8758 32.7189 32.8758C32.8799 32.6219 32.8044 32.285 32.5503 32.124C32.2964 31.963 31.9595 32.0387 31.7985 32.2926C31.7985 32.2926 31.1922 33.2492 30.7074 34.3468C30.3626 35.1272 30.0888 35.9778 30.0888 36.6342C30.0888 37.1139 30.2591 37.3871 30.4598 37.5598C30.7197 37.7831 31.101 37.8327 31.4469 37.8327C31.8021 37.8327 32.3593 37.6801 33.0106 37.1526C33.192 37.0055 33.384 36.8265 33.5842 36.61C33.6144 37.3803 33.9925 37.8327 34.6361 37.8327C35.0757 37.8327 35.5088 37.6627 35.9432 37.2727C35.9928 37.3566 36.0535 37.4337 36.1257 37.5023C36.3229 37.6894 36.6165 37.8327 37.0641 37.8327C37.5538 37.8327 38.1511 37.5954 38.756 37.1553C38.8503 37.0866 38.9448 37.0131 39.0396 36.9352L37.5584 40.6575C37.4473 40.9369 37.5837 41.254 37.8632 41.3651C38.1427 41.4762 38.4597 41.3398 38.5708 41.0603L40.64 35.8602C40.6831 35.7665 41.1096 34.8668 41.89 34.1387C42.4023 33.6607 43.0732 33.25 43.9047 33.25C43.9172 33.25 43.9336 33.2522 43.9472 33.2546C43.9418 33.2966 43.9281 33.3824 43.9006 33.4445C43.8165 33.6343 43.6533 33.8443 43.4076 34.0701C42.8642 34.5691 42.3386 35.1182 42.003 35.6096C41.717 36.0282 41.5678 36.4264 41.5678 36.7437C41.5678 37.487 42.1482 37.8327 42.8912 37.8327C43.4316 37.8327 44.0616 37.5521 44.7077 37.0877C44.9419 36.9191 45.1808 36.7271 45.4207 36.5209C44.9324 41.5541 44.502 45.7775 44.3969 46.3035C44.3574 46.5007 44.2781 46.7262 44.1714 46.9678C44.1041 47.0019 44.0349 47.0356 43.9641 47.0694C42.1248 47.944 39.1431 48.6642 34.3191 48.6642C29.4951 48.6642 26.5134 47.944 24.6741 47.0694C24.6032 47.0356 24.5341 47.0019 24.4668 46.9678C24.36 46.7262 24.2807 46.5007 24.2413 46.3035C24.1402 45.7982 23.739 41.8804 23.2746 37.1093C23.6175 37.5301 24.0914 37.776 24.5793 37.776C24.9459 37.776 25.4819 37.6306 26.0863 37.2749C26.5368 37.0096 27.0372 36.6233 27.5372 36.0996C27.5375 36.0993 26.7212 38.8546 26.7212 38.8546C26.636 39.1431 26.8007 39.4462 27.0889 39.5317C27.3771 39.617 27.6805 39.4525 27.766 39.164L29.8742 32.0466C29.9586 31.7615 29.7988 31.4613 29.5152 31.3723C29.2317 31.2829 28.9288 31.4376 28.8351 31.7198C28.1111 33.8931 26.9884 35.274 25.9945 36.0258C25.4176 36.4618 24.9078 36.6865 24.5793 36.6865C24.4066 36.6865 24.2524 36.5931 24.1315 36.4517C23.8774 36.1549 23.7714 35.6681 23.8904 35.1144C24.591 31.8565 25.8352 29.8423 26.9982 28.7591C27.6729 28.131 28.2901 27.8232 28.7183 27.8232C29.1846 27.8232 29.5242 28.0926 29.7544 28.3475C30.0085 28.6286 30.1362 28.9081 30.1362 28.9081C30.2585 29.1826 30.581 29.306 30.8556 29.1837C31.1301 29.0612 31.2535 28.7387 31.1309 28.4641C31.1309 28.4641 30.861 27.8532 30.3092 27.3656C29.9142 27.017 29.3828 26.7337 28.7183 26.7337C28.1163 26.7337 27.2036 27.0791 26.2557 27.9619C25.0723 29.0642 23.7807 31.0331 22.9911 34.1744ZM37.4315 15.8546L38.8089 10.5741C38.8661 10.3554 38.9805 10.156 39.1401 9.9961L45.6771 3.45914C46.173 2.96314 46.9787 2.96314 47.4747 3.45914C47.9707 3.95513 47.9707 4.76081 47.4747 5.2568L41.1818 11.5497L40.0196 16.0047C44.6083 16.3715 47.1206 17.1742 47.1206 17.9766C47.1206 18.0066 47.1174 18.0706 47.1108 18.1668C46.9989 18.2112 46.8741 18.2572 46.7355 18.3032C45.1034 18.8472 41.6053 19.5202 34.3191 19.5202C27.0328 19.5202 23.5347 18.8472 21.9027 18.3032C21.764 18.2572 21.6393 18.2112 21.5273 18.1668C21.5208 18.0706 21.5175 18.0066 21.5175 17.9766C21.5175 16.8872 26.1479 15.7977 34.3191 15.7977L34.51 15.7979C35.5423 15.8001 36.5171 15.8197 37.4315 15.8546ZM36.7892 18.3337C36.7334 18.2648 36.7032 18.182 36.7032 18.0902C36.7032 17.8911 36.865 17.7293 37.0641 17.7293C37.1872 17.7293 37.2958 17.7912 37.3609 17.8854C37.5279 18.1259 37.7788 18.3098 38.0838 18.3896C38.5485 18.5108 39.0208 18.358 39.3294 18.0317C39.3956 17.9554 39.495 17.9088 39.6037 17.9088C39.8028 17.9088 39.9646 18.0706 39.9646 18.2697C39.9646 18.3672 39.9278 18.4577 39.8649 18.5225C39.3803 19.0403 38.6346 19.2838 37.9005 19.0923C37.4353 18.9708 37.0515 18.6949 36.7892 18.3337Z" />
  </symbol>

  <symbol id="js-ic" viewBox="0 0 58 58">
    <path fill-rule="evenodd" clip-rule="evenodd" d="M51.4091 12.8655C51.4091 9.40247 48.5975 6.59091 45.1345 6.59091H12.8655C9.40247 6.59091 6.59091 9.40247 6.59091 12.8655V45.1345C6.59091 48.5975 9.40247 51.4091 12.8655 51.4091H45.1345C48.5975 51.4091 51.4091 48.5975 51.4091 45.1345V12.8655ZM19.8169 45.814C20.9921 47.0738 22.6668 47.8616 24.5239 47.8616C28.0765 47.8616 30.9608 44.9773 30.9608 41.4247V28.6973C30.9608 27.6151 30.0822 26.7365 29 26.7365C27.9178 26.7365 27.0392 27.6151 27.0392 28.6973V41.4247C27.0392 42.8129 25.9121 43.94 24.5239 43.94C23.7981 43.94 23.1438 43.6314 22.6844 43.139C21.9463 42.3476 20.7045 42.3045 19.9132 43.0427C19.1218 43.7809 19.0787 45.0226 19.8169 45.814ZM45.0215 28.151C44.1418 27.4917 42.5116 26.5618 40.5534 26.5618C37.2571 26.5618 34.678 29.0918 34.678 32.4878C34.678 34.6212 35.7208 36.7274 38.2308 38.0162C39.5209 38.6785 40.2843 39.0245 42.1778 39.954C42.9364 40.3264 43.7867 40.9405 43.7867 42.1655C43.7867 43.3795 42.5571 43.94 40.7469 43.94C39.5899 43.94 38.5263 43.5624 37.5219 42.6755C36.7107 41.9592 35.4706 42.0362 34.7543 42.8474C34.038 43.6586 34.115 44.8988 34.9262 45.6151C36.7353 47.2125 38.6629 47.8616 40.7469 47.8616C45.3729 47.8616 47.7083 45.2677 47.7083 42.1655C47.7083 39.0844 45.8138 37.3702 43.9058 36.4337C42.0428 35.5191 41.2914 35.1793 40.022 34.5275C39.0722 34.0399 38.5996 33.295 38.5996 32.4878C38.5996 31.3486 39.4477 30.4834 40.5534 30.4834C41.4884 30.4834 42.2495 30.9743 42.6696 31.2891C43.5355 31.9381 44.7656 31.762 45.4146 30.896C46.0636 30.03 45.8875 28.8001 45.0215 28.151Z" />
  </symbol>

  <symbol id="pug-ic" viewBox="0 0 67 67">
    <path fill-rule="evenodd" clip-rule="evenodd" d="M34.0189 39.8692C35.5257 39.9022 36.6056 40.9634 37.3811 42.2025C38.6326 44.202 39.0919 46.7023 39.0919 46.7023C39.1314 46.9168 39.3375 47.0589 39.5523 47.0193C39.7668 46.9798 39.9088 46.7737 39.8693 46.559C39.8693 46.559 39.3799 43.9059 38.051 41.7829C37.1872 40.4023 35.9705 39.2579 34.342 39.0971V34.5667C34.796 34.4492 35.6245 34.2054 36.0285 33.9026C36.2029 33.7717 36.2385 33.5237 36.1075 33.3492C35.9766 33.1748 35.7286 33.1392 35.5541 33.2702C35.1734 33.5558 34.338 33.7643 34.006 33.8389L33.9467 33.852C33.6687 33.7919 32.7453 33.5748 32.3392 33.2702C32.1647 33.1392 31.9168 33.1748 31.7858 33.3492C31.6548 33.5237 31.6904 33.7717 31.8649 33.9026C32.2688 34.2054 33.0973 34.4492 33.5514 34.5667V39.0971C31.9228 39.2579 30.7062 40.4023 29.8423 41.7829C28.5134 43.9059 28.0241 46.559 28.0241 46.559C27.9845 46.7737 28.1266 46.9798 28.3411 47.0193C28.5558 47.0589 28.7619 46.9168 28.8014 46.7023C28.8014 46.7023 29.2608 44.202 30.5122 42.2025C31.3001 40.9439 32.4022 39.8685 33.9467 39.8685L34.0189 39.8692ZM33.889 29.8974C31.4606 29.9235 30.2774 31.5937 29.9804 32.0878C20.861 35.8964 20.6394 41.8694 20.6394 41.8694C20.6392 41.8754 20.6389 41.8812 20.6389 41.8873V45.0495C20.6389 47.2692 21.436 49.1402 22.3499 50.5553C20.1733 49.7673 17.7631 48.241 17.3449 45.313C17.3449 45.313 16.2081 43.0067 14.9732 41.3602C14.6754 40.9634 14.3445 40.2342 14.0888 39.4732C14.208 35.1037 14.5674 31.4719 14.5758 31.3873C15.4952 22.8904 21.5172 18.273 22.8335 17.3586C22.849 17.3654 22.8187 17.3512 22.8335 17.3586C22.8335 17.3586 27.8857 16.0623 33.9467 16.0623L34.0884 16.0626C40.0854 16.0829 45.0598 17.3586 45.0598 17.3586C45.0746 17.3512 45.0443 17.3654 45.0598 17.3586C46.3761 18.273 52.3981 22.8904 53.3175 31.3873C53.326 31.4719 53.6854 35.1037 53.8045 39.4732C53.5489 40.2342 53.2179 40.9634 52.9201 41.3602C51.6853 43.0067 50.5484 45.313 50.5484 45.313C50.1302 48.241 47.7201 49.7673 45.5434 50.5553C46.4573 49.1402 47.2544 47.2692 47.2544 45.0495V41.8873C47.2544 41.8812 47.2542 41.8754 47.2539 41.8694C47.2539 41.8694 47.0323 35.8964 37.9129 32.0878C37.6159 31.5937 36.4327 29.9235 34.0044 29.8974L33.9467 29.8971L33.889 29.8974ZM13.3259 38.5769C13.1607 38.9424 12.9254 39.2521 12.6015 39.2521C12.6015 39.2521 11.2839 39.2521 8.91225 33.5864C8.91225 33.5864 4.16888 28.9748 4.16888 28.4478C4.16888 27.9207 11.811 17.1164 21.2977 17.1164C21.2977 17.1164 21.5125 17.1164 21.7968 17.1406C19.7287 18.7373 14.6428 23.4127 13.7897 31.304C13.7895 31.3051 13.7895 31.3062 13.7892 31.3072C13.7892 31.3072 13.4675 34.5253 13.3259 38.5769ZM54.5674 38.5769C54.7326 38.9424 54.9679 39.2521 55.2918 39.2521C55.2918 39.2521 56.6094 39.2521 58.9811 33.5864C58.9811 33.5864 63.7245 28.9748 63.7245 28.4478C63.7245 27.9207 56.0824 17.1164 46.5956 17.1164C46.5956 17.1164 46.3809 17.1164 46.0965 17.1406C48.1646 18.7373 53.2506 23.4127 54.1036 31.304C54.1039 31.3051 54.1039 31.3062 54.1041 31.3072C54.1041 31.3072 54.4259 34.5253 54.5674 38.5769ZM21.1659 26.4714C18.6933 26.4714 16.6861 28.4786 16.6861 30.9512C16.6861 33.4238 18.6933 35.431 21.1659 35.431C23.6385 35.431 25.6458 33.4238 25.6458 30.9512C25.6458 28.4786 23.6385 26.4714 21.1659 26.4714ZM46.7274 26.4714C49.2 26.4714 51.2072 28.4786 51.2072 30.9512C51.2072 33.4238 49.2 35.431 46.7274 35.431C44.2548 35.431 42.2476 33.4238 42.2476 30.9512C42.2476 28.4786 44.2548 26.4714 46.7274 26.4714ZM21.1659 27.2619C23.2022 27.2619 24.8552 28.915 24.8552 30.9512C24.8552 32.9874 23.2022 34.6405 21.1659 34.6405C19.1297 34.6405 17.4767 32.9874 17.4767 30.9512C17.4767 28.915 19.1297 27.2619 21.1659 27.2619ZM46.7274 27.2619C44.6912 27.2619 43.0381 28.915 43.0381 30.9512C43.0381 32.9874 44.6912 34.6405 46.7274 34.6405C48.7636 34.6405 50.4167 32.9874 50.4167 30.9512C50.4167 28.915 48.7636 27.2619 46.7274 27.2619ZM22.22 27.9207C22.8746 27.9207 23.4059 28.452 23.4059 29.1066C23.4059 29.7611 22.8746 30.2924 22.22 30.2924C21.5654 30.2924 21.0342 29.7611 21.0342 29.1066C21.0342 28.452 21.5654 27.9207 22.22 27.9207ZM45.6733 27.9207C45.0187 27.9207 44.4875 28.452 44.4875 29.1066C44.4875 29.7611 45.0187 30.2924 45.6733 30.2924C46.3279 30.2924 46.8592 29.7611 46.8592 29.1066C46.8592 28.452 46.3279 27.9207 45.6733 27.9207ZM33.8869 52.4307C33.2981 52.4307 28.5116 52.6094 26.0411 51.374C26.0411 51.374 24.9693 51.3026 23.5758 50.936C22.5239 49.5707 21.4295 47.5495 21.4295 45.0495V41.8989C21.4445 41.6849 21.9043 36.2675 30.4079 32.7661C30.4961 32.7297 30.5683 32.6628 30.611 32.5774C30.611 32.5774 31.5689 30.6877 33.9467 30.6877L34.002 30.6879C36.3392 30.7169 37.2823 32.5774 37.2823 32.5774C37.325 32.6628 37.3972 32.7297 37.4855 32.7661C45.989 36.2675 46.4489 41.6849 46.4639 41.8989V45.0495C46.4639 47.5495 45.3695 49.5707 44.3175 50.936C42.924 51.3026 41.8523 51.374 41.8523 51.374C39.3818 52.6094 34.5952 52.4307 34.0065 52.4307H33.8869Z" />
  </symbol>

  <symbol id="sass-ic" viewBox="0 0 68 68">
    <path fill-rule="evenodd" clip-rule="evenodd" d="M32.7882 12.0006C32.7882 12.0006 43.2167 11.7868 43.2167 19.3008C43.2167 24.1705 37.4066 32.2114 26.2603 32.2114C21.2264 32.2114 19.5176 29.495 19.5176 28.474C19.5176 28.0307 19.9955 28.1378 20.283 28.474C20.5705 28.8103 21.96 30.2398 24.9364 30.2398C32.7882 30.2398 40.0053 24.41 40.0053 19.6284C40.0053 19.6284 40.3144 15.4757 32.7882 15.4757C27.3927 15.4757 16.7997 20.0823 12.4604 25.4443C11.1234 27.0963 10.3832 28.894 10.3832 30.5564C10.3832 32.2218 11.1022 33.4955 12.2815 34.666C14.9721 37.3364 17.6102 38.9478 19.7161 40.9751L25.5503 37.8358C25.5503 37.8358 28.193 34.2705 30.7986 34.2705C32.562 34.2705 32.6957 36.0655 32.6957 36.731C32.6957 37.3967 32.6309 37.6408 32.562 38.0524C32.562 38.0524 32.9172 37.6408 33.4562 37.6408C33.9954 37.6408 34.5794 38.0314 34.5794 38.609C34.5794 39.1866 34.4232 39.6783 34.3153 40.1657C34.2074 40.653 32.9547 44.6555 32.9547 45.7498C32.9547 46.1233 33.0304 46.3144 33.093 46.3735C33.093 46.3735 37.3472 38.0524 39.168 32.8478C39.3325 32.3776 40.0307 32.1115 41.4754 32.1115C42.3379 32.1115 42.8543 32.3232 42.8543 32.6606C42.8543 32.998 42.1548 34.409 42.1548 35.9483C42.1548 36.8942 42.1916 37.9259 43.0515 39.4505C43.0515 39.4505 46.3193 34.2335 46.7826 32.395C47.2458 30.5564 47.4495 30.3421 49.11 30.3421C50.7704 30.3421 50.7704 30.7221 50.7704 30.982C50.7704 31.2419 50.0739 32.7533 50.0739 34.409C50.0739 36.0648 50.851 37.3918 51.4912 38.609C51.4912 38.609 53.7762 37.2114 56.8929 37.2114C60.0096 37.2114 65 38.9281 65 43.6347C65 46.4729 62.4873 47.4085 62.0331 47.4085C61.5787 47.4085 61.6248 47.1514 61.9054 46.9112C62.186 46.6708 63.8296 45.5342 63.8296 44.1713C63.8296 42.6815 62.4537 39.2193 56.2638 39.2193C56.2638 39.2193 53.289 39.2048 52.1097 40.1657C52.1097 40.1657 52.6259 41.2365 52.6259 42.342C52.6259 43.3171 51.9113 44.7081 50.4206 45.7498C49.5986 46.3242 48.2679 47.0987 47.0673 47.0987C45.8038 47.0987 45.5932 45.91 45.5932 45.7498C45.5932 45.22 45.4109 42.7836 49.11 39.9974C49.11 39.9974 47.7208 37.8179 47.4963 35.3923C47.4963 35.3923 45.4589 39.1902 43.9146 41.3338C43.9146 41.3338 44.6301 42.7073 44.6301 44.2756C44.6301 45.8437 42.8656 49.0946 38.373 49.0946C37.6992 49.0946 36.9692 48.6089 36.9692 48.0086C36.9692 47.5656 37.1362 47.302 37.418 46.9612C37.6997 46.6204 41.3296 42.23 41.3296 42.23C41.3296 42.23 39.8475 39.4144 39.5077 37.2114C39.5077 37.2114 34.6218 49.8323 31.9544 49.8323C30.9576 49.8323 29.8004 48.427 30.4181 45.2258C30.4181 45.2258 28.6914 50.6974 26.4029 50.6974C24.1146 50.6974 23.3378 47.3159 23.3378 45.2258C23.3378 43.1355 23.8318 41.4782 24.1146 40.6658L20.792 42.5725C20.792 42.5725 21.5148 44.2609 21.5148 46.3735C21.5148 50.9892 17.9139 56 12.0407 56C8.82819 56 7.88818 54.1867 7.88818 52.0096C7.88818 49.4974 9.03981 46.4077 17.4578 42.23C17.4578 42.23 14.8402 40.2657 11.2208 37.6408C7.60139 35.016 6 32.2396 6 29.8378C6 26.1219 9.15056 21.9217 15.2482 17.8915C19.4457 15.1173 26.2603 12.0006 32.7882 12.0006ZM18.9331 43.3613C18.9331 43.3613 19.2097 44.1301 19.2097 45.5206C19.2097 48.3434 16.7145 52.7049 12.8209 52.7049C11.7789 52.7049 11.4681 51.8052 11.4681 51.236C11.4681 50.6667 11.0887 47.6994 18.9331 43.3613ZM42.1262 43.7897C42.1262 43.7897 42.1203 44.3949 41.7517 45.125C41.3833 45.8551 40.652 46.71 39.2013 47.2095L42.1262 43.7897ZM30.6625 36.57C30.7605 36.57 31.065 36.57 31.065 36.9838C31.065 38.4679 28.0351 47.0582 27.1029 47.0582C26.4207 47.0582 26.3739 45.6474 26.3739 44.7807C26.3739 40.8843 28.915 36.57 30.6625 36.57ZM49.9531 41.213C49.9531 41.213 50.1578 41.9943 49.975 42.8801C49.7922 43.766 49.2218 44.7567 47.6718 45.1753C47.6718 45.1753 47.7155 42.9799 49.9531 41.213Z"/>
  </symbol>

  <symbol id="stylelint-ic" viewBox="0 0 64 64">
    <path fill-rule="evenodd" clip-rule="evenodd" d="M7.31915 14.6383L14.8085 7.48936H19.5745L21.617 14.9787V23.1489H22.6383L24 22.4681L33.5319 58.5532L8.34043 23.1489L12.0851 19.0638L7.31915 14.6383ZM60.4255 14.6383L52.9362 7.48936H48.1702L46.1277 14.9787V23.1489H45.1064L43.7447 22.4681L34.2128 58.5532L59.4043 23.1489L55.6596 19.0638L60.4255 14.6383ZM33.8723 43.5745C34.9995 43.5745 35.9149 44.4899 35.9149 45.617C35.9149 46.7442 34.9995 47.6596 33.8723 47.6596C32.7452 47.6596 31.8298 46.7442 31.8298 45.617C31.8298 44.4899 32.7452 43.5745 33.8723 43.5745ZM33.8723 32.3404C34.9995 32.3404 35.9149 33.2558 35.9149 34.383C35.9149 35.5101 34.9995 36.4255 33.8723 36.4255C32.7452 36.4255 31.8298 35.5101 31.8298 34.383C31.8298 33.2558 32.7452 32.3404 33.8723 32.3404ZM33.8723 21.1064C34.9995 21.1064 35.9149 22.0218 35.9149 23.1489C35.9149 24.2761 34.9995 25.1915 33.8723 25.1915C32.7452 25.1915 31.8298 24.2761 31.8298 23.1489C31.8298 22.0218 32.7452 21.1064 33.8723 21.1064ZM22.6383 21.7872V9.19149L30.1277 13.2766V17.7021L22.6383 21.7872ZM45.1064 21.7872V9.19149L37.617 13.2766V17.7021L45.1064 21.7872ZM30.8085 17.7021V13.2766H36.9362V17.7021H30.8085Z"/>
  </symbol>

  <symbol id="tailwind-ic" viewBox="0 0 95 95">
   <g transform="matrix(1.11268,0,0,1.11268,-5.35211,-5.29577)">
      <path d="M12,60.2C15.228,54.7 20.821,47 30.288,47C36.675,47 41.181,50.845 45.329,54.385C48.867,57.403 52.145,60.2 56.107,60.2C59.335,60.2 63.638,58 65.789,55.8C63.638,60.2 58.689,69 47.501,69C40.216,69 36.726,65.419 33.382,61.987C30.306,58.83 27.352,55.8 21.682,55.8C16.305,55.8 14.152,58 12,60.2ZM29.211,38.2C32.44,32.7 38.033,25 47.5,25C53.886,25 58.392,28.845 62.541,32.385C66.079,35.403 69.356,38.2 73.318,38.2C76.546,38.2 80.85,36 83,33.8C80.85,38.2 75.9,47 64.712,47C57.428,47 53.938,43.419 50.593,39.987C47.517,36.83 44.564,33.8 38.893,33.8C33.517,33.8 31.363,36 29.211,38.2Z" />
    </g>
  </symbol>

  <symbol id="svg-ic" viewBox="0 0 66 66">
    <path fill-rule="evenodd" clip-rule="evenodd" d="M10.2089 55.3097C10.2865 55.4746 10.3796 55.6279 10.4881 55.7695C10.8192 56.2014 11.2636 56.526 11.8215 56.7435C12.3795 56.961 13.0115 57.0698 13.7177 57.0698C14.4111 57.0698 15.0148 56.9689 15.5286 56.7672C16.0424 56.5654 16.4412 56.2849 16.7249 55.9255C17.0086 55.5661 17.1504 55.1532 17.1504 54.6867C17.1504 54.2517 17.0227 53.886 16.7674 53.5897C16.5121 53.2934 16.1402 53.0412 15.6516 52.8332C15.163 52.6251 14.5656 52.436 13.8595 52.2657L11.7507 51.7362C10.1178 51.339 8.82854 50.718 7.88278 49.8732C6.93712 49.0284 6.46749 47.8904 6.47378 46.4593C6.46749 45.2866 6.78109 44.2622 7.41469 43.3858C8.04829 42.5095 8.9199 41.8254 10.0295 41.3337C11.1391 40.8419 12.4 40.5961 13.8123 40.5961C15.2496 40.5961 16.5058 40.8419 17.5808 41.3337C18.6178 41.8082 19.4334 42.4616 20.0273 43.2939C20.0446 43.3175 20.0613 43.3413 20.0775 43.3655L20.0915 43.3858C20.1003 43.3987 20.1161 43.4255 20.1161 43.4255C20.2985 43.7211 20.4038 44.0693 20.4038 44.4419C20.4038 45.5123 19.5348 46.3814 18.4643 46.3814C17.687 46.3814 17.1504 45.9997 16.7066 45.2621C16.5546 45.0294 16.3568 44.8276 16.1197 44.653C15.546 44.2306 14.7673 44.0194 13.7838 44.0194C13.1155 44.0194 12.5513 44.1124 12.0911 44.2984C11.6309 44.4844 11.2794 44.7413 11.0366 45.0691C10.7939 45.397 10.6725 45.7689 10.6725 46.1851C10.6599 46.5318 10.7341 46.8344 10.8947 47.0929C11.0555 47.3514 11.2778 47.5736 11.5615 47.7596C11.8453 47.9456 12.1731 48.1064 12.545 48.2419C12.9169 48.3775 13.3142 48.4925 13.7366 48.587L15.4766 49.0032C16.3214 49.1923 17.0969 49.4445 17.803 49.7597C18.5091 50.0749 19.1206 50.4627 19.6376 50.9229C20.1545 51.3832 20.5564 51.9253 20.8433 52.5494C21.1302 53.1736 21.2768 53.8892 21.283 54.6962C21.2768 55.8814 20.9757 56.9075 20.38 57.7743C19.7841 58.6412 18.9267 59.3127 17.8077 59.7886C16.6886 60.2646 15.3411 60.5026 13.7649 60.5026C12.2014 60.5026 10.8412 60.2631 9.68437 59.7839C8.52741 59.3047 7.62589 58.5939 6.97971 57.6514C6.88566 57.5143 6.79821 57.3724 6.71715 57.2257C6.51266 56.9124 6.42314 56.535 6.42314 56.1333C6.42314 55.0317 7.28816 54.1406 8.38974 54.1406C9.19679 54.1406 9.89444 54.6197 10.2089 55.3097ZM53.6472 52.9466C53.5812 52.9466 53.5146 52.9459 53.4486 52.9459C52.598 52.9459 51.9113 52.2683 51.9113 51.4178C51.9113 50.5672 52.6018 49.8767 53.4524 49.8767C53.4524 49.8767 56.4332 49.8708 58.3837 49.867C58.8219 49.8661 59.2423 50.0396 59.5525 50.3491C59.8626 50.6586 60.0369 51.0788 60.0369 51.517C60.0369 51.9526 60.0369 52.3036 60.0369 52.3036C60.0369 54.0058 59.6775 55.4669 58.9588 56.6868C58.2402 57.9068 57.2504 58.8461 55.9895 59.5049C54.7285 60.1638 53.2848 60.4931 51.6582 60.4931C49.8425 60.4931 48.2474 60.0913 46.8731 59.2874C45.4988 58.4836 44.4285 57.3394 43.6625 55.8546C42.8965 54.3699 42.5135 52.6062 42.5135 50.5635C42.5135 48.9938 42.742 47.5925 43.1992 46.36C43.6562 45.1275 44.2977 44.0825 45.1236 43.2251C45.9495 42.3677 46.9109 41.7151 48.0079 41.2675C49.1049 40.8199 50.2932 40.5961 51.5731 40.5961C52.6701 40.5961 53.6914 40.7553 54.6371 41.0737C55.5827 41.392 56.4229 41.8412 57.1573 42.4213C57.7679 42.9035 58.286 43.4609 58.7113 44.0934C58.9051 44.3997 59.0152 44.7639 59.0152 45.1529C59.0152 46.2481 58.1262 47.1371 57.031 47.1371C56.2732 47.1371 55.5976 46.7209 55.2634 46.0956C55.2234 46.0276 55.1818 45.9613 55.1383 45.8966C54.8987 45.5404 54.6072 45.2379 54.2636 44.9888C53.9199 44.7398 53.5291 44.5491 53.0909 44.4167C52.6527 44.2843 52.1689 44.218 51.6393 44.218C50.6495 44.218 49.781 44.4639 49.034 44.9557C48.2868 45.4474 47.7053 46.1614 47.2892 47.0976C46.8731 48.0339 46.665 49.1765 46.665 50.5257C46.665 51.8749 46.8699 53.0223 47.2797 53.968C47.6895 54.9137 48.2695 55.634 49.0197 56.1289C49.77 56.6238 50.6558 56.8712 51.6772 56.8712C52.6039 56.8712 53.3967 56.7058 54.0555 56.3747C54.7143 56.0437 55.2187 55.5756 55.5686 54.9704C55.9185 54.3651 56.0934 53.7726 56.0934 52.9466H53.6472ZM36.6343 42.321C36.9144 41.4814 37.7071 40.8756 38.6402 40.8756C39.807 40.8756 40.7543 41.8229 40.7543 42.9896C40.7543 43.2141 40.7192 43.4305 40.6543 43.6336C40.6543 43.6336 37.3938 53.0999 35.798 57.7332C35.2838 59.2262 33.8787 60.2284 32.2996 60.2284C30.721 60.2284 29.3164 59.227 28.8017 57.7347C27.2077 53.1136 23.9554 43.6849 23.9554 43.6849C23.8795 43.4671 23.8383 43.2332 23.8383 42.9896C23.8383 41.8229 24.7856 40.8756 25.9523 40.8756C26.8844 40.8756 27.6763 41.4801 27.9573 42.318L32.2056 55.5756H32.3853L36.6343 42.321ZM17.325 36.1982H14.8112C13.9029 37.2703 12.5469 37.9513 11.033 37.9513C8.30115 37.9513 6.08304 35.7332 6.08304 33.0013C6.08304 30.2694 8.30115 28.0513 11.033 28.0513C12.5469 28.0513 13.9029 28.7323 14.8112 29.8045H25.282L17.8781 22.4004C16.4776 22.5162 15.0373 22.039 13.9668 20.9685C12.0351 19.0367 12.0351 15.8999 13.9668 13.9682C15.8987 12.0363 19.0354 12.0363 20.9673 13.9682C22.0376 15.0386 22.515 16.479 22.3991 17.8793L29.8031 25.2834V14.8125C28.731 13.9041 28.05 12.5482 28.05 11.0344C28.05 8.30239 30.268 6.08438 33 6.08438C35.732 6.08438 37.95 8.30239 37.95 11.0344C37.95 12.5482 37.269 13.9041 36.1969 14.8125V25.2834L43.6009 17.8793C43.485 16.479 43.9624 15.0386 45.0327 13.9682C46.9646 12.0363 50.1013 12.0363 52.0332 13.9682C53.9649 15.8999 53.9649 19.0367 52.0332 20.9685C50.9627 22.039 49.5224 22.5162 48.1219 22.4004L40.718 29.8045H51.1888C52.0971 28.7323 53.4531 28.0513 54.967 28.0513C57.6989 28.0513 59.917 30.2694 59.917 33.0013C59.917 35.7332 57.6989 37.9513 54.967 37.9513C53.4531 37.9513 52.0971 37.2703 51.1888 36.1982H48.4688V36.1969H17.325V36.1982Z" />
  </symbol>

  <symbol id="new-tab-ic" viewBox="0 0 22 22">
    <path fill-rule="evenodd" clip-rule="evenodd" d="M8 0C8.265 0 8.52 0.105 8.707 0.293C8.895 0.48 9 0.735 9 1C9 1.265 8.895 1.52 8.707 1.707C8.52 1.895 8.265 2 8 2C6.427 2 3.552 2 3.552 2C2.696 2 2 2.696 2 3.552V18.448C2 19.304 2.696 20 3.552 20H18.448C19.304 20 20 19.304 20 18.448V14C20 13.735 20.105 13.48 20.293 13.293C20.48 13.105 20.735 13 21 13C21.265 13 21.52 13.105 21.707 13.293C21.895 13.48 22 13.735 22 14C22 15.573 22 18.448 22 18.448C22 20.408 20.408 22 18.448 22H3.552C1.592 22 0 20.408 0 18.448V3.552C0 1.592 1.592 0 3.552 0H8ZM18.58 2.006C18.536 2.002 18.492 2 18.448 2H14C13.735 2 13.48 1.895 13.293 1.707C13.105 1.52 13 1.265 13 1C13 0.735 13.105 0.48 13.293 0.293C13.48 0.105 13.735 0 14 0C15.573 0 18.448 0 18.448 0C20.408 0 22 1.592 22 3.552V8C22 8.265 21.895 8.52 21.707 8.707C21.52 8.895 21.265 9 21 9C20.735 9 20.48 8.895 20.293 8.707C20.105 8.52 20 8.265 20 8C20 6.427 20 3.552 20 3.552C20 3.508 19.998 3.464 19.994 3.42L11.707 11.707C11.317 12.097 10.683 12.097 10.293 11.707C9.903 11.317 9.903 10.683 10.293 10.293L18.58 2.006Z" />
  </symbol>

  <symbol id="right-arrow-ic" viewBox="0 0 22 15">
    <path fill-rule="evenodd" clip-rule="evenodd" d="M15.6883 0.934351L22.2003 7.41588C22.5999 7.81362 22.5999 8.45848 22.2003 8.85622L15.6883 15.3377C15.2887 15.7355 14.6408 15.7355 14.2412 15.3377C13.8416 14.94 13.8416 14.2951 14.2412 13.8974L19.0064 9.15452H0.5V7.11757H19.0064L14.2412 2.37469C13.8416 1.97695 13.8416 1.33209 14.2412 0.934351C14.6408 0.536613 15.2887 0.536613 15.6883 0.934351Z"/>
  </symbol>

  <symbol id="left-arrow-ic" viewBox="0 0 22 15">
    <path fill-rule="evenodd" clip-rule="evenodd" d="M6.65685 0.934351L0.292892 7.41588C-0.0976315 7.81362 -0.0976315 8.45848 0.292892 8.85622L6.65685 15.3377C7.04738 15.7355 7.68054 15.7355 8.07107 15.3377C8.46159 14.94 8.46159 14.2951 8.07107 13.8974L3.41421 9.15452H22V7.11757H3.41421L8.07107 2.37469C8.46159 1.97695 8.46159 1.33209 8.07107 0.934351C7.68054 0.536613 7.04738 0.536613 6.65685 0.934351Z"/>
  </symbol>

</svg>
